<?xml version="1.0" standalone="no"?>
<!DOCTYPE svg PUBLIC "-//W3C//DTD SVG 20010904//EN"
 "http://www.w3.org/TR/2001/REC-SVG-20010904/DTD/svg10.dtd">
<svg version="1.0" xmlns="http://www.w3.org/2000/svg"
 width="300.000000pt" height="219.000000pt" viewBox="0 0 300.000000 219.000000"
 preserveAspectRatio="xMidYMid meet">
<metadata>
Created by potrace 1.10, written by Peter Selinger 2001-2011
</metadata>
<g transform="translate(0.000000,219.000000) scale(0.100000,-0.100000)"
fill="#000000" stroke="none">
<path d="M1572 2165 c-22 -18 -42 -25 -74 -25 -34 0 -54 -7 -84 -30 -21 -16
-51 -30 -65 -30 -30 0 -77 -45 -88 -85 -10 -39 -50 -66 -106 -72 -30 -4 -49
-11 -52 -22 -3 -9 -13 -24 -21 -34 -8 -9 -13 -18 -11 -20 2 -1 31 -15 63 -32
38 -18 69 -43 85 -67 14 -20 34 -40 44 -43 31 -11 66 -53 60 -74 -3 -11 -12
-18 -21 -16 -10 2 -25 4 -36 4 -15 1 -17 6 -12 32 l6 31 -43 -7 c-68 -11 -217
-95 -217 -124 0 -4 15 -12 33 -19 23 -8 37 -23 49 -51 23 -53 48 -65 115 -57
32 4 62 2 74 -4 16 -9 25 -6 50 14 17 14 38 25 47 25 15 -1 15 -2 0 -6 -22 -6
-22 -14 -1 -51 22 -38 11 -66 -22 -60 -17 4 -31 -2 -46 -19 -18 -19 -29 -22
-56 -17 -37 7 -63 -8 -63 -36 0 -10 -11 -32 -25 -48 -14 -17 -25 -36 -25 -44
0 -8 -9 -24 -21 -36 -17 -19 -18 -23 -5 -28 9 -3 16 -12 16 -20 0 -8 9 -19 20
-26 21 -14 27 -43 10 -53 -13 -8 -13 -25 0 -25 6 0 26 -18 46 -40 40 -44 47
-46 86 -26 25 13 29 13 37 -2 10 -19 9 -102 -2 -119 -9 -15 28 -24 42 -10 16
16 14 -6 -1 -22 -11 -11 -10 -12 2 -6 29 15 49 38 44 47 -12 19 41 -5 63 -28
26 -28 53 -32 47 -7 -4 14 1 18 20 18 18 0 25 -5 22 -15 -3 -8 -7 -34 -11 -57
-4 -22 -15 -49 -26 -59 -10 -9 -19 -23 -19 -30 0 -8 -13 -20 -29 -29 -37 -19
-71 -61 -71 -88 0 -16 -3 -18 -12 -9 -20 20 -45 14 -71 -17 -14 -17 -28 -27
-31 -24 -3 4 -6 1 -6 -6 0 -17 -19 -33 -62 -53 -38 -17 -58 -52 -40 -70 7 -7
25 -5 56 7 34 13 46 23 46 38 0 16 3 18 12 9 9 -9 18 -5 38 16 32 32 50 38 50
17 0 -18 21 -20 39 -3 9 9 8 2 -3 -19 -22 -45 -20 -50 9 -23 14 13 25 33 25
45 0 30 37 75 61 75 18 0 24 15 20 48 -2 11 11 16 32 13 4 0 7 5 7 12 0 8 11
19 25 25 14 7 28 20 32 29 3 10 41 53 84 96 74 73 93 107 68 122 -7 5 -5 13 6
25 13 14 13 19 3 23 -9 4 -9 6 2 6 9 1 26 25 39 57 30 69 71 114 103 113 21
-1 21 -2 3 -7 -41 -14 -54 -29 -74 -89 -25 -75 -25 -77 -4 -69 15 6 15 5 -1
-13 -44 -49 27 -56 88 -9 22 18 43 35 46 38 9 11 42 20 51 14 6 -3 5 -11 -2
-20 -9 -12 -6 -12 20 -3 36 13 51 35 51 76 -1 24 -2 26 -13 12 -9 -12 -15 -13
-22 -5 -19 22 -15 36 11 42 32 8 45 -9 37 -48 -6 -30 8 -37 29 -15 16 18 53
10 81 -19 20 -20 28 -22 56 -14 35 10 44 8 110 -23 35 -16 47 -18 62 -8 16 9
19 8 19 -8 0 -11 12 -28 27 -38 81 -55 180 -195 167 -236 -5 -15 -3 -19 8 -14
11 4 20 -9 33 -45 12 -33 21 -46 27 -40 17 17 18 241 2 279 -47 111 37 0 95
-127 24 -52 47 -99 52 -104 10 -11 -7 -46 -22 -46 -7 0 -7 6 0 17 7 13 4 28
-12 55 -11 21 -24 38 -29 38 -4 0 -8 12 -8 26 0 14 -8 39 -17 55 -20 33 -48
40 -38 10 13 -43 14 -65 2 -79 -10 -13 -8 -14 11 -7 21 6 23 5 13 -13 -16 -30
-14 -46 9 -72 34 -39 23 -53 -18 -24 -21 14 -22 14 -22 -12 0 -23 2 -25 15
-14 13 11 14 10 10 -3 -4 -8 -1 -18 5 -22 9 -5 9 -10 1 -14 -7 -5 -7 -17 -2
-36 5 -17 10 -25 10 -20 1 6 11 -10 23 -35 21 -43 22 -44 26 -17 l3 28 19 -23
19 -23 1 40 c0 30 3 36 10 25 5 -8 10 -25 10 -37 0 -12 5 -25 12 -29 8 -5 9 2
4 27 -6 31 -5 32 8 14 12 -16 18 -18 33 -9 13 8 19 28 23 73 6 73 1 84 -51
116 -21 14 -39 31 -39 38 0 6 -18 48 -40 92 -22 44 -40 84 -40 88 0 5 -17 29
-39 55 -21 26 -44 57 -50 70 -17 33 -45 27 -83 -19 l-34 -40 -34 47 c-19 25
-42 58 -51 73 -11 17 -23 25 -35 22 -10 -2 -28 -4 -39 -5 -20 -1 -20 6 -23
509 l-3 510 -62 28 c-47 20 -71 26 -98 21 -41 -7 -160 10 -231 32 -27 9 -74
14 -110 13 -67 -3 -90 4 -82 25 6 17 -44 28 -87 19 -19 -4 -34 -1 -38 6 -4 6
-16 13 -27 16 -10 2 -35 9 -54 14 -19 6 -36 11 -37 11 -1 0 -15 -11 -31 -25z
m63 -25 c-8 -9 -15 -20 -15 -23 0 -12 35 -7 57 8 18 13 22 13 33 0 10 -12 24
-14 62 -9 41 6 47 4 43 -8 -9 -22 43 -38 119 -38 34 0 77 -5 96 -10 65 -20
212 -41 244 -35 20 4 47 -1 79 -15 l47 -21 0 -492 c0 -559 -2 -544 71 -534 26
3 39 1 39 -6 0 -7 18 -34 40 -62 22 -27 40 -57 40 -65 0 -9 -5 -7 -16 8 -8 12
-28 29 -45 37 -22 12 -29 22 -29 46 0 26 -3 30 -17 24 -33 -15 -68 -11 -65 6
2 13 -11 15 -79 15 -72 -1 -83 1 -99 21 -12 16 -24 20 -40 16 -16 -4 -21 -3
-16 5 4 8 -3 16 -18 22 -14 5 -26 17 -26 26 0 13 -7 16 -36 11 -29 -5 -35 -3
-30 8 9 24 -3 17 -31 -16 l-26 -30 -23 22 c-30 28 -30 31 4 51 l27 17 -27 1
c-45 0 -126 -49 -164 -101 -19 -27 -33 -53 -29 -59 3 -5 -1 -10 -9 -10 -9 0
-16 -6 -16 -14 0 -8 -8 -21 -18 -28 -11 -7 -24 -23 -30 -35 -10 -18 -9 -24 8
-36 l21 -14 -23 -34 c-12 -19 -44 -51 -70 -72 -27 -21 -53 -49 -58 -63 -5 -13
-20 -28 -32 -33 -34 -13 -79 -58 -73 -73 4 -9 -10 -22 -36 -36 -49 -27 -49
-27 -49 -4 0 20 41 62 78 81 12 6 22 18 22 27 0 8 11 26 24 39 16 16 26 40 30
79 4 31 12 58 17 61 5 4 9 17 9 31 l0 25 -29 -20 c-37 -27 -41 -26 -41 5 0 23
-2 25 -16 13 -9 -7 -20 -22 -25 -34 -8 -20 -8 -20 -15 3 -3 12 -14 22 -24 22
-10 0 -20 6 -22 12 -3 9 -17 4 -42 -15 l-37 -28 2 53 c2 69 -14 102 -47 94
-67 -17 -69 -16 -92 14 -13 17 -25 45 -26 63 -2 17 -4 37 -5 44 0 7 -7 10 -15
7 -9 -3 -15 4 -19 23 -3 15 -1 29 3 31 5 2 6 10 3 17 -3 8 7 29 21 46 14 17
26 38 26 48 0 29 19 41 46 29 20 -10 30 -8 54 10 16 12 38 22 49 22 11 0 27 7
35 16 18 18 22 79 5 90 -8 4 -8 9 0 17 15 15 14 29 -3 52 -10 14 -16 16 -27 7
-8 -7 -25 -21 -39 -31 l-25 -20 -49 47 c-47 46 -51 44 -15 -8 17 -25 16 -25
-11 -27 -15 -1 -31 -3 -36 -4 -30 -5 -56 4 -70 26 -16 24 -16 27 1 45 18 19
17 20 -6 20 -33 0 -69 11 -69 20 0 12 120 77 157 85 29 6 32 4 26 -11 -4 -11
0 -22 12 -30 22 -16 101 -19 110 -4 3 6 19 10 36 10 16 0 29 2 29 4 0 2 -14
18 -30 36 -24 26 -28 35 -19 46 16 20 8 25 -50 33 -42 5 -53 11 -73 40 -18 26
-56 53 -126 88 -2 1 1 11 8 22 8 16 20 21 49 21 53 0 101 35 118 85 16 47 45
75 80 75 14 0 38 11 55 25 21 17 41 25 69 25 42 0 87 18 108 43 6 8 21 13 32
10 18 -5 18 -7 4 -23z m-295 -440 c0 -5 -5 -10 -11 -10 -5 0 -7 5 -4 10 3 6 8
10 11 10 2 0 4 -4 4 -10z m652 -670 c35 -10 37 -13 28 -36 -14 -35 -12 -42 5
-20 8 11 15 15 15 9 0 -14 -25 -35 -33 -27 -11 11 -57 -6 -57 -20 0 -16 -56
-66 -73 -66 -7 0 3 14 21 30 17 16 32 32 32 35 0 2 -14 2 -31 -2 l-31 -6 16
31 c9 17 16 40 16 51 0 31 31 38 92 21z m88 -64 c0 -3 -4 -8 -10 -11 -5 -3
-10 -1 -10 4 0 6 5 11 10 11 6 0 10 -2 10 -4z m634 -81 c3 -9 0 -15 -8 -15
-11 0 -12 -8 -5 -37 11 -49 11 -53 -1 -53 -5 0 -10 14 -10 31 0 26 -3 29 -20
24 -24 -8 -25 -1 -3 36 19 32 38 37 47 14z m-70 -81 c9 -8 14 -20 11 -25 -7
-10 -55 18 -55 32 0 15 27 10 44 -7z m87 -47 c-13 -13 -26 -3 -16 12 3 6 11 8
17 5 6 -4 6 -10 -1 -17z m-21 -27 c13 -8 13 -11 -2 -27 -17 -16 -19 -16 -32 2
-22 31 0 47 34 25z m10 -49 c-5 -11 -6 -21 -1 -23 5 -2 12 -21 16 -43 5 -30 4
-36 -4 -25 -6 8 -11 25 -11 38 0 13 -4 20 -10 17 -5 -3 -10 0 -10 9 0 22 11
46 21 46 6 0 5 -8 -1 -19z m104 -80 c15 -17 15 -19 1 -25 -23 -8 -22 -9 -27
19 -6 30 3 32 26 6z m23 -50 c-3 -12 4 -28 19 -42 13 -12 24 -30 24 -38 -1
-12 -3 -11 -12 4 -6 11 -22 33 -37 48 -22 24 -23 29 -11 37 21 14 23 12 17 -9z
m61 -26 c-6 -14 -13 -23 -16 -21 -7 7 9 46 18 46 5 0 4 -11 -2 -25z m62 -65
c0 -59 -13 -87 -23 -50 -3 11 -1 22 3 25 16 10 6 45 -12 45 -11 0 -15 -5 -12
-14 3 -8 1 -17 -5 -21 -14 -8 -14 10 0 58 9 33 12 36 29 27 16 -9 20 -21 20
-70z m-1595 31 c-3 -5 5 -11 17 -14 21 -3 21 -4 4 -12 -12 -5 -21 -3 -27 6
-10 15 -14 11 -46 -38 -10 -15 -12 -15 -12 -2 -1 18 43 69 59 69 6 0 9 -4 5
-9z m1481 -26 c17 -43 17 -46 0 -39 -8 3 -16 13 -19 22 -3 9 -8 25 -12 35 -4
10 -3 17 4 17 7 0 19 -16 27 -35z m-1416 -5 c0 -5 -5 -10 -11 -10 -5 0 -7 5
-4 10 3 6 8 10 11 10 2 0 4 -4 4 -10z m-181 -74 c-2 -2 -20 -11 -39 -21 l-35
-18 19 22 c11 11 28 21 39 21 11 0 18 -2 16 -4z"/>
<path d="M810 1348 c0 -31 17 -48 49 -48 14 0 35 -10 47 -21 23 -21 23 -21 55
-3 44 26 46 41 7 49 -18 4 -40 13 -49 21 -8 7 -28 13 -45 12 -16 -1 -37 2 -46
6 -14 7 -18 3 -18 -16z m105 -28 c11 -5 27 -11 35 -13 12 -4 12 -6 -3 -12 -11
-5 -24 -1 -36 9 -10 9 -29 16 -44 16 -14 0 -29 4 -32 10 -7 11 46 4 80 -10z"/>
<path d="M720 1056 c0 -3 9 -20 20 -39 13 -22 35 -40 60 -50 22 -8 40 -12 39
-9 0 8 -119 105 -119 98z"/>
<path d="M1077 989 c-9 -5 -22 -7 -27 -4 -19 12 -10 -24 11 -44 30 -28 56 -32
81 -11 21 17 21 18 5 44 -18 27 -40 32 -70 15z m53 -34 c0 -16 -9 -19 -34 -9
-25 9 -19 24 9 24 16 0 25 -6 25 -15z"/>
<path d="M1808 797 c-16 -19 -28 -40 -28 -46 0 -5 -9 -13 -20 -16 -11 -3 -20
-12 -20 -18 0 -7 -9 -18 -20 -25 -24 -14 -26 -50 -5 -78 20 -26 19 -45 -1 -37
-11 4 -15 2 -13 -6 3 -7 8 -12 12 -12 4 1 14 1 22 1 8 0 15 6 15 13 0 6 23 32
50 57 45 39 50 48 44 73 -4 20 -2 32 7 38 10 6 11 13 2 31 -7 13 -13 32 -15
42 -3 16 -7 14 -30 -17z m16 -44 c-5 -5 -12 -12 -16 -18 -4 -6 -8 -2 -8 8 0 9
7 17 17 17 9 0 12 -3 7 -7z m0 -58 c3 -9 0 -15 -8 -15 -7 0 -25 -11 -40 -25
-31 -29 -42 -31 -50 -9 -9 23 3 37 20 23 11 -9 14 -7 14 11 0 16 4 20 15 16 8
-3 15 -1 15 4 0 16 27 11 34 -5z"/>
<path d="M943 592 c-15 -2 -23 -10 -23 -23 0 -24 12 -24 35 1 21 23 19 27 -12
22z"/>
<path d="M1119 322 c-8 -13 -24 -22 -38 -22 -17 0 -22 -4 -19 -18 7 -24 -19
-47 -36 -33 -10 9 -19 4 -38 -21 -26 -34 -44 -78 -33 -78 3 0 21 11 38 24 18
13 48 31 67 39 49 20 95 82 83 110 l-10 22 -14 -23z"/>
<path d="M1160 298 c0 -20 1 -21 20 -3 11 10 20 20 20 22 0 1 -9 3 -20 3 -14
0 -20 -7 -20 -22z"/>
<path d="M10 187 c0 -20 22 -37 47 -37 28 0 29 11 5 33 -22 20 -52 22 -52 4z"/>
<path d="M684 116 c-3 -8 -22 -17 -42 -21 -33 -6 -34 -8 -16 -15 12 -5 47 -9
78 -9 31 0 66 -2 78 -6 l23 -6 -24 20 c-13 12 -32 21 -42 21 -10 0 -19 7 -19
15 0 19 -29 20 -36 1z"/>
<path d="M556 84 c-6 -16 -19 -15 -57 0 -13 6 -15 1 -13 -31 2 -21 3 -40 3
-42 1 -2 7 1 14 6 6 6 20 13 29 16 12 4 15 2 11 -10 -5 -13 -3 -13 25 1 38 20
43 35 20 58 -22 22 -24 22 -32 2z"/>
<path d="M255 81 c-3 -5 -1 -12 5 -16 12 -7 30 2 30 16 0 12 -27 12 -35 0z"/>
<path d="M335 40 c-8 -13 3 -30 21 -30 18 0 18 14 0 29 -10 8 -16 9 -21 1z"/>
</g>
</svg>
