<?xml version="1.0" standalone="no"?>
<!DOCTYPE svg PUBLIC "-//W3C//DTD SVG 20010904//EN"
 "http://www.w3.org/TR/2001/REC-SVG-20010904/DTD/svg10.dtd">
<svg version="1.0" xmlns="http://www.w3.org/2000/svg"
 width="300.000000pt" height="218.000000pt" viewBox="0 0 300.000000 218.000000"
 preserveAspectRatio="xMidYMid meet">
<metadata>
Created by potrace 1.10, written by Peter Selinger 2001-2011
</metadata>
<g transform="translate(0.000000,218.000000) scale(0.100000,-0.100000)"
fill="#000000" stroke="none">
<path d="M386 2169 c-2 -8 -9 -93 -15 -189 -6 -96 -18 -267 -26 -380 -8 -113
-22 -306 -31 -430 -8 -124 -21 -297 -28 -384 l-13 -160 50 -78 c27 -43 48 -80
46 -82 -2 -2 -86 -51 -187 -111 -100 -59 -182 -112 -182 -119 0 -6 23 -48 50
-94 30 -50 50 -95 50 -113 0 -32 26 -41 37 -13 3 8 11 13 17 11 7 -3 20 1 31
9 24 18 35 18 35 -1 0 -23 24 -18 50 10 14 15 26 21 30 15 4 -6 14 -8 23 -4
15 6 19 12 16 30 -2 14 26 22 42 14 12 -7 22 -4 34 10 10 11 29 20 42 20 14 0
23 6 23 15 0 8 5 15 11 15 6 0 29 16 52 35 23 20 59 41 82 47 22 6 47 17 56
25 12 10 18 10 31 -3 15 -15 18 -15 42 2 14 11 26 25 26 32 0 7 5 10 11 6 7
-4 19 2 28 14 21 27 38 29 83 9 27 -12 44 -14 62 -8 26 10 44 31 27 31 -19 0
-12 15 25 52 29 30 41 36 67 33 28 -4 38 3 84 50 28 30 56 55 61 55 5 0 15 7
22 15 17 20 34 19 26 -1 -15 -39 50 -60 86 -27 13 11 18 12 18 3 0 -10 3 -10
14 -1 9 8 15 8 18 1 2 -6 21 -1 47 12 32 15 46 18 49 10 2 -7 16 -12 32 -12
16 0 30 -7 34 -15 8 -22 30 -18 58 10 20 19 38 25 89 29 58 5 66 3 90 -20 23
-22 28 -23 41 -11 9 10 20 12 30 6 11 -6 18 -4 22 6 3 8 16 15 30 15 14 0 28
4 31 10 8 14 79 7 99 -9 17 -15 81 -8 92 10 3 6 -1 18 -10 28 -9 10 -16 22
-16 27 0 4 7 -2 16 -15 15 -21 22 -23 67 -18 27 4 57 13 67 22 20 18 47 20 52
3 8 -24 38 1 38 32 0 34 10 39 26 13 8 -13 27 -19 62 -21 42 -2 53 1 65 18 11
16 20 20 34 13 10 -5 31 -8 46 -7 15 0 30 -3 33 -8 3 -5 12 -4 20 3 11 9 14 9
14 0 0 -7 5 -9 10 -6 6 3 10 16 10 28 0 17 2 19 9 8 7 -11 13 -10 32 8 16 15
25 18 30 9 10 -16 47 -17 60 -1 15 17 29 17 29 -1 0 -26 19 -28 49 -6 27 18
30 26 29 73 0 28 -4 60 -10 70 -12 23 -5 31 30 32 24 0 27 4 34 50 18 124 8
1188 -12 1200 -17 10 -1076 24 -1190 16 -25 -2 -98 0 -162 4 -106 7 -118 6
-118 -9 0 -9 -4 -16 -10 -16 -5 0 -10 -8 -10 -19 0 -12 -9 -20 -25 -23 -23 -5
-25 -2 -25 33 l0 39 -47 1 c-27 1 -52 1 -58 0 -5 -2 -126 2 -270 8 -571 23
-664 24 -669 10z m424 -24 c162 -8 364 -15 449 -15 l154 0 -6 -41 -5 -42 46 7
c49 6 72 26 72 59 0 18 6 19 103 12 56 -4 108 -12 115 -18 9 -7 25 -6 52 3 33
11 138 12 548 5 279 -5 531 -9 560 -9 l52 -1 0 -40 c0 -22 3 -69 5 -105 17
-230 24 -642 15 -795 -5 -93 -10 -190 -10 -215 0 -43 -2 -46 -32 -55 -36 -11
-36 -11 -25 -123 2 -24 0 -45 -5 -48 -4 -3 -8 0 -8 5 0 6 -9 11 -20 11 -12 0
-20 7 -20 18 0 14 -4 12 -21 -8 -12 -15 -19 -19 -18 -10 1 8 0 31 -1 50 l-2
35 -10 -37 c-6 -21 -14 -38 -20 -38 -5 0 -6 -4 -3 -10 3 -6 -1 -7 -9 -4 -11 4
-14 14 -11 33 5 25 5 26 -6 3 -7 -12 -17 -21 -23 -19 -6 2 -15 0 -21 -5 -5 -5
-21 -17 -35 -29 l-24 -20 -23 43 -22 43 -1 -37 c0 -21 -4 -38 -10 -38 -5 0
-10 9 -10 19 0 11 -5 23 -11 27 -8 4 -9 -3 -4 -25 4 -20 3 -31 -4 -31 -6 0
-11 18 -11 39 0 42 -9 55 -32 46 -14 -5 -18 -68 -6 -81 14 -13 -13 -44 -37
-44 -18 0 -25 5 -25 20 0 22 -25 28 -33 8 -3 -8 -6 -6 -6 5 -1 20 -34 23 -49
5 -5 -7 -12 -22 -15 -33 -4 -16 -5 -14 -6 7 -1 35 -21 48 -21 14 0 -21 -5 -26
-25 -26 -15 0 -25 -6 -25 -14 0 -14 -86 -40 -101 -30 -4 2 -10 18 -14 34 -8
34 -24 40 -32 10 -3 -11 -9 -20 -14 -20 -5 0 -9 -10 -9 -22 0 -30 -15 -54 -24
-39 -4 6 -2 11 3 11 6 0 11 4 11 9 0 11 -115 10 -126 -1 -4 -5 -16 -8 -27 -8
-11 0 -29 -7 -39 -17 -17 -15 -18 -15 -18 5 0 19 -3 20 -25 10 -14 -6 -25 -16
-25 -21 0 -6 -8 -3 -18 6 -19 18 -84 24 -121 13 -16 -6 -26 -4 -32 5 -7 11
-11 10 -23 -6 -9 -11 -16 -16 -16 -11 0 5 -7 3 -16 -5 -10 -9 -18 -9 -22 -2
-4 6 -19 9 -35 7 -17 -2 -25 1 -21 8 8 13 -55 0 -74 -15 -7 -5 -16 -7 -20 -3
-4 4 4 16 18 27 l25 21 -30 -7 c-16 -4 -32 -10 -35 -14 -6 -8 -68 -44 -91 -53
-18 -7 -18 -7 -20 80 -2 49 -7 51 -38 18 -14 -14 -29 -22 -38 -19 -13 5 -13 2
-4 -15 15 -28 14 -42 -3 -42 -8 0 -37 -23 -64 -50 -55 -56 -77 -65 -62 -24 17
44 10 61 -9 25 l-18 -34 -11 29 -10 29 -1 -40 c-1 -34 -7 -45 -37 -69 -36 -28
-51 -26 -55 9 -1 11 -16 -33 -18 -52 -1 -7 6 -13 14 -13 8 0 15 -7 15 -15 0
-16 -27 -20 -49 -6 -11 7 -12 17 -4 50 13 49 9 52 -13 8 -10 -17 -19 -26 -21
-19 -3 6 -13 12 -24 12 -17 0 -18 -3 -8 -21 9 -18 8 -20 -8 -15 -23 7 -32 1
-67 -47 -30 -39 -46 -47 -46 -23 0 26 -16 26 -43 0 -26 -24 -54 -33 -42 -14 9
14 -29 12 -44 -3 -11 -10 -12 -5 -7 26 8 43 -8 44 -18 1 -12 -48 -34 -72 -61
-66 -28 5 -30 1 -14 -31 9 -20 9 -20 -4 -5 -15 19 -33 25 -22 9 6 -10 -32 -51
-47 -51 -4 0 -3 12 2 28 l10 27 -20 -25 c-11 -14 -20 -28 -20 -33 0 -4 -12 -4
-26 -1 -23 6 -25 4 -19 -15 6 -21 -8 -30 -20 -11 -3 5 -15 15 -27 21 -11 6
-18 7 -14 1 3 -5 -1 -27 -8 -48 -8 -22 -15 -33 -15 -26 -1 6 -8 12 -16 12 -10
0 -12 6 -8 17 6 15 4 16 -9 5 -13 -10 -17 -10 -20 0 -3 8 -9 5 -17 -10 -12
-23 -13 -23 -27 -5 -14 16 -14 15 -9 -17 5 -31 4 -33 -7 -15 -12 19 -13 19
-19 -10 -6 -28 -7 -28 -8 -5 0 15 -23 62 -50 105 l-49 79 97 56 c296 173 293
171 278 188 -7 10 -33 48 -56 85 l-42 69 20 271 c12 150 34 466 51 702 16 237
33 458 36 493 l6 62 51 0 c29 0 185 -7 347 -15z m460 -1545 c0 -5 -5 -10 -11
-10 -5 0 -7 5 -4 10 3 6 8 10 11 10 2 0 4 -4 4 -10z m-945 -500 c-3 -5 -10
-10 -16 -10 -5 0 -9 5 -9 10 0 6 7 10 16 10 8 0 12 -4 9 -10z"/>
</g>
</svg>
