<?xml version="1.0" standalone="no"?>
<!DOCTYPE svg PUBLIC "-//W3C//DTD SVG 20010904//EN"
 "http://www.w3.org/TR/2001/REC-SVG-20010904/DTD/svg10.dtd">
<svg version="1.0" xmlns="http://www.w3.org/2000/svg"
 width="300.000000pt" height="339.000000pt" viewBox="0 0 300.000000 339.000000"
 preserveAspectRatio="xMidYMid meet">
<metadata>
Created by potrace 1.10, written by Peter Selinger 2001-2011
</metadata>
<g transform="translate(0.000000,339.000000) scale(0.100000,-0.100000)"
fill="#000000" stroke="none">
<path d="M1113 3358 c-21 -18 -40 -35 -43 -38 -3 -3 -167 -163 -365 -355 -198
-191 -437 -425 -532 -518 l-172 -170 19 -25 c11 -13 20 -38 20 -54 0 -21 10
-39 35 -61 20 -17 88 -102 152 -189 112 -151 118 -158 167 -174 28 -9 86 -38
128 -65 l78 -48 122 -7 c81 -4 131 -11 146 -21 54 -34 100 -84 106 -117 4 -19
23 -52 44 -74 32 -36 44 -41 92 -46 30 -3 56 -6 56 -6 1 0 16 -23 34 -50 34
-52 56 -70 87 -70 13 0 35 -28 70 -88 59 -100 73 -157 48 -196 -15 -23 -15
-26 4 -45 35 -35 71 -25 144 39 31 28 47 50 47 65 0 14 10 33 22 45 30 28 47
25 20 -3 -12 -13 -22 -34 -22 -48 0 -15 -23 -50 -66 -98 -127 -143 -145 -170
-138 -206 4 -22 -6 -77 -30 -167 -28 -108 -33 -141 -26 -172 8 -35 5 -43 -22
-77 -27 -33 -32 -49 -36 -112 -3 -49 -1 -77 7 -81 6 -4 11 -22 11 -41 0 -52
23 -68 87 -62 29 3 55 1 58 -4 4 -5 19 -9 34 -9 31 0 37 6 877 865 605 619
614 628 614 655 0 16 -145 169 -537 567 -296 299 -704 713 -908 919 -203 206
-375 375 -382 374 -7 0 -29 -15 -50 -32z m542 -508 c269 -272 674 -681 899
-908 l410 -412 -159 -163 c-361 -367 -600 -611 -940 -959 -198 -203 -361 -368
-364 -368 -4 0 -14 7 -23 14 -12 9 -35 11 -68 8 l-50 -5 0 35 c0 19 -5 39 -11
45 -7 7 -10 34 -7 70 3 45 12 68 36 103 28 40 31 49 23 84 -8 31 -3 63 25 170
22 83 32 144 29 166 -5 33 1 42 95 148 55 62 102 125 106 140 11 55 16 57 96
53 86 -4 119 9 183 68 22 21 75 52 120 71 44 18 84 37 89 41 10 9 -45 39 -73
39 -11 0 -72 -29 -135 -64 -112 -63 -116 -64 -173 -59 -47 4 -70 1 -108 -16
-63 -28 -82 -45 -90 -84 -7 -37 -84 -107 -117 -107 -20 0 -20 1 -3 20 28 30
13 108 -37 194 -64 111 -85 136 -116 136 -21 0 -33 10 -56 46 -42 66 -49 71
-115 78 -56 6 -63 10 -86 44 -14 20 -25 42 -25 49 0 30 -27 65 -87 113 l-64
51 -72 -1 c-132 -1 -176 9 -247 54 -36 23 -89 51 -119 62 -52 18 -59 25 -154
154 -55 74 -120 158 -146 185 -30 32 -48 61 -50 80 -2 17 -7 35 -12 41 -6 8
71 88 238 250 233 224 439 424 733 711 69 68 127 122 130 120 3 -1 225 -225
495 -497z m425 -1590 c0 -6 -31 -25 -70 -42 -38 -17 -70 -35 -70 -40 0 -4 -6
-8 -14 -8 -7 0 -20 -7 -27 -17 -28 -33 -93 -54 -141 -45 -24 5 -55 7 -67 5
-13 -2 -20 1 -16 7 3 5 42 10 87 10 58 0 88 5 109 17 16 10 29 21 29 26 0 4
15 14 33 22 17 8 52 28 77 44 47 31 70 38 70 21z"/>
</g>
</svg>
