<?xml version="1.0" standalone="no"?>
<!DOCTYPE svg PUBLIC "-//W3C//DTD SVG 20010904//EN"
 "http://www.w3.org/TR/2001/REC-SVG-20010904/DTD/svg10.dtd">
<svg version="1.0" xmlns="http://www.w3.org/2000/svg"
 width="300.000000pt" height="695.000000pt" viewBox="0 0 300.000000 695.000000"
 preserveAspectRatio="xMidYMid meet">
<metadata>
Created by potrace 1.10, written by Peter Selinger 2001-2011
</metadata>
<g transform="translate(0.000000,695.000000) scale(0.050000,-0.050000)"
fill="#000000" stroke="none">
<path d="M1639 13851 c-550 -115 -1145 -605 -1232 -1016 -8 -35 -25 -55 -48
-55 -125 0 -143 -286 -81 -1270 12 -187 26 -412 32 -500 6 -88 24 -376 40
-640 16 -264 34 -547 40 -630 6 -82 24 -379 40 -660 17 -280 35 -582 40 -670
54 -888 71 -1163 80 -1300 5 -88 19 -322 30 -520 12 -198 25 -423 30 -500 6
-77 19 -302 30 -500 11 -198 24 -414 29 -480 6 -66 15 -232 21 -370 6 -137 15
-286 20 -330 5 -44 19 -269 30 -500 12 -231 25 -465 29 -520 5 -55 18 -338 30
-630 12 -291 31 -620 42 -730 21 -219 50 -643 70 -1026 23 -434 -64 -394 929
-424 435 -12 858 -25 940 -29 1003 -37 2680 -35 2747 4 59 35 74 38 93 15 13
-16 61 -34 107 -40 194 -30 253 64 212 338 -13 92 -20 237 -14 324 7 95 1 210
-15 288 -14 72 -32 247 -40 390 -7 143 -22 296 -33 340 -10 44 -24 188 -30
320 -5 133 -28 316 -50 410 -25 103 -47 300 -58 500 -23 423 -48 542 -120 581
-53 28 -133 -15 -157 -84 -15 -42 -32 -56 -66 -54 -25 2 -74 -3 -108 -11 -54
-12 -82 -1 -199 79 -75 52 -161 102 -192 113 -32 11 -57 28 -57 37 0 17 -128
173 -238 289 -32 33 -87 125 -123 205 -62 140 -356 465 -418 465 -62 0 -85
146 -50 314 43 207 29 280 -73 398 -54 62 -76 104 -68 129 28 89 -227 409
-430 539 -120 77 -125 93 -129 373 -2 135 -12 234 -26 251 -74 89 -64 306 22
509 74 175 83 262 37 346 -30 55 -33 80 -17 124 17 43 14 71 -13 127 -19 39
-34 93 -34 119 0 27 -41 109 -92 183 -51 74 -115 194 -142 266 -58 156 -208
319 -351 382 -63 28 -95 55 -103 90 -7 27 -39 80 -72 117 -33 38 -60 85 -60
106 0 20 -19 64 -41 97 -23 33 -71 124 -108 201 -49 107 -94 166 -179 240
-257 222 -307 380 -190 602 43 81 71 176 92 307 16 105 34 218 39 252 11 66
-82 190 -268 357 -144 129 -51 396 177 505 101 48 371 384 391 488 7 31 28 73
48 95 21 22 56 96 80 165 23 69 67 162 99 207 31 44 68 116 83 159 31 88 160
212 297 283 50 26 111 65 138 85 l47 38 -149 93 c-382 238 -909 334 -1337 244z
m867 -179 c150 -50 354 -143 354 -161 0 -5 -40 -33 -90 -62 -108 -63 -241
-209 -259 -284 -7 -30 -45 -103 -83 -161 -38 -58 -75 -132 -81 -165 -17 -82
-29 -85 -158 -48 -147 43 -155 27 -41 -76 l94 -85 -33 -80 c-58 -139 -269
-407 -340 -430 -129 -43 -329 -331 -329 -474 0 -118 19 -149 204 -335 124
-125 156 -168 146 -200 -7 -23 -25 -117 -39 -211 -17 -104 -50 -213 -84 -279
-132 -253 -59 -507 209 -737 59 -50 120 -117 136 -148 l29 -56 -80 0 c-45 0
-81 -7 -80 -15 2 -28 163 -145 199 -145 49 0 88 -54 92 -127 2 -35 10 -80 19
-101 11 -26 9 -34 -6 -25 -12 8 -72 8 -134 1 l-111 -14 0 -130 0 -131 60 57
60 57 0 -48 c1 -45 8 -42 91 46 110 114 150 56 78 -113 -14 -35 -9 -37 60 -26
64 10 77 6 85 -27 16 -61 166 -57 166 4 0 38 10 32 77 -40 42 -46 85 -83 95
-83 10 0 34 -53 54 -117 20 -64 81 -183 135 -265 55 -81 99 -169 99 -194 0
-25 14 -74 32 -107 22 -44 25 -68 10 -83 -35 -35 -26 -111 21 -174 48 -64 54
-29 -72 -376 -55 -150 -48 -404 12 -478 11 -13 22 -130 25 -260 6 -286 26
-334 188 -443 124 -85 335 -299 351 -358 5 -19 15 -67 21 -105 7 -41 47 -113
94 -170 67 -81 79 -109 70 -159 -55 -307 -56 -323 -34 -403 12 -47 50 -108 87
-142 320 -294 351 -329 416 -472 43 -96 114 -197 210 -305 80 -88 148 -183
152 -210 6 -38 22 -51 77 -60 39 -6 131 -54 206 -105 147 -101 144 -100 324
-104 66 -2 140 -10 165 -19 37 -13 45 -9 45 25 0 45 40 84 41 40 4 -244 26
-587 40 -662 27 -135 27 -135 -51 -103 -62 26 -70 26 -70 -1 0 -40 -96 -40
-141 1 -28 25 -51 28 -112 12 -42 -10 -102 -25 -132 -31 -72 -17 -72 -71 2
-156 69 -80 99 -196 50 -196 -18 0 -107 50 -198 110 -202 134 -195 134 -149
-1 31 -89 34 -120 15 -161 -28 -63 -6 -80 125 -98 133 -18 148 -32 135 -128
-12 -90 -8 -94 65 -52 70 40 80 37 80 -20 0 -59 -101 -71 -169 -19 -58 44 -71
36 -71 -43 0 -67 -4 -72 -50 -63 -44 8 -50 2 -50 -48 0 -32 -11 -57 -25 -58
-14 0 -79 -4 -145 -8 -321 -20 -521 -14 -597 19 -95 40 -103 33 -73 -64 46
-141 187 -236 279 -186 36 19 243 29 346 17 39 -4 46 -28 14 -48 -34 -21 -56
-97 -36 -122 12 -15 12 -75 1 -155 -20 -154 -17 -161 53 -117 101 62 143 111
143 167 0 70 109 188 190 206 35 7 85 43 116 83 86 108 154 97 154 -23 0 -84
4 -92 41 -82 37 10 40 4 28 -49 -11 -51 -7 -59 24 -54 20 3 80 -24 133 -60
l96 -66 -4 138 c-5 172 4 189 82 162 55 -19 60 -28 60 -116 0 -53 10 -144 22
-203 13 -60 21 -203 19 -320 -2 -116 7 -272 20 -346 26 -148 27 -141 -35 -161
-36 -11 -68 10 -170 108 -154 149 -163 149 -152 6 l8 -115 -901 4 c-1003 5
-3405 58 -3463 76 -14 4 -27 122 -36 323 -8 174 -18 358 -23 407 -19 206 -68
927 -78 1150 -36 774 -56 1145 -91 1690 -10 160 -24 403 -31 540 -7 138 -15
291 -19 340 -8 107 -23 346 -50 820 -12 193 -25 404 -30 470 -5 66 -18 300
-30 520 -11 220 -24 459 -30 530 -5 72 -15 207 -21 300 -5 94 -18 296 -28 450
l-19 280 83 85 83 85 -92 0 -91 0 0 95 c0 102 -60 1154 -75 1307 -5 51 -23
334 -40 630 -17 296 -36 583 -41 638 -5 55 -15 353 -22 662 l-13 562 63 -9
c60 -9 63 -6 63 58 0 80 87 271 199 436 338 498 1179 758 1787 553z m2991
-10873 c67 -41 68 -43 54 -145 -34 -261 -32 -255 -72 -234 -20 11 -59 20 -88
20 -55 0 -77 88 -26 105 17 6 8 34 -30 91 -114 173 -16 271 162 163z m93 -705
c20 -77 19 -94 -3 -94 -15 0 -45 -18 -67 -40 -50 -50 -100 -52 -100 -2 0 84
-145 125 -266 75 -73 -30 -74 -30 -74 14 0 52 173 101 344 97 74 -1 96 5 96
29 0 64 47 11 70 -79z m-530 -92 c0 -36 -72 -101 -125 -113 -43 -10 -55 -6
-55 19 0 18 13 32 30 32 16 0 41 18 55 40 24 40 95 56 95 22z"/>
</g>
</svg>
