<?xml version="1.0" standalone="no"?>
<!DOCTYPE svg PUBLIC "-//W3C//DTD SVG 20010904//EN"
 "http://www.w3.org/TR/2001/REC-SVG-20010904/DTD/svg10.dtd">
<svg version="1.0" xmlns="http://www.w3.org/2000/svg"
 width="300.000000pt" height="347.000000pt" viewBox="0 0 300.000000 347.000000"
 preserveAspectRatio="xMidYMid meet">
<metadata>
Created by potrace 1.10, written by Peter Selinger 2001-2011
</metadata>
<g transform="translate(0.000000,347.000000) scale(0.100000,-0.100000)"
fill="#000000" stroke="none">
<path d="M10 3418 c0 -24 7 -86 14 -138 27 -178 116 -784 162 -1095 25 -170
48 -314 52 -319 3 -6 7 -17 8 -26 5 -41 56 -178 79 -211 27 -39 34 -82 20
-136 -6 -29 -4 -34 19 -44 35 -16 32 -28 -18 -69 -42 -34 -43 -37 -44 -94 -1
-44 -8 -70 -28 -104 -24 -41 -26 -51 -20 -114 4 -44 15 -84 28 -108 21 -36 22
-42 10 -109 -7 -39 -12 -85 -12 -101 0 -16 -5 -32 -10 -35 -17 -11 -4 -89 23
-136 14 -24 28 -60 32 -79 4 -19 16 -52 26 -72 11 -21 19 -48 19 -61 0 -38 19
-81 41 -96 26 -15 46 -17 309 -31 113 -6 234 -13 270 -15 36 -3 94 -7 130 -10
36 -2 103 -7 150 -10 47 -3 186 -12 310 -20 284 -18 503 -30 513 -27 4 1 7 -7
7 -17 0 -11 5 -23 10 -26 6 -3 10 -23 10 -44 0 -47 13 -59 65 -61 73 -3 70 -7
83 84 10 69 10 89 -2 117 -18 43 -10 96 15 104 10 4 19 11 19 16 0 14 17 11
61 -10 22 -11 64 -25 94 -31 29 -6 61 -20 70 -30 21 -23 37 -26 29 -6 -7 17
33 28 58 15 16 -9 18 -5 18 31 0 22 7 57 15 77 9 22 15 67 15 120 0 71 3 89
21 111 11 15 25 27 31 27 5 0 18 22 28 48 15 39 16 48 4 43 -25 -10 -16 34 22
101 20 36 33 67 30 70 -3 3 1 15 9 27 8 11 15 39 15 62 0 34 6 49 31 74 21 20
29 37 26 50 -4 14 0 20 12 20 18 0 51 29 51 44 0 5 11 17 25 28 18 14 25 29
25 54 0 20 -4 33 -9 29 -6 -3 -32 8 -60 25 -27 17 -56 30 -63 29 -27 -3 -34 2
-36 27 -1 15 -7 33 -13 40 -7 9 -7 19 0 32 14 27 7 76 -12 80 -9 2 -18 18 -22
35 -14 70 -33 95 -103 129 -26 12 -41 26 -38 34 7 19 -14 147 -28 164 -20 25
-36 69 -36 99 0 23 -7 32 -35 45 -19 9 -35 21 -35 25 0 5 -20 16 -44 25 -36
14 -47 24 -56 52 -6 19 -18 34 -25 34 -16 0 -29 35 -20 50 3 5 -2 10 -12 10
-29 0 -50 32 -46 68 4 28 -3 39 -53 87 -31 30 -66 55 -78 57 -14 2 -31 22 -51
60 -36 66 -68 104 -110 125 -51 27 -105 76 -125 114 -10 19 -35 55 -54 78 -20
24 -36 51 -36 61 0 29 -11 50 -23 43 -5 -3 -7 -1 -4 5 6 8 -52 139 -71 162 -2
3 -23 5 -46 5 -34 0 -50 7 -79 32 -20 18 -37 37 -37 42 0 5 -10 13 -22 16 -13
4 -40 18 -60 32 -34 23 -36 27 -25 51 6 15 17 32 25 39 8 7 20 22 26 34 6 12
26 30 45 40 19 10 36 26 37 36 1 10 5 26 9 35 7 17 -37 18 -774 18 l-781 0 0
-42z m1360 13 c85 3 157 4 160 2 6 -5 -52 -52 -66 -53 -6 0 -17 -11 -24 -25
-7 -14 -20 -25 -27 -25 -8 0 -11 -5 -8 -10 4 -6 -1 -24 -9 -42 -9 -17 -16 -37
-16 -44 0 -14 81 -84 97 -84 6 0 33 -22 60 -50 46 -46 54 -50 96 -50 43 0 47
-2 53 -27 4 -16 19 -48 34 -73 16 -25 33 -64 39 -87 7 -23 16 -45 21 -48 13
-8 67 -90 74 -112 7 -20 76 -82 116 -103 44 -22 90 -73 115 -128 19 -42 32
-56 62 -68 42 -18 127 -100 113 -109 -5 -3 -7 -18 -6 -33 2 -15 4 -33 5 -40 0
-8 7 -12 13 -10 15 5 52 -38 43 -51 -3 -5 8 -18 25 -27 16 -10 30 -23 30 -29
0 -16 38 -49 80 -70 91 -46 92 -46 86 -69 -3 -12 1 -32 9 -43 8 -11 11 -23 8
-27 -3 -3 4 -15 16 -25 17 -15 22 -31 23 -71 1 -28 5 -53 10 -56 5 -3 4 -12
-2 -19 -13 -16 33 -75 59 -75 25 0 68 -49 79 -92 6 -21 19 -49 31 -64 17 -21
18 -29 9 -50 -9 -19 -9 -30 0 -45 10 -15 10 -19 0 -19 -9 0 -9 -3 0 -12 7 -7
12 -20 12 -30 0 -20 29 -38 60 -38 23 0 77 -25 98 -46 18 -18 5 -39 -14 -23
-10 8 -18 8 -27 1 -10 -9 -19 -7 -36 4 -31 22 -39 9 -13 -19 12 -13 22 -28 22
-35 0 -6 7 -9 17 -5 11 4 14 3 9 -5 -8 -14 -48 -16 -61 -3 -6 5 -21 12 -33 16
-21 6 -23 4 -18 -13 6 -17 -1 -21 -66 -35 l-73 -15 77 -1 c106 -1 133 -15 91
-47 -15 -11 -20 -10 -35 9 l-18 22 0 -23 c0 -19 -4 -22 -20 -17 -16 5 -20 2
-20 -14 0 -12 4 -21 9 -21 12 0 20 -49 9 -56 -5 -3 -6 -14 -3 -25 4 -11 2 -19
-5 -19 -6 0 -31 -12 -56 -26 -36 -21 -42 -29 -34 -43 6 -12 5 -22 -3 -30 -9
-10 -9 -11 3 -7 10 4 20 -6 31 -29 l16 -35 -33 0 c-18 0 -35 -4 -39 -9 -3 -5
-30 -13 -60 -16 -78 -10 -68 -21 15 -17 123 7 146 -11 92 -73 -24 -27 -30 -30
-39 -17 -12 19 -45 9 -37 -12 4 -12 -2 -13 -35 -9 -23 3 -41 3 -41 0 0 -3 22
-18 50 -34 53 -30 69 -51 48 -65 -10 -6 -10 -8 0 -8 17 0 15 -17 -2 -23 -11
-4 -14 2 -11 28 2 27 -1 34 -18 39 -26 6 -35 0 -19 -16 6 -6 8 -24 5 -39 -4
-24 -2 -29 13 -29 16 0 17 -2 4 -10 -12 -7 -12 -12 -3 -21 9 -9 16 -9 29 2 16
12 17 12 12 -2 -4 -10 -12 -35 -19 -58 -7 -23 -18 -41 -26 -41 -7 0 -13 -7
-13 -16 0 -12 -6 -15 -23 -10 -12 3 -47 10 -77 17 -30 6 -59 15 -64 20 -6 5
-18 9 -28 9 -10 0 -21 7 -25 15 -6 18 -61 14 -73 -5 -4 -7 -16 -9 -28 -6 -16
5 -20 2 -21 -16 0 -13 -3 -39 -7 -59 -3 -22 0 -49 9 -70 11 -27 12 -49 4 -107
l-10 -73 -36 3 c-35 3 -36 5 -44 53 -4 28 -8 62 -8 76 0 23 -4 26 -42 27 -59
2 -388 21 -472 27 -161 12 -1159 75 -1183 75 -7 0 -12 6 -12 14 0 8 -5 16 -11
18 -5 2 -13 24 -16 48 -3 25 -13 55 -21 68 -8 12 -19 44 -23 69 -5 26 -20 63
-32 83 -24 36 -41 103 -29 115 10 9 34 163 33 204 -1 19 -11 51 -22 70 -31 53
-32 155 -2 197 16 22 24 50 27 95 4 58 7 65 32 79 35 19 54 36 54 49 0 5 8 14
17 20 20 11 21 10 -30 40 -30 19 -35 26 -26 37 18 21 3 102 -27 147 -14 21
-27 46 -29 55 -2 10 -11 42 -20 72 -10 30 -17 67 -17 83 -1 15 -6 27 -12 27
-13 0 -14 6 -81 470 -53 367 -86 594 -120 810 -13 85 -26 182 -30 215 l-6 60
588 -5 c323 -3 658 -2 743 1z m1560 -2225 c0 -3 -4 -8 -10 -11 -5 -3 -10 -1
-10 4 0 6 5 11 10 11 6 0 10 -2 10 -4z m-85 -66 c3 -5 1 -10 -4 -10 -6 0 -11
5 -11 10 0 6 2 10 4 10 3 0 8 -4 11 -10z m-50 -100 c3 -5 -1 -10 -10 -10 -9 0
-13 5 -10 10 3 6 8 10 10 10 2 0 7 -4 10 -10z m-5 -66 c0 -28 -15 -25 -23 6
-3 13 0 20 9 20 8 0 14 -10 14 -26z m-10 -53 c0 -6 -4 -13 -10 -16 -5 -3 -10
1 -10 9 0 9 5 16 10 16 6 0 10 -4 10 -9z m-32 -58 c-8 -10 -18 -26 -22 -37 -5
-15 -9 -16 -21 -6 -19 15 -19 30 -2 30 8 0 22 9 32 20 22 24 34 17 13 -7z
m-58 7 c-20 -13 -33 -13 -25 0 3 6 14 10 23 10 15 0 15 -2 2 -10z m-57 -290
c-3 -11 -9 -17 -14 -14 -14 8 -10 34 5 34 9 0 12 -7 9 -20z"/>
</g>
</svg>
