<?xml version="1.0" standalone="no"?>
<!DOCTYPE svg PUBLIC "-//W3C//DTD SVG 20010904//EN"
 "http://www.w3.org/TR/2001/REC-SVG-20010904/DTD/svg10.dtd">
<svg version="1.0" xmlns="http://www.w3.org/2000/svg"
 width="300.000000pt" height="176.000000pt" viewBox="0 0 300.000000 176.000000"
 preserveAspectRatio="xMidYMid meet">
<metadata>
Created by potrace 1.10, written by Peter Selinger 2001-2011
</metadata>
<g transform="translate(0.000000,176.000000) scale(0.100000,-0.100000)"
fill="#000000" stroke="none">
<path d="M354 1751 c-24 -4 -101 -66 -115 -92 -13 -25 -3 -56 21 -64 10 -3 34
-16 52 -29 46 -31 109 -39 140 -18 34 24 47 44 48 73 0 14 5 40 11 58 17 48
-6 68 -81 73 -32 1 -66 1 -76 -1z m125 -35 c8 -10 8 -21 1 -40 -5 -15 -10 -37
-10 -49 0 -11 -9 -31 -21 -43 -17 -18 -28 -21 -58 -17 -20 3 -43 12 -52 19 -8
8 -30 19 -47 25 -18 6 -32 17 -32 24 0 7 21 32 48 54 43 37 52 41 103 41 36 0
61 -5 68 -14z"/>
<path d="M48 1574 c-29 -27 -38 -43 -38 -69 0 -35 20 -59 29 -34 2 8 19 28 38
45 24 22 33 39 33 62 0 42 -16 41 -62 -4z m36 -16 c-7 -18 -54 -51 -54 -39 0
5 12 19 28 30 32 24 33 24 26 9z"/>
<path d="M1159 1460 c-27 -31 -43 -40 -67 -40 -18 0 -32 -3 -32 -7 1 -11 31
-65 65 -117 l30 -46 63 6 c43 4 67 2 77 -6 17 -14 72 -7 99 13 17 13 17 15 -8
42 -14 15 -26 34 -26 40 0 7 -7 15 -15 19 -9 3 -15 -1 -15 -11 0 -13 -3 -13
-15 -3 -8 7 -15 22 -15 34 0 11 -14 42 -30 69 -38 60 -62 61 -111 7z m89 -30
c12 -21 22 -46 22 -55 0 -19 58 -77 70 -70 4 3 13 -2 20 -10 10 -12 7 -15 -13
-20 -14 -4 -35 -1 -48 5 -14 8 -41 10 -73 6 l-51 -5 -38 52 -39 52 31 12 c16
7 40 26 52 43 13 16 28 30 33 30 6 0 21 -18 34 -40z"/>
<path d="M1614 1232 c-8 -7 -14 -25 -14 -40 l0 -27 135 0 c124 0 136 2 156 22
28 27 19 53 -18 53 -40 0 -74 -11 -67 -21 8 -13 -10 -11 -23 2 -19 19 -153 28
-169 11z m153 -31 c7 -4 -23 -6 -66 -6 -57 0 -77 3 -74 12 5 12 115 8 140 -6z
m113 11 c0 -8 -43 -32 -56 -32 -16 0 6 25 27 31 13 4 25 7 27 8 1 1 2 -3 2 -7z"/>
<path d="M1940 1141 c-12 -23 -13 -61 -2 -76 21 -31 67 -55 92 -50 26 6 27 4
36 -47 l9 -53 44 -3 c49 -4 142 28 179 61 37 34 29 65 -24 87 -26 11 -59 30
-75 41 -36 25 -75 27 -118 5 -18 -10 -34 -16 -35 -14 -1 2 -13 18 -25 36 -26
37 -64 43 -81 13z m70 -46 c25 -40 36 -42 89 -16 35 18 40 19 67 4 79 -43 99
-53 112 -53 7 0 12 -8 10 -17 -4 -23 -90 -64 -145 -71 -42 -4 -42 -4 -49 34
-11 63 -21 75 -59 72 -41 -2 -75 24 -75 59 0 34 25 28 50 -12z"/>
<path d="M1741 1080 l-24 -5 26 -31 c14 -17 29 -42 32 -57 8 -32 5 -31 54 -11
47 18 57 38 36 70 -27 41 -59 50 -124 34z m95 -41 c16 -17 16 -22 4 -29 -24
-15 -34 -12 -52 20 -17 30 -17 30 6 30 13 0 31 -9 42 -21z"/>
<path d="M1974 901 c-59 -36 -52 -57 16 -46 36 6 40 10 40 36 0 34 -13 36 -56
10z"/>
<path d="M2392 748 c-18 -18 -15 -59 8 -93 30 -46 25 -67 -35 -140 -30 -37
-55 -71 -55 -76 0 -5 14 -24 30 -43 51 -57 80 -143 80 -234 0 -47 5 -85 13
-95 6 -9 39 -28 72 -41 69 -28 75 -26 111 46 13 26 34 53 46 59 13 7 39 24 58
40 20 15 54 30 75 34 22 4 61 21 87 37 48 30 118 100 118 118 0 5 -18 21 -40
35 -23 14 -43 34 -46 43 -11 34 -22 47 -42 46 -15 0 -21 8 -26 36 -3 21 -17
47 -33 62 -31 29 -171 98 -200 98 -34 0 -91 20 -127 45 -46 31 -78 39 -94 23z
m76 -47 c24 -17 74 -37 115 -46 90 -20 189 -67 216 -102 12 -14 21 -41 21 -59
0 -31 3 -34 29 -34 23 0 30 -5 33 -22 2 -12 22 -37 45 -54 l43 -33 -46 -40
c-51 -45 -119 -81 -152 -81 -12 0 -53 -23 -91 -50 -60 -44 -95 -89 -117 -148
-1 -1 -26 9 -57 24 l-57 25 0 83 c0 96 -32 190 -82 243 l-30 31 56 66 c63 74
69 104 36 158 -20 33 -27 68 -12 68 4 0 26 -13 50 -29z"/>
<path d="M150 186 c0 -2 8 -10 18 -17 15 -13 16 -12 3 4 -13 16 -21 21 -21 13z"/>
</g>
</svg>
