<?xml version="1.0" standalone="no"?>
<!DOCTYPE svg PUBLIC "-//W3C//DTD SVG 20010904//EN"
 "http://www.w3.org/TR/2001/REC-SVG-20010904/DTD/svg10.dtd">
<svg version="1.0" xmlns="http://www.w3.org/2000/svg"
 width="300.000000pt" height="519.000000pt" viewBox="0 0 300.000000 519.000000"
 preserveAspectRatio="xMidYMid meet">
<metadata>
Created by potrace 1.10, written by Peter Selinger 2001-2011
</metadata>
<g transform="translate(0.000000,519.000000) scale(0.100000,-0.100000)"
fill="#000000" stroke="none">
<path d="M2449 5186 c-2 -2 -51 -6 -109 -10 -58 -3 -118 -8 -135 -10 -41 -6
-88 -11 -500 -51 -198 -20 -378 -38 -400 -40 -22 -2 -69 -7 -105 -10 -170 -13
-207 -16 -230 -20 -14 -2 -81 -7 -150 -11 -118 -6 -129 -8 -187 -40 -33 -19
-87 -54 -120 -79 -32 -25 -75 -57 -96 -72 l-37 -26 -79 37 c-67 31 -209 72
-219 62 -2 -3 6 -117 33 -436 2 -30 7 -86 10 -125 3 -38 7 -95 10 -125 3 -30
7 -82 10 -115 3 -33 21 -258 40 -500 19 -242 37 -462 39 -490 3 -27 8 -84 11
-125 3 -41 8 -99 10 -127 3 -29 7 -77 10 -105 2 -29 7 -87 10 -128 3 -41 12
-163 20 -270 19 -246 19 -300 -1 -481 -13 -116 -15 -169 -7 -247 9 -93 12
-102 57 -171 46 -71 47 -75 56 -184 6 -62 12 -131 15 -153 4 -36 -2 -53 -49
-131 -29 -49 -83 -147 -120 -218 -38 -72 -97 -171 -132 -222 -63 -92 -70 -107
-79 -173 -11 -79 -18 -380 -9 -380 5 0 57 20 114 44 91 38 147 53 295 81 17 3
95 14 175 24 l145 18 55 -50 c69 -62 115 -85 138 -71 9 6 35 44 57 85 l40 74
79 32 c94 37 103 35 185 -47 52 -52 68 -58 104 -39 33 18 37 28 37 106 0 84
-6 77 153 163 l99 52 39 -38 40 -39 104 -3 c93 -3 105 -2 123 16 30 30 43 88
36 160 -7 62 -6 63 40 133 69 103 117 152 243 245 61 46 114 91 117 101 3 10
12 67 21 128 8 60 21 115 28 122 7 8 41 18 76 24 105 17 291 97 391 170 36 27
40 33 40 74 0 30 -9 64 -27 98 -25 48 -27 62 -29 182 -1 72 -11 213 -23 315
-12 102 -23 205 -26 230 -3 25 -7 63 -10 85 -3 22 -7 63 -10 90 -3 28 -8 64
-10 80 -2 17 -22 199 -45 405 -22 206 -43 386 -45 400 -2 14 -7 57 -10 95 -4
39 -8 81 -10 95 -2 14 -23 194 -45 400 -23 206 -43 386 -45 400 -2 14 -7 61
-11 105 -3 44 -8 87 -9 96 -2 8 -13 121 -25 250 -11 129 -25 244 -30 255 -4
12 -18 24 -29 27 -24 6 -29 -8 -6 -17 8 -3 15 -11 14 -18 0 -10 -2 -10 -6 0
-3 7 -24 12 -55 12 -40 0 -49 3 -44 15 5 15 4 19 -5 11z m88 -58 c0 -21 13
-179 18 -223 2 -22 11 -110 20 -195 21 -211 85 -799 90 -830 2 -14 7 -56 10
-95 4 -38 8 -81 10 -95 2 -14 23 -194 45 -400 22 -206 43 -386 45 -400 2 -14
7 -56 10 -95 4 -38 8 -81 10 -95 13 -80 77 -680 83 -774 4 -63 4 -129 -1 -148
-7 -29 -2 -47 32 -118 l41 -84 -20 -21 c-47 -50 -284 -157 -377 -171 -65 -9
-103 -25 -119 -50 -9 -13 -23 -76 -33 -141 l-16 -118 -120 -91 c-120 -93 -167
-143 -250 -266 -35 -52 -44 -73 -40 -95 9 -49 8 -130 -2 -148 -8 -14 -24 -17
-97 -17 l-87 0 -45 42 c-30 27 -51 40 -62 35 -53 -20 -274 -149 -282 -165 -5
-10 -10 -50 -10 -89 0 -38 -4 -73 -10 -76 -5 -3 -24 11 -42 31 -40 46 -114 94
-144 94 -36 0 -183 -66 -203 -92 -11 -13 -32 -49 -47 -80 l-27 -57 -36 29
c-20 15 -54 45 -76 65 -43 38 -49 39 -190 20 -314 -43 -388 -59 -489 -105 -37
-17 -69 -30 -71 -28 -4 4 22 302 30 341 2 16 29 61 57 101 29 39 86 135 127
211 41 77 99 181 130 230 63 101 64 112 47 319 -9 116 -14 130 -67 212 -35 55
-41 72 -49 150 -6 49 -8 107 -5 129 2 22 7 64 10 93 3 28 8 76 12 105 13 85 9
211 -12 447 -2 25 -7 79 -10 120 -3 41 -21 269 -40 505 -19 237 -37 459 -40
495 -16 206 -26 322 -40 485 -11 131 -65 811 -65 821 0 8 30 0 78 -18 42 -17
95 -37 117 -46 55 -21 79 -13 166 56 126 99 189 133 255 138 297 21 546 44
999 90 94 9 130 13 195 19 99 9 140 13 202 20 338 38 385 41 385 23z m-2407
-257 c0 -6 -4 -13 -10 -16 -5 -3 -10 1 -10 9 0 9 5 16 10 16 6 0 10 -4 10 -9z
m-81 -4825 c-14 -16 -29 5 -29 42 l0 37 18 -35 c10 -19 15 -39 11 -44z"/>
<path d="M2614 636 c1 -8 5 -18 8 -22 4 -3 5 1 4 10 -1 8 -5 18 -8 22 -4 3 -5
-1 -4 -10z"/>
</g>
</svg>
