<?xml version="1.0" standalone="no"?>
<!DOCTYPE svg PUBLIC "-//W3C//DTD SVG 20010904//EN"
 "http://www.w3.org/TR/2001/REC-SVG-20010904/DTD/svg10.dtd">
<svg version="1.0" xmlns="http://www.w3.org/2000/svg"
 width="300.000000pt" height="160.000000pt" viewBox="0 0 300.000000 160.000000"
 preserveAspectRatio="xMidYMid meet">
<metadata>
Created by potrace 1.10, written by Peter Selinger 2001-2011
</metadata>
<g transform="translate(0.000000,160.000000) scale(0.100000,-0.100000)"
fill="#000000" stroke="none">
<path d="M176 1499 c-3 -30 -15 -207 -26 -394 -18 -311 -33 -535 -45 -705 -2
-36 -7 -113 -11 -172 l-7 -108 59 -2 c33 0 71 -2 86 -3 75 -5 325 -17 818 -39
805 -36 1777 -43 1807 -13 12 13 15 777 4 892 l-12 120 -49 50 c-57 59 -100
121 -100 145 0 9 9 25 20 35 29 26 28 98 -2 119 -12 9 -30 16 -39 16 -9 0 -33
13 -52 29 l-37 29 -547 6 c-302 4 -741 14 -978 21 -236 8 -532 18 -657 21
l-226 7 -6 -54z m419 11 c121 -5 312 -12 425 -15 113 -3 239 -8 280 -11 41 -2
347 -7 679 -11 l603 -6 29 -24 c16 -14 45 -29 64 -34 30 -9 35 -14 35 -40 0
-17 -9 -42 -20 -56 -11 -14 -20 -36 -20 -48 0 -29 39 -87 100 -150 l49 -50 12
-115 c12 -117 8 -845 -5 -858 -23 -22 -942 -23 -1436 -1 -655 29 -1262 59
-1267 63 -1 1 4 98 12 216 7 118 26 415 40 660 15 245 28 455 31 468 4 21 9
22 87 22 45 0 181 -4 302 -10z"/>
</g>
</svg>
