<?xml version="1.0" standalone="no"?>
<!DOCTYPE svg PUBLIC "-//W3C//DTD SVG 20010904//EN"
 "http://www.w3.org/TR/2001/REC-SVG-20010904/DTD/svg10.dtd">
<svg version="1.0" xmlns="http://www.w3.org/2000/svg"
 width="300.000000pt" height="134.000000pt" viewBox="0 0 300.000000 134.000000"
 preserveAspectRatio="xMidYMid meet">
<metadata>
Created by potrace 1.10, written by Peter Selinger 2001-2011
</metadata>
<g transform="translate(0.000000,134.000000) scale(0.100000,-0.100000)"
fill="#000000" stroke="none">
<path d="M1855 1316 c-26 -21 -28 -26 -18 -49 9 -18 9 -27 0 -36 -9 -10 -8
-15 6 -25 24 -18 11 -46 -22 -46 -14 0 -39 -11 -56 -24 -26 -21 -32 -22 -50
-10 -24 16 -85 11 -96 -8 -4 -6 -5 -26 -2 -43 3 -16 6 -34 7 -39 0 -5 -15 -20
-34 -33 -19 -13 -40 -39 -46 -56 -8 -23 -18 -33 -38 -37 -33 -6 -66 -58 -66
-104 0 -41 -24 -51 -79 -33 -27 9 -37 18 -39 37 -5 33 -20 50 -44 50 -15 0
-18 -5 -13 -19 5 -16 2 -18 -16 -14 -19 5 -21 3 -17 -15 4 -15 2 -22 -7 -22
-14 0 -31 -37 -21 -47 3 -3 -2 -11 -11 -18 -19 -14 -63 -8 -63 10 0 7 -7 18
-15 25 -11 9 -20 8 -42 -7 -16 -10 -37 -23 -48 -29 -11 -6 -21 -21 -23 -33 -2
-11 -6 -21 -9 -21 -2 0 -29 16 -59 36 -42 28 -61 35 -83 31 -20 -4 -31 -2 -35
8 -8 21 -24 19 -31 -4 -7 -24 -64 -34 -86 -15 -14 12 -18 11 -34 -6 -14 -16
-15 -22 -5 -35 10 -13 9 -15 -9 -15 -26 0 -80 -57 -81 -86 0 -11 7 -29 15 -40
21 -28 19 -31 -30 -38 -24 -4 -47 -11 -50 -16 -3 -4 -13 -6 -23 -3 -21 5 -35
-9 -50 -53 -8 -25 -6 -36 9 -61 18 -28 17 -68 -1 -61 -4 2 -45 23 -93 48 -78
40 -88 43 -110 31 -25 -13 -77 -83 -77 -104 0 -6 7 -18 15 -27 13 -14 12 -19
-1 -45 -8 -16 -13 -34 -10 -42 3 -7 0 -15 -5 -19 -6 -3 -8 -15 -5 -27 3 -11 0
-29 -5 -39 -10 -18 -11 -18 -28 3 -16 20 -18 20 -34 4 -9 -9 -17 -26 -18 -38
l0 -22 -9 23 c-10 23 -44 30 -55 12 -3 -6 -3 -20 0 -31 5 -16 13 -20 31 -16
13 2 24 1 24 -2 0 -4 111 -8 248 -10 136 -2 263 -4 282 -5 35 -1 35 -1 34 41
-1 35 3 43 17 43 10 0 24 -6 31 -12 10 -10 92 -13 338 -13 179 -1 549 -4 823
-9 452 -7 500 -6 516 8 10 9 40 23 67 30 111 32 142 47 148 72 4 13 13 24 22
24 31 0 74 30 74 53 0 14 11 28 30 39 17 9 30 25 30 36 0 21 34 49 100 82 49
24 180 146 180 167 0 8 -12 13 -30 13 -20 0 -35 8 -46 25 -9 14 -25 25 -35 25
-18 0 -21 4 -23 32 -1 6 -12 24 -26 39 -40 43 -47 54 -42 67 2 7 -2 19 -10 25
-47 41 -59 64 -48 92 26 68 -21 185 -75 185 -20 0 -25 7 -31 38 -10 55 -19 62
-57 49 -18 -7 -43 -23 -56 -36 -27 -29 -51 -30 -103 -7 -47 20 -82 21 -98 1
-18 -21 -27 -19 -59 17 -23 25 -37 32 -74 34 -71 4 -81 10 -97 61 -11 34 -24
52 -43 61 -15 7 -27 20 -27 28 0 17 -7 17 -49 3 -26 -9 -35 -8 -50 5 -23 21
-31 20 -66 -8z m91 -26 c10 0 26 4 34 9 10 7 18 4 28 -10 7 -10 19 -19 26 -19
13 0 46 -60 46 -84 0 -25 31 -40 86 -42 45 -2 58 -7 81 -32 39 -41 62 -47 85
-22 20 22 43 26 53 10 3 -5 14 -10 24 -10 10 0 24 -7 31 -15 9 -10 17 -12 23
-6 5 5 16 7 24 4 8 -3 28 8 46 24 51 48 63 48 79 0 10 -33 18 -43 38 -45 15
-2 34 -16 46 -35 25 -36 41 -107 25 -107 -6 0 -8 -7 -5 -15 4 -8 1 -15 -5 -15
-18 0 -13 -15 25 -63 20 -25 33 -50 30 -55 -3 -5 6 -22 19 -38 41 -47 44 -51
51 -78 3 -14 15 -28 25 -31 10 -4 19 -11 19 -16 0 -5 3 -8 8 -6 4 1 7 -2 7 -6
0 -14 54 -39 68 -32 26 14 -120 -116 -148 -131 -82 -44 -116 -70 -121 -94 -3
-15 -17 -31 -33 -38 -22 -10 -27 -18 -24 -35 3 -17 -2 -26 -21 -35 -14 -6 -32
-9 -39 -6 -9 3 -19 -6 -26 -24 -10 -23 -25 -35 -70 -51 -32 -12 -65 -21 -73
-21 -8 0 -32 -11 -53 -25 l-37 -26 -256 5 c-142 3 -506 8 -809 12 -304 4 -553
11 -553 15 0 4 -25 9 -55 11 -62 3 -58 11 -39 -68 7 -26 7 -26 -42 -20 -27 3
-146 7 -265 8 -200 3 -215 4 -211 21 6 24 21 31 28 13 3 -9 12 -16 20 -16 20
0 47 47 41 70 -3 13 0 20 9 20 16 0 19 26 4 35 -7 4 -5 14 5 28 20 28 19 57
-2 72 -15 11 -14 16 16 54 19 23 41 41 53 41 11 0 53 -18 94 -40 41 -22 81
-40 90 -40 8 0 20 12 26 26 10 21 9 31 -5 57 -21 40 -10 94 17 89 10 -2 23 1
29 6 7 5 31 13 55 17 52 8 61 25 36 70 l-18 34 29 31 c19 20 32 27 40 20 16
-13 38 26 29 53 -6 19 -5 20 9 8 10 -8 27 -11 42 -7 20 5 25 3 25 -14 0 -11 6
-20 14 -20 22 0 38 27 31 52 -7 21 -7 21 9 5 14 -13 21 -14 36 -5 15 10 26 7
62 -17 24 -16 49 -36 56 -44 16 -19 44 -4 52 27 3 12 22 30 42 41 l37 19 16
-24 c9 -14 21 -21 30 -18 11 5 13 2 9 -10 -10 -25 22 -19 51 9 14 14 25 36 26
48 0 12 16 35 35 50 32 27 34 28 34 9 0 -23 35 -52 61 -52 9 0 22 -7 29 -15 8
-9 15 -11 23 -4 7 5 20 15 29 22 9 7 18 28 21 47 7 55 28 91 48 85 18 -6 59
36 59 61 0 7 10 19 22 25 42 23 57 51 51 96 -5 38 -3 42 18 45 13 2 36 -3 50
-11 23 -13 28 -12 56 8 16 12 48 25 70 28 36 5 42 9 47 36 4 22 2 33 -8 39 -9
5 -13 15 -10 22 3 8 1 23 -5 34 -9 16 -6 23 12 35 19 13 24 13 38 1 8 -8 24
-14 35 -14z m-1906 -1240 c0 -5 -4 -10 -10 -10 -5 0 -10 5 -10 10 0 6 5 10 10
10 6 0 10 -4 10 -10z"/>
</g>
</svg>
