<?xml version="1.0" standalone="no"?>
<!DOCTYPE svg PUBLIC "-//W3C//DTD SVG 20010904//EN"
 "http://www.w3.org/TR/2001/REC-SVG-20010904/DTD/svg10.dtd">
<svg version="1.0" xmlns="http://www.w3.org/2000/svg"
 width="300.000000pt" height="271.000000pt" viewBox="0 0 300.000000 271.000000"
 preserveAspectRatio="xMidYMid meet">
<metadata>
Created by potrace 1.10, written by Peter Selinger 2001-2011
</metadata>
<g transform="translate(0.000000,271.000000) scale(0.100000,-0.100000)"
fill="#000000" stroke="none">
<path d="M10 2499 c0 -118 -3 -275 -7 -349 l-6 -135 40 -40 c36 -36 76 -106
84 -145 1 -8 -1 -30 -5 -48 -9 -36 13 -82 39 -82 9 0 12 -6 8 -16 -4 -11 1
-22 12 -30 10 -8 15 -14 11 -14 -4 0 0 -10 8 -22 11 -16 13 -25 5 -35 -8 -9
-4 -21 15 -44 15 -18 25 -38 22 -45 -3 -7 4 -20 16 -28 13 -10 18 -21 14 -32
-3 -9 -1 -23 6 -31 10 -12 9 -17 -5 -24 -21 -12 -22 -38 -2 -45 12 -5 12 -9 0
-28 -8 -12 -12 -34 -10 -49 3 -15 1 -27 -4 -27 -6 0 -15 -18 -21 -39 -5 -21
-17 -42 -25 -45 -8 -3 -15 -13 -15 -22 0 -10 -7 -26 -16 -35 -14 -15 -15 -26
-6 -59 5 -22 6 -40 2 -40 -5 0 -13 -15 -19 -33 -12 -34 -6 -67 10 -67 5 0 7
-34 5 -76 -4 -61 -9 -81 -27 -100 -16 -17 -19 -27 -12 -36 18 -22 4 -76 -21
-82 -11 -3 -30 -12 -41 -20 -20 -14 -20 -15 3 -45 12 -17 22 -35 22 -41 0 -14
11 -13 30 5 26 23 112 35 260 35 137 0 138 0 206 -34 117 -59 206 -94 268
-105 85 -16 182 -14 216 4 56 29 80 36 74 20 -4 -9 15 -24 58 -44 73 -36 98
-39 105 -11 3 11 9 20 14 20 4 0 13 9 19 20 9 16 8 22 -6 27 -9 3 -20 0 -25
-8 -7 -11 -9 -11 -9 4 0 9 -6 17 -14 17 -8 0 -16 5 -18 12 -5 15 -49 18 -67 5
-17 -14 -41 -18 -41 -6 0 5 -13 9 -30 9 -32 0 -37 9 -18 28 9 9 8 12 -7 13
-19 0 72 50 119 65 17 6 19 4 10 -7 -15 -19 -16 -62 -1 -71 6 -4 25 1 42 12
19 12 40 16 58 13 25 -5 28 -10 25 -37 -3 -28 -1 -31 27 -31 27 -1 30 -4 31
-35 2 -51 2 -50 31 -39 20 7 34 7 53 -2 14 -6 36 -17 50 -23 14 -6 32 -17 42
-25 16 -14 16 -16 -2 -28 -11 -8 -20 -21 -20 -29 0 -17 -12 -18 -27 -3 -8 8
-13 7 -18 -1 -14 -22 83 -99 106 -84 5 3 23 -2 41 -10 18 -9 48 -17 67 -19 35
-4 104 -54 95 -69 -3 -5 -11 -5 -17 1 -17 13 -51 17 -57 6 -7 -15 48 -39 63
-28 7 5 28 8 47 6 43 -4 90 14 91 36 0 10 2 12 6 3 2 -6 9 -10 14 -6 14 8 11
24 -6 24 -8 0 -15 7 -15 16 0 8 4 13 9 9 19 -11 20 13 2 36 -18 24 -18 49 1
49 5 0 7 -8 3 -19 -6 -21 19 -49 30 -31 10 16 28 12 21 -5 -6 -17 29 -22 39
-5 4 7 13 7 26 0 22 -12 27 -42 5 -34 -8 3 -21 -4 -29 -16 -9 -13 -17 -17 -22
-11 -9 16 -45 13 -45 -4 0 -16 74 -40 92 -29 6 4 23 8 37 10 50 4 101 22 129
45 15 13 36 31 46 39 10 8 33 29 51 47 18 17 35 29 38 27 2 -2 10 2 16 10 11
13 16 13 35 1 11 -8 35 -12 53 -10 24 3 32 0 36 -15 3 -12 18 -20 44 -25 40
-6 70 -34 86 -79 4 -10 13 -16 20 -13 22 8 16 -26 -9 -56 -13 -16 -24 -35 -24
-43 0 -28 30 -13 61 29 38 52 60 62 83 36 9 -11 16 -24 16 -30 0 -6 6 -9 13
-6 6 2 12 17 12 33 1 21 6 29 18 29 19 0 51 51 41 66 -3 5 0 8 7 7 6 -2 14 3
17 11 3 8 0 11 -7 7 -7 -5 -9 -1 -5 8 6 17 -3 20 -45 16 -14 -1 -21 2 -17 9 9
13 -12 53 -23 46 -5 -2 -8 3 -7 13 0 11 -7 18 -21 20 -16 2 -23 -2 -23 -12 0
-9 -5 -16 -11 -16 -5 0 -7 5 -4 10 10 16 -21 23 -45 10 -12 -6 -25 -9 -28 -5
-3 3 4 8 16 12 12 3 22 9 22 13 0 12 -92 18 -112 8 -14 -7 -16 -5 -12 7 4 9
-1 22 -12 30 -18 14 -18 14 2 15 12 0 24 7 28 15 3 8 1 15 -3 15 -5 0 -7 9 -4
20 4 14 0 20 -11 20 -10 0 -15 -4 -11 -9 3 -5 2 -12 -3 -15 -4 -2 -13 4 -20
15 -10 16 -9 19 4 19 14 0 14 3 4 15 -16 19 -6 19 23 1 20 -14 25 -12 56 13
21 17 31 33 27 40 -6 9 -11 9 -22 0 -21 -17 -15 9 8 34 13 15 20 16 36 8 19
-10 32 -6 32 11 0 5 -20 8 -45 7 -27 -2 -45 -7 -45 -15 0 -7 -8 -10 -19 -7
-13 3 -21 -1 -24 -14 -2 -10 -4 -3 -3 14 1 24 6 33 18 33 25 0 38 26 38 74 0
27 26 42 45 26 9 -7 15 -8 19 -1 4 6 13 8 22 4 12 -4 11 -8 -6 -20 -13 -9 -19
-21 -15 -30 3 -9 0 -22 -6 -30 -20 -23 -2 -26 22 -4 13 12 29 21 36 21 7 0 13
5 13 11 0 8 -11 9 -32 5 -30 -5 -31 -4 -15 8 11 8 24 13 30 10 7 -2 18 5 25
16 11 17 10 20 -8 20 -13 0 -18 5 -14 15 4 8 13 15 21 15 8 0 13 7 11 18 -2
11 -13 17 -31 17 -30 -1 -34 7 -14 24 10 7 17 7 24 0 8 -8 13 -8 17 0 4 6 3
11 -3 11 -6 0 -8 6 -5 14 8 21 -12 28 -29 11 -9 -8 -20 -15 -26 -15 -6 0 -18
-11 -26 -24 -19 -29 -61 -39 -80 -20 -7 8 -17 14 -22 14 -13 -1 -63 -85 -63
-106 0 -36 -16 -49 -43 -37 -19 9 -24 17 -20 32 6 24 -15 29 -36 9 -10 -11
-15 -9 -27 7 -13 18 -13 21 2 32 13 10 21 10 32 1 11 -10 18 -7 33 12 10 14
19 30 19 36 0 5 20 21 45 35 53 28 60 43 24 47 -27 3 -55 44 -43 63 8 14 -35
99 -71 140 -53 60 -67 130 -36 187 21 38 42 122 35 134 -7 11 -642 5 -929 -9
-121 -5 -129 -5 -116 11 12 14 11 20 -7 39 -14 15 -19 30 -15 50 3 16 0 34 -8
44 -11 13 -11 15 -1 9 7 -4 24 -5 38 -2 26 7 33 43 13 63 -9 9 -7 10 9 6 29
-7 40 22 18 46 -24 27 -19 54 14 73 25 14 29 23 32 70 l3 53 38 3 c36 3 38 5
33 28 -4 15 -2 24 5 24 6 0 9 7 5 15 -3 9 3 24 14 35 11 11 20 28 20 38 0 10
12 22 30 29 19 7 30 18 30 30 0 11 11 35 25 53 24 32 24 36 8 47 -20 15 -43
17 -43 4 0 -5 -9 -11 -20 -14 -34 -9 -23 20 12 32 24 8 33 8 39 0 4 -7 15 -9
24 -5 13 4 15 13 11 31 -4 16 -2 24 5 23 17 -5 53 48 45 68 -6 15 -8 15 -24 2
-22 -19 -48 -13 -31 8 19 24 3 44 -36 44 -23 0 -38 6 -42 15 -8 23 7 33 18 12
11 -18 44 -23 54 -7 3 5 -6 17 -20 26 -23 15 -24 19 -11 26 20 11 21 58 1 58
-7 0 -18 -7 -23 -17 -6 -10 -16 -14 -28 -9 -16 6 -14 10 15 36 33 31 34 50 1
50 -11 0 -24 9 -30 20 -9 16 -6 22 15 36 19 13 25 25 25 54 0 38 -21 67 -40
55 -5 -3 -10 -17 -10 -31 0 -13 -5 -24 -11 -24 -11 0 -9 16 6 53 7 16 -26 17
-596 17 -332 0 -695 3 -806 7 l-203 6 0 -214z m1576 168 c-14 -22 3 -52 30
-52 13 0 21 10 25 30 6 29 7 29 8 -7 0 -21 -3 -38 -9 -38 -5 0 -17 -11 -26
-25 -15 -23 -15 -27 0 -50 9 -14 24 -25 33 -25 12 0 9 -6 -11 -25 -29 -27 -31
-36 -14 -53 15 -15 37 -15 58 1 9 6 1 -2 -17 -19 -18 -17 -33 -38 -33 -47 0
-25 29 -47 63 -47 24 0 28 -3 19 -12 -20 -20 -14 -48 11 -49 12 -1 26 -1 30 0
5 1 7 -4 5 -11 -3 -7 -13 -13 -24 -13 -15 0 -19 -6 -17 -28 2 -23 -1 -26 -11
-18 -10 8 -24 8 -52 -1 -31 -10 -40 -18 -42 -41 -4 -35 17 -44 59 -23 41 20
44 17 15 -16 -16 -20 -29 -25 -44 -21 -30 7 -30 -25 0 -36 20 -7 20 -8 -10
-19 -22 -7 -32 -17 -32 -31 0 -12 -9 -30 -20 -41 -11 -11 -17 -27 -14 -37 5
-17 5 -17 -6 0 -6 9 -17 17 -24 17 -13 0 -40 -49 -32 -58 3 -2 -1 -14 -9 -26
-8 -11 -15 -34 -15 -50 0 -23 -3 -27 -12 -18 -16 16 -45 15 -51 -2 -8 -20 18
-40 43 -33 32 8 23 -10 -10 -22 -24 -8 -30 -16 -30 -39 0 -16 7 -35 15 -42 18
-15 20 -30 4 -30 -6 0 -13 9 -16 20 -6 22 -29 27 -36 8 -2 -7 5 -28 15 -46 25
-46 23 -56 -11 -49 -37 8 -59 -14 -35 -34 11 -9 14 -22 10 -44 -5 -24 -1 -36
14 -50 l21 -19 -28 -23 -28 -24 225 5 c124 3 370 9 547 12 l322 7 -18 -57 c-9
-31 -23 -62 -29 -68 -30 -30 -6 -142 42 -196 40 -45 72 -109 68 -138 -2 -12 9
-35 23 -53 21 -24 23 -31 11 -31 -17 0 -56 -34 -56 -49 0 -5 -17 -15 -37 -22
-52 -16 -62 -26 -61 -59 1 -21 7 -30 25 -35 13 -3 29 -3 36 1 7 4 9 3 4 -1
-10 -11 42 -45 70 -45 23 0 49 34 44 58 -3 17 28 66 37 57 4 -3 7 -14 7 -23 0
-10 7 -16 18 -16 13 2 15 -1 7 -11 -6 -7 -10 -17 -9 -21 4 -24 -2 -45 -13 -43
-30 4 -38 -3 -38 -31 0 -20 -5 -30 -15 -30 -8 0 -15 7 -15 15 0 23 -27 18 -33
-7 -4 -14 0 -29 10 -40 22 -24 33 -23 34 5 0 12 3 16 6 10 2 -7 12 -13 20 -13
12 0 11 -4 -6 -19 -12 -10 -20 -23 -19 -27 2 -5 -6 -18 -18 -30 -18 -18 -23
-19 -39 -7 -18 12 -10 19 17 14 5 0 7 5 5 12 -1 6 4 11 11 9 25 -5 -7 37 -33
44 -37 9 -54 -2 -22 -15 15 -6 27 -16 27 -22 0 -6 -7 -8 -16 -5 -23 9 -54 -2
-54 -19 0 -8 11 -17 25 -21 15 -4 28 -16 31 -29 4 -15 15 -25 34 -29 16 -3 34
-15 40 -27 l12 -21 -29 21 c-21 16 -44 21 -93 22 -36 1 -71 6 -78 12 -7 5 -15
7 -19 4 -3 -4 -14 -2 -24 3 -12 7 -19 6 -22 -3 -3 -8 -9 -7 -19 6 -7 10 -18
17 -23 16 -6 -1 -23 1 -38 6 -68 19 -56 -48 14 -78 42 -18 49 -36 22 -62 -23
-24 -24 -87 -1 -93 10 -2 18 -7 18 -11 0 -12 -66 -61 -83 -61 -11 0 -17 52 -8
68 11 21 -8 52 -34 52 -10 0 -26 10 -37 22 -13 16 -30 22 -61 22 -36 1 -42 -2
-45 -21 -4 -25 -18 -31 -25 -10 -6 16 -43 -6 -39 -23 2 -7 -3 -10 -12 -7 -9 4
-18 2 -21 -4 -4 -5 1 -12 9 -15 23 -9 20 -24 -5 -24 -13 0 -19 -5 -16 -12 5
-14 -47 -17 -59 -5 -11 11 -23 -3 -17 -18 7 -19 -4 -19 -23 0 -14 13 -13 16 8
24 13 4 28 6 34 4 18 -7 23 21 9 41 -9 12 -20 16 -34 11 -19 -6 -26 2 -22 27
1 13 -38 19 -58 9 -24 -14 -42 -14 -21 -1 11 7 12 12 3 21 -16 16 -47 3 -39
-16 8 -21 1 -19 -30 10 -51 47 -65 94 -39 129 11 15 12 23 3 33 -9 11 -8 21 6
44 13 22 14 29 4 29 -30 -1 -43 -20 -42 -61 1 -23 -4 -52 -11 -65 -10 -21 -14
-22 -24 -10 -7 8 -19 12 -28 9 -13 -5 -15 -1 -10 23 12 60 12 67 1 71 -13 4
-39 -51 -30 -65 3 -5 -5 -12 -19 -14 -22 -5 -25 -2 -25 23 0 28 -24 50 -46 42
-7 -2 -10 8 -7 32 4 38 5 37 -70 38 -21 0 -45 -7 -56 -17 -18 -16 -19 -16 -19
8 1 17 5 23 14 19 10 -4 14 3 14 21 0 22 -4 26 -29 26 -16 0 -37 3 -46 6 -11
5 -18 0 -21 -12 -6 -19 -74 -59 -74 -43 0 15 -24 10 -50 -11 l-25 -19 30 -13
c19 -8 30 -20 30 -33 0 -12 9 -22 25 -26 22 -6 23 -7 4 -8 -12 -1 -35 -8 -50
-16 -16 -8 -54 -15 -85 -15 -114 0 -207 28 -384 116 -58 28 -81 34 -132 34
-49 0 -63 3 -63 15 0 8 8 15 19 15 10 0 24 6 30 14 12 14 11 60 -2 72 -4 4 -7
18 -7 30 0 32 -21 74 -37 74 -9 0 -13 -16 -13 -57 0 -67 -5 -78 -43 -92 -35
-14 -34 -24 3 -38 54 -20 32 -30 -79 -35 -72 -4 -120 -11 -142 -22 -18 -9 -30
-13 -26 -10 3 4 -3 14 -15 24 -21 17 -21 17 19 33 34 13 42 22 47 52 4 20 4
44 1 54 -3 10 1 24 10 31 8 7 15 22 15 34 0 12 5 27 10 32 7 7 7 19 2 35 -5
13 -6 34 -1 46 6 15 2 28 -12 44 -20 24 -17 55 7 74 10 8 11 20 3 54 -8 37 -7
46 6 53 8 5 15 17 15 27 0 10 9 26 20 36 11 10 20 25 20 34 0 9 7 27 16 39 9
13 14 34 11 48 -3 16 1 28 9 31 19 7 18 28 -2 44 -14 12 -14 14 5 21 18 6 19
11 10 35 -5 15 -9 41 -7 58 2 25 0 30 -19 28 -16 -2 -20 2 -16 17 3 12 -5 29
-21 45 -20 20 -24 30 -16 40 12 14 -16 85 -33 85 -5 0 -4 7 3 15 11 13 8 17
-19 28 -37 14 -44 31 -31 75 9 33 7 40 -26 119 -8 17 -14 36 -14 42 0 6 -4 11
-9 11 -5 0 -23 14 -40 31 l-31 31 0 131 c0 73 3 223 7 334 l6 202 782 -2 c743
-2 781 -3 771 -20z m119 -307 c3 -5 2 -10 -4 -10 -5 0 -13 5 -16 10 -3 6 -2
10 4 10 5 0 13 -4 16 -10z m-155 -465 c10 -13 9 -15 -8 -15 -15 0 -20 5 -16
15 4 8 7 15 9 15 1 0 8 -7 15 -15z m1179 -1146 c-7 -4 -17 -5 -22 -2 -5 3 -3
9 4 14 7 4 17 5 22 2 5 -3 3 -9 -4 -14z m-35 -15 c9 -8 16 -21 15 -27 0 -7 -7
-2 -15 10 -9 13 -22 19 -31 16 -12 -5 -12 -7 -1 -14 10 -7 9 -9 -4 -9 -20 0
-24 26 -5 33 20 9 25 8 41 -9z m56 -9 c0 -8 -2 -15 -4 -15 -2 0 -6 7 -10 15
-3 8 -1 15 4 15 6 0 10 -7 10 -15z m-2318 -100 c3 -17 -3 -20 -37 -22 -22 -1
-32 1 -22 4 22 6 37 41 38 91 l1 37 9 -45 c5 -25 10 -54 11 -65z m2103 -75 c3
-5 1 -10 -4 -10 -6 0 -11 5 -11 10 0 6 2 10 4 10 3 0 8 -4 11 -10z m75 -45 c0
-8 -4 -15 -10 -15 -5 0 -7 7 -4 15 4 8 8 15 10 15 2 0 4 -7 4 -15z m-1335 -91
c20 -17 24 -24 12 -24 -10 0 -14 -5 -11 -15 4 -8 1 -15 -5 -15 -6 0 -11 4 -11
9 0 5 -10 11 -22 13 -13 2 -22 9 -20 16 1 8 -6 12 -20 10 -28 -4 -41 14 -13
18 11 2 21 7 23 12 5 15 35 4 67 -24z m1270 26 c3 -5 1 -10 -4 -10 -6 0 -11 5
-11 10 0 6 2 10 4 10 3 0 8 -4 11 -10z m27 -35 c18 6 20 5 11 -5 -13 -15 -63
-5 -63 11 0 8 5 8 15 -1 8 -7 24 -9 37 -5z m-326 -26 c4 -8 9 -7 15 2 7 11 9
11 9 1 0 -7 4 -11 9 -8 10 7 25 -10 35 -39 6 -16 2 -15 -22 8 -15 15 -31 25
-35 21 -3 -3 -16 1 -29 10 -17 12 -19 16 -6 16 9 0 20 -5 24 -11z m101 -26 c0
-7 -5 -12 -11 -10 -15 5 -18 24 -3 24 8 0 14 -6 14 -14z m107 10 c4 -5 13 -8
19 -8 6 0 16 -10 22 -21 6 -12 16 -29 23 -37 15 -18 3 -29 -36 -33 -21 -3 -23
0 -17 27 6 25 3 31 -14 36 -12 3 -21 13 -21 24 0 20 11 25 24 12z m86 -34 c0
-11 -4 -17 -10 -14 -5 3 -10 13 -10 21 0 8 -4 14 -10 14 -5 0 -10 5 -10 10 0
7 6 7 20 0 11 -6 20 -20 20 -31z m-160 6 c0 -8 5 -15 10 -15 6 0 10 5 10 10 0
6 9 1 21 -11 11 -11 18 -23 15 -27 -4 -3 -12 3 -20 13 -13 18 -14 18 -24 -1
-10 -17 -11 -17 -12 -1 0 19 -2 20 -24 11 -9 -3 -16 -11 -16 -16 0 -6 7 -7 16
-4 8 3 13 2 9 -3 -3 -5 0 -11 5 -13 6 -2 -3 -17 -21 -33 -17 -17 -30 -23 -27
-15 3 8 -1 21 -9 28 -7 7 -13 21 -12 30 0 13 2 12 9 -4 5 -12 14 -25 20 -29
20 -12 23 4 6 30 -9 14 -12 25 -6 25 6 0 8 5 5 10 -3 6 3 10 15 10 12 0 18 5
15 10 -3 6 -1 10 4 10 6 0 11 -7 11 -15z m200 -41 c0 -12 8 -14 34 -10 28 5
38 1 64 -28 17 -19 28 -36 25 -39 -2 -3 5 -10 16 -17 12 -6 21 -16 21 -22 0
-9 -3 -9 -12 0 -8 8 -15 8 -24 1 -10 -8 -9 -14 4 -30 9 -10 21 -19 27 -19 5 0
3 4 -5 10 -8 5 -11 13 -6 17 8 8 19 -9 16 -23 -1 -4 4 -11 12 -16 9 -6 8 -8
-7 -6 -11 2 -26 11 -33 21 -7 9 -17 15 -22 12 -5 -3 -21 12 -35 35 -14 22 -32
41 -40 41 -8 1 -19 3 -25 4 -5 1 -16 3 -24 4 -15 1 -30 41 -15 41 5 0 9 12 9
26 0 14 4 23 10 19 6 -3 10 -13 10 -21z m191 -38 c37 6 39 5 39 -19 0 -14 7
-27 15 -31 8 -3 15 -15 15 -26 0 -12 -4 -19 -9 -15 -5 3 -13 0 -17 -6 -3 -6
-1 -15 6 -19 10 -6 10 -12 -2 -29 l-15 -21 -13 25 c-7 14 -17 25 -21 25 -5 0
-5 10 0 22 6 17 -1 30 -35 67 -36 38 -40 47 -26 52 12 4 18 0 20 -12 3 -16 9
-18 43 -13z m-1136 13 c11 -16 1 -19 -13 -3 -7 8 -8 14 -3 14 5 0 13 -5 16
-11z m418 -14 c-7 -21 -13 -19 -13 6 0 11 4 18 10 14 5 -3 7 -12 3 -20z m-439
-19 c1 -10 9 -21 16 -26 27 -17 2 -21 -29 -5 -35 18 -35 18 -19 45 13 21 28
14 32 -14z m43 -8 c-3 -7 -5 -2 -5 12 0 14 2 19 5 13 2 -7 2 -19 0 -25z m123
18 c0 -3 -4 -8 -10 -11 -5 -3 -10 -1 -10 4 0 6 5 11 10 11 6 0 10 -2 10 -4z
m300 -6 c0 -5 -4 -10 -10 -10 -5 0 -10 5 -10 10 0 6 5 10 10 10 6 0 10 -4 10
-10z m217 -21 c2 -17 -1 -18 -13 -9 -17 15 -19 41 -1 34 7 -2 13 -14 14 -25z
m-547 11 c0 -5 -5 -10 -11 -10 -5 0 -7 5 -4 10 3 6 8 10 11 10 2 0 4 -4 4 -10z
m-44 -16 c-3 -9 -6 -23 -6 -32 0 -12 -3 -13 -11 -5 -13 13 -3 53 13 53 5 0 7
-7 4 -16z m349 7 c6 -1 6 -4 0 -10 -11 -11 -65 -3 -65 9 0 5 12 7 28 5 15 -2
31 -4 37 -4z m89 -17 c3 -9 10 -12 16 -9 5 3 10 2 10 -4 0 -5 -6 -11 -12 -14
-10 -3 -10 -10 1 -30 17 -32 14 -36 -33 -44 -23 -4 -36 -2 -36 6 0 6 10 10 22
8 18 -2 22 4 24 37 3 33 1 37 -16 33 -16 -4 -18 -2 -10 13 5 9 6 20 2 24 -3 4
1 4 10 1 9 -4 19 -13 22 -21z m-404 -4 c0 -5 -5 -10 -11 -10 -5 0 -7 5 -4 10
3 6 8 10 11 10 2 0 4 -4 4 -10z m55 0 c3 -5 -1 -10 -9 -10 -9 0 -16 5 -16 10
0 6 4 10 9 10 6 0 13 -4 16 -10z m165 -30 c0 -5 -5 -10 -11 -10 -5 0 -7 5 -4
10 3 6 8 10 11 10 2 0 4 -4 4 -10z m-60 -34 c0 -2 -7 -6 -15 -10 -8 -3 -15 -1
-15 4 0 6 7 10 15 10 8 0 15 -2 15 -4z m37 -14 c-9 -2 -15 -8 -11 -13 3 -5 10
-6 16 -3 7 4 8 2 4 -4 -10 -16 -36 -15 -36 1 0 19 21 37 34 29 7 -4 4 -8 -7
-10z m-77 -2 c0 -5 -4 -10 -10 -10 -5 0 -10 5 -10 10 0 6 5 10 10 10 6 0 10
-4 10 -10z m28 -22 c-2 -6 -10 -14 -16 -16 -7 -2 -10 2 -6 12 7 18 28 22 22 4z
m810 -48 c-7 -10 -14 -17 -17 -15 -4 4 18 35 25 35 2 0 -1 -9 -8 -20z"/>
<path d="M2590 824 c0 -16 35 -32 47 -22 21 17 15 28 -17 28 -16 0 -30 -3 -30
-6z"/>
<path d="M2942 778 c-9 -9 -8 -16 7 -32 10 -12 21 -43 24 -71 3 -27 3 -40 -1
-27 -4 13 -11 23 -15 24 -17 0 -77 -57 -77 -74 0 -24 22 -23 43 2 9 11 24 20
33 20 21 0 10 -32 -28 -86 -22 -31 -35 -40 -49 -37 -22 6 -25 -9 -5 -27 18
-14 35 -6 69 36 39 47 49 80 48 173 -1 97 -17 131 -49 99z"/>
<path d="M2736 611 c-3 -5 0 -11 8 -14 15 -6 26 1 26 15 0 11 -27 10 -34 -1z"/>
<path d="M2670 556 c0 -9 7 -16 16 -16 9 0 14 5 12 12 -6 18 -28 21 -28 4z"/>
<path d="M2730 549 c0 -18 2 -19 15 -9 15 12 12 30 -6 30 -5 0 -9 -10 -9 -21z"/>
<path d="M2842 448 c-14 -14 -16 -48 -4 -48 15 0 44 38 37 49 -8 14 -18 14
-33 -1z"/>
<path d="M2790 400 c0 -5 -7 -10 -16 -10 -17 0 -16 -31 1 -37 19 -6 46 21 39
40 -7 18 -24 23 -24 7z"/>
<path d="M1230 310 c0 -5 7 -10 15 -10 8 0 15 5 15 10 0 6 -7 10 -15 10 -8 0
-15 -4 -15 -10z"/>
<path d="M2040 140 c0 -5 5 -10 10 -10 6 0 10 5 10 10 0 6 -4 10 -10 10 -5 0
-10 -4 -10 -10z"/>
</g>
</svg>
