<?xml version="1.0" standalone="no"?>
<!DOCTYPE svg PUBLIC "-//W3C//DTD SVG 20010904//EN"
 "http://www.w3.org/TR/2001/REC-SVG-20010904/DTD/svg10.dtd">
<svg version="1.0" xmlns="http://www.w3.org/2000/svg"
 width="300.000000pt" height="148.000000pt" viewBox="0 0 300.000000 148.000000"
 preserveAspectRatio="xMidYMid meet">
<metadata>
Created by potrace 1.10, written by Peter Selinger 2001-2011
</metadata>
<g transform="translate(0.000000,148.000000) scale(0.100000,-0.100000)"
fill="#000000" stroke="none">
<path d="M16 1472 c-2 -4 -6 -101 -7 -217 -5 -241 -2 -246 73 -176 23 23 47
41 51 41 10 0 88 63 133 108 32 31 35 32 56 18 28 -20 58 -21 58 -2 0 8 20 32
45 54 25 22 45 48 45 58 0 15 4 14 28 -9 28 -27 118 -57 170 -57 31 0 62 23
87 63 15 24 22 27 50 21 29 -5 36 -2 56 25 29 40 50 39 98 -4 21 -19 45 -35
54 -35 9 0 18 -4 22 -9 3 -6 16 -4 32 4 15 8 31 11 37 7 6 -4 1 -8 -12 -10
-18 -3 -22 -8 -17 -25 4 -12 18 -31 31 -42 13 -12 24 -28 24 -38 0 -9 8 -21
18 -26 14 -7 17 -18 14 -40 -5 -35 15 -49 76 -54 27 -3 53 -15 79 -36 35 -29
37 -33 21 -45 -47 -35 3 -109 82 -121 59 -10 78 -20 82 -47 2 -16 12 -24 37
-29 19 -4 42 -16 50 -27 9 -11 26 -25 39 -31 19 -10 22 -20 22 -67 0 -49 -3
-56 -26 -66 -15 -7 -27 -23 -31 -40 -4 -18 -12 -28 -24 -28 -10 0 -24 -10 -30
-23 -7 -12 -23 -35 -36 -51 -23 -28 -25 -52 -6 -119 7 -26 38 -39 65 -27 32
15 63 33 82 49 13 11 17 9 26 -14 5 -14 10 -33 10 -42 0 -8 9 -17 20 -20 11
-3 20 -11 20 -19 0 -7 13 -20 30 -29 35 -18 54 -19 44 -3 -4 7 4 1 19 -14 21
-23 30 -26 50 -19 32 12 104 -20 116 -51 11 -29 62 -59 69 -40 2 8 16 0 39
-23 19 -19 41 -35 48 -35 21 0 12 99 -13 140 -14 22 -19 43 -15 58 3 14 1 27
-7 32 -9 6 -9 12 -1 29 10 18 6 28 -32 74 -42 52 -44 57 -51 142 -3 49 -11 94
-16 100 -7 8 -3 18 11 31 14 12 19 28 17 49 -2 24 1 29 15 27 16 -3 18 3 16
39 -3 36 0 43 19 50 25 9 26 12 13 37 -6 9 -13 34 -16 55 -4 26 -14 42 -33 54
-35 22 -66 53 -52 53 6 0 13 -6 16 -14 3 -8 17 -17 31 -21 31 -7 76 29 68 56
-8 23 36 34 52 13 16 -22 34 -8 27 22 -5 19 -2 24 12 24 11 0 30 12 43 26 13
14 37 32 53 40 32 16 35 30 13 54 -13 15 -13 19 -2 29 8 6 22 9 31 5 12 -5 13
-10 5 -25 -5 -11 -9 -25 -7 -32 3 -18 -25 -57 -42 -57 -27 -1 -66 -44 -104
-115 -36 -66 -37 -70 -22 -96 9 -15 16 -41 16 -58 0 -35 26 -53 41 -30 6 10 9
11 9 1 0 -7 -6 -15 -14 -18 -19 -7 -56 13 -56 31 0 32 -30 13 -50 -31 -20 -46
-28 -134 -12 -134 11 0 42 34 42 46 0 5 15 9 32 8 28 -1 33 -5 36 -28 2 -19 0
-26 -8 -21 -6 4 -9 13 -6 21 3 8 0 14 -7 14 -19 0 -67 -53 -67 -73 0 -9 -5
-17 -11 -17 -5 0 -7 4 -4 10 3 6 -1 10 -9 10 -8 0 -17 -4 -20 -9 -9 -14 4 -41
20 -41 10 0 12 -8 8 -30 -5 -23 -3 -30 9 -30 18 0 40 24 30 34 -4 3 4 5 17 3
12 -2 29 -12 36 -21 7 -10 17 -15 23 -12 5 4 12 2 16 -4 5 -9 -1 -12 -25 -12
-3 -1 -20 2 -39 6 -31 5 -33 4 -28 -16 4 -12 1 -28 -5 -36 -7 -8 -8 -16 -2
-20 13 -10 38 -42 32 -42 -3 0 -15 9 -28 20 -12 11 -27 17 -31 14 -11 -6 -2
-51 16 -79 6 -11 18 -38 25 -60 17 -51 92 -130 116 -121 13 5 14 9 4 21 -7 8
-16 15 -20 15 -17 0 -68 60 -58 66 10 7 108 -92 108 -108 0 -4 -6 -8 -13 -8
-9 0 -13 -13 -11 -43 1 -33 6 -42 20 -42 9 0 19 -6 22 -13 2 -6 12 -12 22 -12
15 0 19 7 17 30 -1 16 -5 30 -8 30 -3 0 -6 26 -7 58 0 51 1 54 11 30 11 -27
37 -39 37 -17 0 8 6 7 16 -2 15 -12 15 -14 -6 -19 -28 -7 -40 -37 -29 -69 9
-22 11 -23 27 -7 10 9 27 16 38 16 18 -1 18 -1 -1 -16 -15 -11 -17 -18 -9 -32
8 -12 8 -22 -1 -37 -7 -11 -16 -36 -19 -56 -6 -31 -3 -37 14 -42 11 -3 20 -1
20 4 0 5 6 9 14 9 7 0 19 7 26 15 7 9 21 13 31 10 9 -3 20 -1 24 5 4 7 13 7
27 -1 17 -9 24 -8 33 4 7 10 42 20 95 27 95 13 124 25 116 46 -4 12 -1 14 14
9 16 -5 20 -2 18 19 -1 13 3 35 9 48 6 13 14 32 18 43 5 15 8 16 14 6 10 -16
-4 -74 -19 -79 -6 -2 -10 -11 -10 -21 0 -9 -7 -27 -16 -40 -16 -22 -15 -23 7
-19 27 4 65 55 79 109 6 21 24 67 39 103 36 79 44 149 18 154 -15 3 -16 0 -7
-25 l11 -28 -23 27 -23 28 -182 1 -182 1 -5 41 c-5 37 -11 119 -31 432 -7 107
-14 230 -20 340 -3 55 -8 124 -11 153 l-5 52 -1239 0 c-682 -1 -1241 -4 -1244
-8z m2464 -17 c0 -16 43 -698 53 -840 l12 -170 191 -3 c164 -2 194 -5 205 -19
13 -15 12 -15 -8 -5 -12 7 -32 12 -45 12 -22 -1 -22 -1 5 -16 34 -19 34 -32 0
-37 -24 -3 -23 -4 14 -11 41 -8 42 -9 28 -29 -8 -12 -30 -28 -47 -37 -24 -11
-37 -28 -52 -67 -15 -38 -27 -54 -45 -58 -15 -4 -28 -1 -33 7 -6 8 -8 -2 -6
-28 l3 -42 -79 -11 c-43 -6 -85 -16 -92 -22 -10 -9 -18 -9 -28 0 -16 13 -83
-11 -102 -38 -7 -9 -16 -13 -20 -8 -4 4 -2 7 4 7 7 0 12 11 12 25 0 16 14 39
38 62 32 32 34 38 18 41 -10 2 -22 -2 -27 -10 -7 -10 -9 -9 -9 4 0 9 14 25 30
35 35 20 40 38 7 29 -12 -4 -35 -9 -52 -12 -16 -2 -40 -7 -52 -9 -39 -9 -16
21 26 34 21 6 44 18 51 26 7 8 24 15 39 15 20 0 23 2 11 10 -22 14 -110 13
-110 -2 0 -6 -3 -9 -6 -5 -8 7 22 69 46 95 10 11 16 22 13 26 -3 3 0 12 7 20
10 13 9 19 -4 31 -15 15 -17 14 -26 -10 -5 -14 -10 -30 -10 -34 0 -5 -13 -25
-30 -46 -17 -21 -30 -44 -30 -52 0 -11 -3 -11 -14 -1 -13 11 -13 15 0 25 19
14 15 47 -6 50 -8 2 -25 -13 -38 -32 -12 -19 -18 -35 -12 -35 5 0 10 -12 10
-27 0 -28 -1 -27 -22 10 -12 20 -28 37 -35 37 -7 0 -13 7 -13 15 0 7 -6 18
-14 22 -23 13 -70 87 -57 91 6 2 11 11 11 19 0 15 10 15 55 -2 19 -7 19 -7 3
10 -13 14 -14 23 -6 40 l10 23 56 -19 c30 -10 57 -19 60 -19 3 0 -12 16 -34
35 -24 22 -38 42 -36 54 4 25 -13 35 -38 21 -13 -7 -20 -7 -20 0 0 9 17 14 48
13 18 -1 7 47 -14 63 -7 6 -14 17 -14 24 0 10 -3 10 -16 -1 -14 -11 -15 -10
-12 7 4 27 28 43 62 44 28 0 29 0 11 20 -10 11 -24 20 -32 20 -7 0 -13 8 -13
18 0 10 -4 22 -10 28 -16 16 5 78 38 111 18 17 32 37 32 43 0 12 -7 9 -50 -21
-82 -56 -109 -14 -58 88 20 40 35 58 39 51 6 -9 11 -5 17 12 9 24 40 34 53 17
3 -4 17 1 30 12 l24 20 -25 1 -25 1 33 29 c21 20 43 30 65 30 27 1 30 2 16 13
-15 11 -14 15 7 47 36 52 29 72 -9 30 -18 -19 -45 -46 -61 -60 l-29 -25 15 30
c27 52 31 75 15 75 -8 0 -18 -8 -21 -17 -5 -12 -10 -13 -18 -5 -11 11 -21 6
-64 -37 -17 -17 -21 -28 -14 -35 13 -13 13 -46 0 -46 -5 0 -21 -12 -35 -26
-29 -29 -43 -27 -26 4 5 10 7 29 4 41 -6 22 -24 22 -63 0 -12 -7 -11 -8 5 -9
18 0 20 -6 20 -45 -1 -50 -15 -76 -15 -27 0 38 -31 60 -50 36 -11 -12 -10 -17
5 -28 26 -19 10 -37 -25 -29 -33 6 -41 -10 -13 -26 10 -5 14 -13 10 -17 -4 -4
-14 1 -22 13 -14 20 -55 38 -55 25 0 -4 16 -24 35 -45 31 -33 32 -38 13 -32
-13 4 -32 16 -44 26 -11 11 -25 19 -31 19 -6 0 -16 7 -23 15 -7 8 -17 15 -22
15 -6 0 -6 -6 1 -14 6 -8 10 -18 9 -22 -3 -11 67 -84 80 -84 5 0 17 -11 26
-25 18 -28 21 -39 6 -30 -5 3 -20 0 -32 -7 -13 -7 -27 -11 -33 -9 -5 2 -23 7
-40 12 l-30 8 23 -19 c13 -11 21 -24 17 -30 -3 -5 0 -10 7 -10 17 -1 84 -68
75 -76 -4 -4 -15 0 -24 8 -20 17 -103 51 -103 42 0 -8 43 -43 53 -44 5 0 20
-9 33 -19 19 -15 21 -20 9 -25 -18 -7 -20 -33 -2 -39 8 -3 4 -13 -12 -31 -21
-22 -23 -29 -13 -50 6 -14 14 -60 17 -103 5 -50 13 -87 25 -104 14 -20 15 -28
6 -41 -11 -16 -15 -15 -47 3 -45 27 -59 47 -59 83 0 36 -15 64 -27 52 -15 -14
-9 -101 9 -128 9 -14 35 -34 57 -44 22 -11 41 -23 41 -29 1 -17 37 -55 52 -55
8 0 19 5 26 12 10 10 11 6 6 -17 -4 -22 1 -40 20 -68 14 -21 26 -40 26 -42 0
-2 -17 7 -37 21 -36 24 -60 27 -56 6 1 -5 -7 -12 -17 -15 -11 -3 -20 0 -20 6
0 18 -42 57 -62 57 -19 0 -24 15 -8 25 5 3 10 16 10 27 0 20 -1 20 -18 5 -29
-26 -40 -20 -48 26 l-9 42 -5 -54 c-3 -30 -10 -56 -15 -58 -16 -5 -44 64 -32
76 7 7 2 17 -14 30 -29 25 -71 28 -63 6 4 -8 9 -15 13 -15 4 0 12 -16 18 -35
6 -19 10 -35 8 -35 -16 0 -33 14 -29 24 3 7 -5 17 -17 22 -12 6 -29 30 -40 58
-18 48 -18 49 2 90 l20 41 -31 -35 c-17 -19 -35 -46 -41 -59 -9 -22 -11 -23
-28 -7 -25 23 -45 21 -31 -3 12 -23 -10 -51 -40 -51 -22 0 -30 19 -30 71 0 36
4 41 48 69 26 16 52 30 59 30 6 0 15 5 19 11 5 9 -2 10 -22 6 -16 -3 -23 -4
-16 -1 6 3 12 14 12 25 0 10 13 25 30 34 29 15 30 17 30 90 0 67 -2 75 -22 86
-13 7 -36 23 -51 35 -16 13 -39 24 -53 24 -17 0 -24 5 -24 20 0 27 -55 60 -99
60 -33 0 -81 31 -81 52 0 5 10 22 22 39 22 30 23 31 3 41 -11 6 -31 23 -45 37
-14 14 -36 27 -50 28 -82 10 -89 14 -84 42 4 18 0 32 -10 40 -9 8 -16 22 -16
33 0 10 -7 21 -15 24 -10 4 -13 13 -10 25 7 21 -5 25 -23 7 -18 -18 -14 3 4
24 27 29 4 45 -57 42 -46 -3 -54 0 -79 25 -16 18 -42 32 -65 37 -35 6 -41 4
-67 -25 -24 -26 -31 -30 -48 -21 -14 7 -26 8 -39 0 -11 -5 -27 -7 -35 -4 -19
7 -21 -7 -3 -25 10 -11 8 -12 -10 -6 -24 7 -30 -4 -13 -21 8 -8 7 -14 -2 -21
-17 -14 -136 6 -169 28 -21 14 -22 18 -10 33 11 14 11 16 -2 16 -8 0 -21 2
-29 5 -8 3 -21 -7 -31 -25 -10 -16 -16 -30 -14 -30 2 0 -16 -22 -42 -48 -42
-44 -48 -47 -68 -35 -31 18 -50 16 -66 -7 -7 -11 -34 -34 -58 -52 -24 -17 -50
-40 -57 -50 -7 -10 -19 -18 -25 -18 -7 0 -33 -18 -57 -40 -24 -22 -46 -38 -48
-35 -2 2 -1 92 3 199 l8 196 1223 0 c673 0 1224 -2 1224 -5z m-240 -499 c0 -3
-4 -8 -10 -11 -5 -3 -10 -1 -10 4 0 6 5 11 10 11 6 0 10 -2 10 -4z m-185 -41
c26 -11 27 -13 8 -14 -12 -1 -23 -5 -25 -10 -1 -5 -11 2 -21 15 -21 28 -9 31
38 9z m155 5 c0 -5 -4 -10 -10 -10 -5 0 -10 5 -10 10 0 6 5 10 10 10 6 0 10
-4 10 -10z m-40 -64 c0 -6 -5 -5 -11 1 -6 6 -18 9 -26 6 -13 -5 -13 -3 -2 15
12 19 14 19 26 4 7 -9 13 -21 13 -26z m60 -20 l0 -31 -15 29 c-18 35 -18 33 0
33 10 0 15 -10 15 -31z m-108 -21 c-6 -34 -12 -32 -12 6 0 16 4 28 9 25 4 -3
6 -17 3 -31z m68 -80 c7 -9 10 -19 6 -23 -4 -4 -12 1 -17 10 -6 10 -16 15 -27
12 -14 -5 -15 -4 -2 5 20 14 25 14 40 -4z m-13 -48 c0 -8 -6 -14 -14 -14 -14
0 -17 10 -6 20 10 11 20 8 20 -6z m83 2 c0 -19 -26 -24 -41 -9 -15 16 -14 17
12 16 16 -1 29 -4 29 -7z m-126 -15 c3 -8 2 -12 -4 -9 -6 3 -10 10 -10 16 0
14 7 11 14 -7z m86 -14 c0 -5 -7 -7 -15 -4 -8 4 -15 8 -15 10 0 2 7 4 15 4 8
0 15 -4 15 -10z m50 -80 c0 -5 -4 -10 -10 -10 -5 0 -10 5 -10 10 0 6 5 10 10
10 6 0 10 -4 10 -10z m-44 -22 c5 -7 0 -9 -14 -6 -13 4 -23 0 -26 -8 -3 -8
-10 -14 -16 -14 -6 0 -5 7 2 20 14 22 43 27 54 8z m-76 -90 c0 -6 9 -22 21
-34 11 -12 19 -30 16 -41 -4 -17 -4 -17 -12 2 -5 11 -17 31 -27 44 -20 26 -23
41 -8 41 6 0 10 -5 10 -12z m-169 -57 c15 -6 18 -10 8 -10 -9 -1 -25 7 -36 17
-10 9 -14 14 -8 10 6 -4 22 -12 36 -17z m99 -32 c0 -10 -4 -20 -9 -24 -14 -8
-40 34 -34 56 5 19 7 19 24 3 11 -9 19 -25 19 -35z m880 1 c0 -5 -2 -10 -4
-10 -3 0 -8 5 -11 10 -3 6 -1 10 4 10 6 0 11 -4 11 -10z m-633 -156 c-3 -3
-12 -4 -19 -1 -8 3 -5 6 6 6 11 1 17 -2 13 -5z m-215 -57 c14 -32 14 -37 3
-22 -9 11 -22 28 -30 38 -18 21 -19 27 -2 27 6 0 20 -19 29 -43z"/>
<path d="M2315 118 c-16 -47 -13 -69 11 -80 28 -13 44 0 44 35 0 43 -43 78
-55 45z"/>
</g>
</svg>
