<?xml version="1.0" standalone="no"?>
<!DOCTYPE svg PUBLIC "-//W3C//DTD SVG 20010904//EN"
 "http://www.w3.org/TR/2001/REC-SVG-20010904/DTD/svg10.dtd">
<svg version="1.0" xmlns="http://www.w3.org/2000/svg"
 width="300.000000pt" height="184.000000pt" viewBox="0 0 300.000000 184.000000"
 preserveAspectRatio="xMidYMid meet">
<metadata>
Created by potrace 1.10, written by Peter Selinger 2001-2011
</metadata>
<g transform="translate(0.000000,184.000000) scale(0.100000,-0.100000)"
fill="#000000" stroke="none">
<path d="M40 1707 c-40 -231 -40 -240 -8 -308 27 -56 34 -116 15 -130 -8 -6
59 -99 73 -99 9 0 90 -135 90 -150 0 -24 37 -80 53 -80 9 0 17 -7 17 -15 0
-15 16 -20 52 -17 22 2 23 -11 3 -28 -8 -7 -15 -20 -15 -29 0 -9 -7 -29 -15
-45 -8 -15 -12 -32 -9 -37 3 -5 -2 -9 -11 -9 -13 0 -15 -7 -11 -30 3 -16 9
-44 12 -60 4 -23 2 -30 -10 -30 -19 0 -35 -28 -29 -51 3 -11 0 -19 -6 -19 -6
0 -11 -11 -11 -25 0 -14 5 -25 10 -25 6 0 22 -12 35 -27 22 -27 24 -27 42 -10
11 9 24 17 30 17 5 0 18 9 28 20 14 16 21 17 32 8 8 -6 12 -20 10 -30 -3 -10
-1 -18 4 -18 5 0 9 -18 9 -39 0 -24 12 -61 30 -96 24 -46 28 -60 18 -72 -17
-21 19 -86 44 -80 25 7 39 -15 44 -74 3 -35 12 -61 28 -79 24 -29 38 -28 49 4
6 14 13 17 32 12 14 -3 37 -9 52 -12 19 -5 30 -2 39 10 10 15 16 16 34 6 13
-7 35 -9 51 -6 18 3 29 1 29 -5 0 -7 12 -9 34 -5 18 4 45 2 60 -4 24 -9 26 -8
21 13 -3 12 1 31 9 42 14 19 15 19 31 -18 16 -39 48 -77 64 -77 5 0 12 43 16
95 l7 96 42 -6 c313 -41 1236 -117 1599 -131 l177 -7 0 41 c0 23 9 243 21 489
17 382 37 943 34 950 -1 2 -127 10 -281 18 -773 42 -1343 101 -2211 229 -202
30 -384 56 -404 58 l-37 4 -22 -129z m655 8 c726 -105 1188 -152 1915 -195
184 -11 341 -20 348 -20 10 0 12 -18 8 -77 -3 -43 -8 -150 -11 -238 -6 -173
-8 -230 -30 -703 -8 -173 -15 -334 -15 -359 l0 -46 -147 7 c-364 17 -949 64
-1404 112 -138 14 -252 24 -255 21 -9 -8 -24 -148 -18 -158 3 -5 1 -9 -4 -9
-6 0 -13 12 -17 27 -3 16 -15 38 -26 49 -17 18 -24 20 -45 10 -13 -6 -24 -19
-24 -28 0 -9 -4 -19 -9 -22 -16 -10 -119 -5 -164 8 -21 6 -33 4 -47 -9 -14
-13 -23 -14 -39 -6 -29 16 -67 13 -85 -5 -19 -19 -24 -10 -30 59 -4 51 -39
102 -62 93 -21 -8 -33 14 -22 40 9 19 5 33 -19 81 -18 35 -32 81 -36 115 -8
86 -53 134 -87 93 -7 -8 -25 -21 -42 -29 -26 -14 -31 -13 -48 4 -16 16 -17 20
-4 30 9 8 11 18 5 28 -7 12 -3 19 12 27 19 10 22 18 19 64 -1 29 1 58 6 64 5
7 12 25 16 42 4 16 16 48 27 72 31 68 28 75 -31 77 -15 1 -24 6 -22 14 1 7 -6
16 -15 19 -28 11 -53 46 -47 66 3 9 1 17 -4 17 -6 0 -27 30 -48 68 -20 37 -42
69 -47 71 -19 7 -57 53 -51 62 3 5 0 17 -5 27 -6 11 -6 23 -1 28 10 11 -15 89
-41 126 -19 27 -19 29 1 150 11 68 25 146 31 173 l10 51 147 -23 c81 -13 287
-43 457 -68z"/>
</g>
</svg>
