<?xml version="1.0" standalone="no"?>
<!DOCTYPE svg PUBLIC "-//W3C//DTD SVG 20010904//EN"
 "http://www.w3.org/TR/2001/REC-SVG-20010904/DTD/svg10.dtd">
<svg version="1.0" xmlns="http://www.w3.org/2000/svg"
 width="300.000000pt" height="143.000000pt" viewBox="0 0 300.000000 143.000000"
 preserveAspectRatio="xMidYMid meet">
<metadata>
Created by potrace 1.10, written by Peter Selinger 2001-2011
</metadata>
<g transform="translate(0.000000,143.000000) scale(0.100000,-0.100000)"
fill="#000000" stroke="none">
<path d="M40 1359 c0 -35 -5 -143 -10 -239 -5 -96 -12 -279 -16 -406 l-7 -231
84 -2 c46 -1 191 -6 322 -11 131 -6 243 -8 249 -4 8 5 9 -60 3 -225 l-7 -231
873 0 c481 1 971 5 1089 10 118 5 250 10 293 11 43 1 79 5 82 9 2 4 -5 16 -15
28 -11 12 -20 28 -20 35 0 8 -7 20 -15 27 -8 7 -15 18 -15 24 0 7 -13 22 -30
34 -23 18 -30 30 -30 58 0 24 -8 43 -25 60 -14 14 -25 29 -25 33 0 5 -6 14
-14 20 -10 8 -13 23 -9 47 4 25 2 34 -8 34 -12 0 -12 2 0 9 11 7 11 15 2 41
-14 43 -14 83 1 98 9 9 7 12 -12 12 -19 0 -21 3 -12 12 17 17 15 38 -3 38 -10
0 -15 10 -15 29 0 17 -5 33 -11 37 -6 3 -9 17 -6 30 4 25 -7 32 -19 13 -13
-21 -23 14 -17 61 4 35 1 49 -11 59 -10 9 -14 22 -10 37 6 24 -14 54 -35 54
-6 0 -11 6 -11 14 0 7 -7 19 -15 26 -9 7 -13 20 -11 27 3 8 -1 28 -10 45 -8
16 -13 36 -10 45 9 22 -12 53 -35 53 -31 0 -59 18 -69 45 -5 13 -26 31 -47 40
-21 9 -46 21 -55 26 -10 5 -24 9 -32 9 -7 0 -24 9 -38 19 -21 17 -37 19 -132
16 -95 -4 -110 -7 -123 -24 -13 -20 -15 -20 -81 16 -37 20 -74 43 -84 50 -13
12 -124 15 -648 19 -348 2 -635 6 -639 8 -3 2 -131 7 -283 11 l-278 8 0 -64z
m551 11 c152 -5 500 -10 775 -10 408 0 500 -3 506 -14 4 -7 22 -19 40 -27 18
-7 50 -23 70 -36 47 -29 73 -29 92 -2 9 14 22 20 33 17 10 -3 49 -1 87 3 61 8
71 6 94 -11 13 -11 33 -20 44 -20 10 0 21 -6 24 -14 3 -8 15 -11 30 -8 17 3
24 0 24 -12 0 -9 8 -16 19 -16 11 0 23 -9 26 -20 8 -24 45 -50 73 -53 15 -1
20 -8 20 -27 -1 -14 4 -35 11 -47 6 -12 11 -30 11 -41 0 -11 6 -25 14 -32 8
-6 12 -18 9 -26 -3 -9 6 -25 23 -39 15 -13 25 -27 21 -31 -4 -4 3 -23 15 -42
20 -32 20 -35 4 -44 -13 -7 -15 -13 -6 -23 7 -8 9 -19 5 -24 -6 -11 4 -27 44
-67 17 -17 22 -30 17 -49 -4 -15 -2 -25 4 -25 6 0 9 -4 5 -10 -3 -5 2 -26 11
-47 10 -23 17 -74 19 -127 3 -62 8 -93 19 -105 9 -10 16 -25 16 -33 0 -9 7
-21 15 -28 8 -7 12 -17 9 -22 -3 -5 2 -15 12 -23 16 -11 17 -16 6 -40 -12 -26
-12 -27 13 -21 18 5 25 2 25 -9 0 -8 6 -15 13 -15 12 0 37 -44 37 -66 0 -28
-393 -40 -1412 -42 l-817 -1 4 82 c3 45 7 148 9 228 l5 145 -331 12 c-182 6
-333 14 -336 17 -3 2 0 118 7 257 7 139 14 323 17 408 7 224 -7 202 132 195
64 -3 241 -10 393 -15z"/>
<path d="M271 814 c0 -11 3 -14 6 -6 3 7 2 16 -1 19 -3 4 -6 -2 -5 -13z"/>
</g>
</svg>
