<?xml version="1.0" standalone="no"?>
<!DOCTYPE svg PUBLIC "-//W3C//DTD SVG 20010904//EN"
 "http://www.w3.org/TR/2001/REC-SVG-20010904/DTD/svg10.dtd">
<svg version="1.0" xmlns="http://www.w3.org/2000/svg"
 width="300.000000pt" height="229.000000pt" viewBox="0 0 300.000000 229.000000"
 preserveAspectRatio="xMidYMid meet">
<metadata>
Created by potrace 1.10, written by Peter Selinger 2001-2011
</metadata>
<g transform="translate(0.000000,229.000000) scale(0.100000,-0.100000)"
fill="#000000" stroke="none">
<path d="M1824 2275 c-16 -5 -33 -14 -39 -18 -5 -4 -29 -18 -52 -30 -55 -29
-218 -182 -238 -222 -10 -23 -31 -40 -69 -58 -30 -15 -60 -35 -66 -47 -6 -11
-19 -20 -29 -20 -18 0 -30 -21 -46 -78 -5 -18 -2 -25 14 -29 32 -8 27 -39 -6
-38 -18 0 -29 -6 -31 -17 -2 -11 3 -18 11 -18 29 0 65 -40 72 -80 10 -57 0
-81 -34 -78 -27 2 -131 -55 -131 -72 0 -4 -16 -15 -36 -25 -27 -12 -66 -18
-143 -19 -58 -1 -113 -5 -122 -9 -11 -6 -27 1 -49 19 -66 56 -289 71 -445 30
l-90 -23 -1 -39 c-1 -22 -5 -47 -9 -56 -5 -12 -2 -20 8 -24 9 -3 13 -12 10
-21 -4 -9 3 -22 15 -32 12 -9 26 -30 31 -48 8 -28 6 -34 -15 -47 -13 -9 -28
-16 -33 -16 -5 0 -18 -14 -28 -31 -11 -19 -40 -42 -75 -60 -32 -16 -58 -33
-58 -37 0 -4 -29 -24 -65 -43 l-65 -34 -1 -67 c-1 -38 -2 -74 -3 -80 -1 -15
79 -21 530 -37 170 -6 363 -13 429 -16 66 -3 249 -5 406 -5 l287 0 16 -35 c9
-19 21 -36 26 -36 6 -1 15 -3 20 -4 6 -1 15 -3 21 -4 6 0 9 -7 6 -15 -3 -7 -1
-18 4 -23 6 -6 11 -26 11 -44 1 -42 33 -109 53 -109 8 0 15 -4 15 -10 0 -5 10
-10 22 -10 12 0 33 -10 47 -23 28 -25 138 -94 238 -148 35 -19 63 -38 63 -44
0 -5 -12 -40 -27 -77 -22 -57 -30 -68 -50 -68 -14 0 -26 -7 -29 -17 -3 -10
-10 -26 -15 -35 -19 -36 -11 -51 23 -44 17 3 39 13 47 20 12 11 21 12 34 4 12
-6 28 -6 49 1 17 6 52 11 77 11 25 0 62 5 81 10 19 6 53 13 76 15 22 2 72 18
110 35 38 17 96 42 129 54 96 37 286 136 292 153 5 14 -11 32 -30 33 -4 0 -15
-9 -25 -20 l-17 -21 -5 23 c-8 30 -40 36 -47 9 -6 -22 -18 -27 -28 -12 -3 5 7
19 22 30 35 29 19 48 -23 26 -16 -8 -35 -15 -41 -15 -7 0 -13 -4 -13 -8 0 -12
-83 -68 -111 -75 -14 -4 -59 -7 -100 -8 -63 -1 -77 -4 -92 -22 -10 -12 -15
-16 -11 -8 5 11 1 12 -19 7 -14 -3 -29 -2 -32 4 -8 13 -50 3 -93 -21 -44 -25
-50 -24 -22 6 22 23 22 26 7 49 -16 24 -16 25 28 51 50 29 51 31 29 63 -11 16
-14 34 -10 60 3 20 8 115 11 209 4 156 8 185 40 305 34 131 35 136 36 353 2
235 -5 281 -43 272 -21 -6 -22 -3 -7 21 8 12 7 40 -4 101 -14 82 -11 126 11
154 5 7 12 41 15 77 5 52 2 72 -12 99 -14 27 -16 43 -9 79 5 28 4 50 -1 55 -7
7 -6 17 0 29 6 11 8 31 4 46 l-5 27 -273 0 c-156 0 -286 -4 -303 -10z m550
-115 c-4 -77 -2 -104 10 -122 16 -25 15 -122 -2 -154 -15 -29 -31 -92 -24 -98
5 -6 11 -38 15 -88 1 -15 5 -30 9 -33 3 -4 0 -22 -8 -40 -8 -19 -14 -43 -14
-54 0 -23 29 -36 36 -16 5 13 8 12 21 -1 13 -13 15 -46 10 -233 -5 -209 -7
-225 -40 -353 -33 -125 -35 -146 -42 -345 -4 -132 -2 -219 4 -231 8 -15 2 -22
-35 -46 -24 -15 -44 -30 -44 -32 0 -3 7 -16 16 -29 16 -24 15 -26 -19 -59
l-35 -34 24 -36 c28 -41 39 -46 31 -15 -4 16 -3 19 5 11 17 -17 35 -3 31 22
-6 30 13 43 22 16 5 -16 10 -18 20 -10 10 8 16 7 25 -7 10 -15 10 -14 5 10 -5
24 -2 27 22 28 16 1 36 0 46 -1 10 -1 29 6 42 14 15 10 47 16 82 16 82 1 126
13 172 49 l40 32 30 -22 c16 -12 34 -19 39 -15 6 3 13 2 17 -4 6 -9 -123 -79
-175 -95 -14 -4 -65 -25 -113 -47 -89 -40 -152 -55 -282 -67 -38 -3 -74 -9
-80 -12 -5 -4 -19 -3 -30 1 -26 10 -25 47 3 123 12 32 22 63 22 70 0 7 -55 44
-122 82 -170 98 -201 121 -193 146 6 18 5 19 -14 10 -13 -8 -21 -8 -21 -2 0 6
-6 8 -12 6 -18 -7 -68 38 -73 65 -8 43 -8 106 0 120 5 9 4 11 -4 6 -6 -4 -23
0 -37 9 -13 9 -29 13 -34 10 -6 -3 -10 0 -10 7 -1 7 -9 22 -18 34 -17 20 -29
21 -342 28 -415 8 -883 24 -1120 36 -102 6 -188 10 -192 10 -5 0 -8 26 -8 58
l0 57 47 25 c26 14 61 36 78 50 38 32 71 50 90 50 8 0 26 17 40 38 14 21 42
46 61 56 36 17 37 18 30 64 -4 30 -14 53 -27 64 -12 11 -19 24 -15 33 3 9 0
18 -7 21 -8 3 -11 18 -9 44 4 34 8 40 36 49 72 24 136 33 221 32 127 -2 202
-18 248 -54 33 -25 41 -28 65 -18 26 10 136 18 157 11 30 -11 155 30 155 50 0
19 88 68 112 63 39 -7 58 20 58 83 0 31 -4 63 -10 73 -7 15 -4 20 15 29 14 7
25 19 25 27 0 9 4 14 9 11 10 -7 25 24 16 33 -3 3 -15 0 -25 -7 -20 -12 -46
-7 -68 15 -11 11 -11 13 2 13 9 0 25 -6 36 -12 15 -10 22 -10 32 0 17 17 -5
32 -49 32 -18 0 -33 4 -33 9 0 21 13 41 28 41 8 0 30 16 49 35 19 19 41 35 50
35 20 0 73 48 73 66 0 18 182 186 227 209 21 10 45 24 53 31 23 18 35 19 317
21 l261 2 -4 -99z m-999 -429 c3 -6 -4 -9 -15 -8 -11 1 -20 5 -20 9 0 11 28
10 35 -1z m1535 -1446 c0 -5 -5 -3 -10 5 -5 8 -10 20 -10 25 0 6 5 3 10 -5 5
-8 10 -19 10 -25z m-625 -94 c3 -5 1 -12 -5 -16 -5 -3 -10 1 -10 9 0 18 6 21
15 7z m-155 -146 c-13 -14 -28 -25 -32 -25 -5 0 -2 7 6 16 9 8 16 20 16 25 0
5 8 9 17 9 14 0 12 -4 -7 -25z"/>
<path d="M2928 429 c-10 -5 -18 -17 -18 -24 0 -19 29 -19 53 -1 36 28 6 49
-35 25z"/>
</g>
</svg>
