<?xml version="1.0" standalone="no"?>
<!DOCTYPE svg PUBLIC "-//W3C//DTD SVG 20010904//EN"
 "http://www.w3.org/TR/2001/REC-SVG-20010904/DTD/svg10.dtd">
<svg version="1.0" xmlns="http://www.w3.org/2000/svg"
 width="300.000000pt" height="336.000000pt" viewBox="0 0 300.000000 336.000000"
 preserveAspectRatio="xMidYMid meet">
<metadata>
Created by potrace 1.10, written by Peter Selinger 2001-2011
</metadata>
<g transform="translate(0.000000,336.000000) scale(0.050000,-0.050000)"
fill="#000000" stroke="none">
<path d="M219 6617 c0 -114 -8 -353 -39 -1137 -10 -269 -19 -589 -20 -710 0
-121 -9 -404 -20 -630 -10 -225 -24 -612 -30 -860 -6 -247 -19 -661 -29 -920
-10 -258 -20 -573 -21 -700 -1 -126 -9 -405 -16 -620 -8 -214 -14 -529 -14
-700 l0 -310 453 -7 452 -7 33 47 c24 35 32 94 32 246 l0 201 745 -5 c410 -2
792 -7 850 -11 127 -9 130 8 24 116 -144 146 -216 135 861 130 633 -2 2142 30
2375 52 l124 11 -11 593 c-6 327 -15 600 -20 607 -4 7 -8 286 -8 620 -1 334
-9 819 -20 1077 -10 259 -24 731 -31 1050 -7 319 -16 585 -19 591 -14 22 -14
655 0 782 8 73 8 238 0 367 l-14 235 -303 -13 c-1034 -45 -3894 -45 -5018 0
l-315 13 -1 -108z m1578 -75 c1045 -15 3384 3 3728 29 l194 15 -2 -508 c-1
-520 21 -1659 34 -1679 3 -6 8 -137 10 -290 1 -153 15 -792 30 -1419 15 -627
31 -1282 35 -1455 l7 -315 -201 0 c-612 0 -2594 -23 -2904 -33 l-362 -11 25
-119 24 -119 -582 11 c-321 7 -676 16 -791 22 l-207 11 9 -273 9 -273 -59 12
c-32 7 -188 12 -347 12 l-287 0 11 405 c6 223 23 743 38 1155 15 413 27 786
28 830 1 124 42 1375 73 2230 15 424 26 788 24 810 -2 22 4 255 14 518 l17
477 210 -14 c115 -8 665 -21 1222 -29z"/>
</g>
</svg>
