<?xml version="1.0" standalone="no"?>
<!DOCTYPE svg PUBLIC "-//W3C//DTD SVG 20010904//EN"
 "http://www.w3.org/TR/2001/REC-SVG-20010904/DTD/svg10.dtd">
<svg version="1.0" xmlns="http://www.w3.org/2000/svg"
 width="300.000000pt" height="566.000000pt" viewBox="0 0 300.000000 566.000000"
 preserveAspectRatio="xMidYMid meet">
<metadata>
Created by potrace 1.10, written by Peter Selinger 2001-2011
</metadata>
<g transform="translate(0.000000,566.000000) scale(0.100000,-0.100000)"
fill="#000000" stroke="none">
<path d="M1555 5650 c-11 -5 -32 -9 -47 -9 -16 -1 -33 -11 -45 -26 -10 -14
-28 -27 -41 -28 -13 -1 -22 -8 -22 -18 0 -10 -13 -28 -29 -41 -34 -27 -106
-167 -93 -180 13 -13 -72 -171 -102 -190 -6 -4 -22 -16 -36 -27 -14 -11 -37
-30 -52 -41 -16 -12 -28 -30 -28 -40 0 -10 -11 -31 -24 -47 -13 -15 -30 -42
-39 -59 -10 -20 -37 -42 -79 -64 -118 -62 -144 -92 -110 -126 9 -9 26 -37 37
-63 12 -25 29 -52 38 -60 10 -7 17 -20 17 -28 0 -8 10 -31 22 -52 18 -32 20
-42 10 -54 -7 -8 -22 -13 -32 -10 -25 7 -38 -22 -21 -48 9 -16 7 -25 -11 -51
-43 -59 -65 -76 -92 -71 -20 4 -33 -2 -56 -27 -32 -35 -36 -50 -19 -67 9 -9 6
-23 -11 -57 -24 -50 -21 -75 10 -83 19 -5 19 -6 -3 -34 -18 -25 -19 -33 -9
-49 15 -24 16 -47 2 -52 -14 -4 0 -107 17 -124 17 -16 59 -19 68 -4 14 22 65
10 103 -24 36 -33 38 -38 40 -101 1 -37 -2 -85 -7 -107 -12 -54 7 -107 49
-135 24 -17 37 -20 50 -13 48 26 91 -10 110 -91 13 -55 60 -119 88 -119 21 0
68 -58 81 -100 12 -39 28 -56 99 -98 21 -13 47 -40 57 -60 11 -21 32 -48 48
-62 31 -27 34 -57 7 -70 -8 -4 -30 -14 -48 -23 -23 -12 -46 -15 -73 -11 -36 6
-40 4 -51 -23 -21 -49 -100 -103 -150 -103 -26 0 -81 -33 -133 -80 -22 -19
-53 -41 -70 -48 -16 -7 -39 -27 -50 -45 -12 -19 -42 -42 -77 -59 -64 -31 -72
-46 -63 -121 8 -65 -8 -87 -63 -87 -24 0 -44 -8 -61 -24 -35 -32 -121 -57
-175 -50 -26 4 -52 1 -66 -6 -29 -15 -135 -101 -135 -109 0 -3 -21 -25 -46
-48 -29 -27 -51 -58 -59 -85 -8 -24 -27 -59 -42 -78 -15 -19 -28 -44 -28 -55
0 -26 -28 -67 -63 -95 -44 -35 -38 -81 18 -133 l45 -43 -25 -34 c-14 -19 -22
-37 -17 -42 4 -4 6 -26 4 -48 -4 -36 -7 -40 -32 -40 -36 0 -45 -37 -20 -83 15
-28 23 -32 52 -29 29 2 42 -4 79 -42 24 -24 59 -63 78 -85 18 -23 41 -40 50
-39 10 2 19 -8 26 -29 19 -57 76 -104 88 -70 7 22 34 -10 48 -58 16 -54 66
-98 81 -71 18 33 66 13 60 -25 -2 -11 11 -23 37 -35 31 -14 41 -25 41 -43 0
-20 2 -21 15 -11 25 20 43 -4 40 -53 -2 -36 2 -46 30 -69 29 -25 33 -26 53
-12 12 8 22 21 22 29 0 17 24 25 72 23 20 -1 44 4 51 11 23 18 32 -17 10 -41
-16 -18 -15 -19 63 -17 85 1 165 -24 183 -59 23 -45 22 -91 -4 -141 -14 -28
-25 -56 -25 -64 0 -7 -13 -31 -28 -53 -32 -45 -68 -147 -64 -182 2 -12 -1 -29
-7 -36 -12 -14 -4 -53 13 -59 21 -8 130 14 156 31 14 9 35 22 47 27 12 6 48
32 79 59 56 49 60 59 40 107 -5 11 -1 19 10 23 12 4 15 2 10 -9 -19 -51 51 22
110 115 30 45 34 58 25 77 -7 15 -7 23 -1 23 6 0 10 6 10 13 0 8 9 22 20 32
11 10 22 27 26 37 3 11 16 35 29 54 14 20 21 42 18 54 -4 15 0 20 14 20 21 0
53 29 53 47 0 20 42 64 76 78 19 8 34 20 34 28 0 16 123 111 163 126 14 6 44
22 67 36 30 19 40 31 35 44 -4 14 9 27 55 55 62 39 96 84 87 117 -4 14 0 19
14 19 12 0 23 10 29 26 13 34 13 34 -9 34 -10 0 -21 7 -25 15 -7 19 -82 21
-88 3 -6 -16 -57 41 -58 63 0 9 -3 19 -6 22 -10 10 -12 77 -2 71 4 -3 8 -12 8
-20 0 -9 11 -14 35 -14 19 0 35 5 35 11 0 8 4 8 14 0 8 -6 20 -10 27 -9 8 2
14 -6 15 -17 3 -51 4 -53 27 -47 48 12 61 62 23 87 -30 20 -65 70 -45 63 14
-5 49 32 49 50 0 16 48 24 71 11 19 -10 20 -8 14 11 -10 31 13 79 42 86 13 4
30 19 38 34 8 15 21 30 30 34 9 3 15 11 13 18 -3 17 24 58 38 58 17 0 26 29
15 47 -4 9 -6 24 -4 34 4 15 0 19 -22 19 -25 0 -27 3 -21 28 4 15 7 37 7 49
-1 12 4 25 9 28 6 3 10 15 10 25 0 10 7 23 16 28 12 7 13 11 5 17 -9 5 -6 11
8 22 12 8 21 21 21 28 0 8 18 24 40 35 l41 21 -3 -38 c-2 -28 1 -38 13 -41 22
-4 29 18 36 108 3 48 11 81 21 93 14 16 14 17 -8 15 -13 -2 -25 3 -27 12 -4
13 -3 13 5 1 8 -11 14 -2 25 40 9 30 18 77 21 105 4 28 13 77 21 108 8 31 15
73 15 93 l0 36 -49 -7 c-38 -5 -51 -3 -62 10 -13 16 -12 16 9 5 12 -6 27 -9
34 -5 6 4 22 7 36 8 24 1 26 6 39 81 7 44 20 101 28 127 8 26 15 55 15 66 0
11 7 37 16 58 9 22 21 71 26 109 5 39 12 87 15 108 6 45 -4 47 -43 7 -29 -29
-54 -39 -54 -20 0 6 5 10 10 10 12 0 59 50 60 62 0 4 -11 15 -25 24 -24 16
-27 15 -72 -14 -26 -17 -49 -29 -52 -26 -6 5 21 25 67 50 31 17 36 17 61 3 27
-16 27 -16 23 12 -6 40 -45 79 -79 79 -15 0 -42 8 -60 18 -126 69 -150 79
-168 70 -12 -7 -25 -6 -41 3 -22 11 -26 10 -40 -10 -14 -19 -18 -20 -33 -9 -9
8 -33 21 -53 30 -20 10 -42 27 -49 40 -12 22 -11 22 6 8 17 -14 18 -13 11 12
-4 17 -1 42 8 62 8 19 12 44 9 55 -4 16 3 25 31 42 20 11 36 26 36 32 1 7 5
43 9 80 9 69 26 96 62 97 9 0 24 17 35 38 25 49 64 102 75 102 16 0 10 -26
-11 -48 -12 -12 -27 -41 -35 -63 -15 -41 -15 -41 8 -35 12 3 34 6 49 6 20 0
26 4 22 15 -4 10 0 15 11 15 9 0 14 4 10 10 -5 8 28 50 40 50 3 0 18 14 34 30
20 22 30 45 35 82 5 33 25 84 56 142 73 136 135 315 153 439 6 36 4 39 -36 63
-164 96 -452 261 -557 319 -69 37 -179 103 -245 145 -128 82 -516 320 -552
339 -25 13 -21 12 -48 1z m218 -147 c106 -64 248 -153 317 -197 69 -45 181
-113 250 -151 69 -38 224 -126 345 -196 122 -70 233 -133 248 -140 32 -15 32
-12 3 -124 -29 -112 -94 -276 -141 -357 -20 -34 -41 -86 -46 -117 -9 -48 -17
-62 -55 -98 -25 -23 -45 -45 -45 -50 2 -12 -27 -43 -39 -43 -19 0 -10 22 20
48 48 42 34 114 -19 97 -23 -7 -76 -70 -90 -108 -6 -16 -25 -32 -45 -41 -39
-16 -52 -35 -60 -89 -3 -20 -8 -52 -11 -71 -4 -23 -13 -37 -25 -41 -25 -8 -53
-60 -46 -83 9 -29 -10 -47 -47 -44 -30 3 -42 -4 -83 -43 -55 -54 -52 -78 9
-83 29 -3 39 2 53 22 21 33 29 33 44 -3 7 -18 26 -35 51 -47 22 -9 45 -26 50
-36 11 -21 41 -23 72 -6 43 24 98 17 173 -23 39 -21 88 -41 109 -45 l37 -7
-31 -14 c-52 -26 -105 -77 -98 -96 9 -23 36 -33 56 -19 38 26 91 51 91 43 0
-5 -16 -16 -36 -26 -32 -15 -35 -19 -29 -48 10 -46 26 -60 56 -48 l25 9 -7
-62 c-3 -33 -14 -78 -23 -100 -9 -21 -16 -51 -16 -67 0 -28 -2 -29 -44 -29
-59 0 -77 -21 -49 -58 11 -15 29 -28 40 -30 18 -3 19 -9 15 -55 -2 -29 -5 -53
-6 -54 0 -1 -13 -4 -27 -8 -21 -5 -27 -2 -32 14 -6 24 -39 28 -57 6 -15 -18
-5 -68 19 -90 21 -18 46 -22 79 -11 17 6 22 3 22 -9 0 -11 -5 -15 -15 -11 -8
3 -28 -2 -45 -12 -24 -14 -33 -15 -50 -4 -11 6 -24 12 -29 12 -19 0 -42 -32
-36 -50 3 -10 1 -21 -5 -25 -7 -4 -9 -19 -5 -35 4 -16 2 -38 -4 -49 -14 -25
-4 -50 24 -61 17 -7 21 -14 18 -34 -6 -30 -19 -33 -44 -10 -13 11 -25 13 -50
6 -29 -7 -34 -13 -34 -38 0 -24 5 -30 27 -32 14 -2 32 -10 38 -18 7 -8 20 -14
30 -14 17 0 17 -2 -1 -37 -10 -21 -26 -41 -34 -46 -20 -11 -19 -44 2 -55 14
-8 13 -12 -10 -32 -14 -12 -28 -38 -32 -58 -4 -21 -11 -43 -17 -49 -6 -7 -8
-22 -5 -33 3 -11 1 -23 -4 -26 -14 -8 -11 -74 4 -80 18 -6 18 -70 1 -85 -8 -6
-14 -16 -14 -21 0 -18 -52 -73 -74 -78 -11 -3 -28 -21 -37 -39 -9 -20 -31 -42
-53 -53 -20 -10 -41 -29 -46 -42 -4 -13 -18 -26 -29 -29 -24 -6 -29 -45 -9
-65 7 -7 8 -12 2 -12 -6 0 -15 5 -22 12 -8 8 -15 8 -27 -2 -13 -11 -19 -10
-38 9 -26 24 -50 27 -65 8 -8 -9 -8 -32 -1 -77 12 -76 13 -86 11 -123 -2 -25
-4 -26 -22 -15 -18 11 -23 9 -45 -17 -13 -17 -24 -39 -25 -50 0 -11 -10 -26
-21 -33 -18 -11 -21 -21 -17 -56 5 -40 4 -42 -17 -38 -27 5 -65 -29 -65 -58 0
-13 -7 -20 -20 -20 -24 0 -54 -43 -46 -67 5 -15 0 -18 -33 -17 -21 1 -42 4
-47 6 -18 11 -69 6 -85 -9 -16 -14 -19 -59 -5 -81 4 -7 18 -12 32 -12 21 0 24
-3 18 -27 -5 -19 -2 -30 10 -39 14 -10 15 -16 6 -33 -6 -12 -15 -19 -19 -16
-5 2 -21 -5 -36 -17 -21 -17 -26 -27 -21 -49 3 -16 1 -31 -5 -35 -6 -3 -18
-22 -26 -41 -10 -24 -19 -33 -29 -29 -17 7 -54 -10 -54 -24 0 -18 -51 -60 -73
-60 -13 0 -28 -5 -35 -12 -18 -18 -14 -65 7 -85 19 -18 19 -19 -10 -62 -27
-38 -29 -47 -19 -74 9 -27 7 -34 -10 -52 -19 -18 -22 -19 -31 -3 -15 27 -82
21 -108 -8 -12 -13 -21 -29 -21 -34 0 -6 -9 -19 -20 -30 -12 -12 -18 -25 -15
-29 5 -8 -26 -21 -53 -21 -10 0 -10 5 -2 21 7 11 9 32 5 46 -3 14 -2 30 3 36
5 7 15 30 22 52 7 22 24 54 37 71 12 17 23 36 23 43 0 7 14 42 30 78 24 52 29
72 24 106 -9 57 -40 106 -72 114 -15 3 -36 12 -47 19 -11 8 -45 14 -77 14 -49
0 -58 3 -58 18 0 10 -5 23 -12 30 -15 15 -64 16 -73 2 -4 -6 -23 -7 -45 -4
-35 6 -43 3 -70 -24 -34 -34 -40 -30 -45 31 -2 18 -3 35 -4 39 -2 14 -46 49
-87 69 -27 13 -41 25 -38 34 3 7 -7 25 -23 40 -24 22 -35 26 -71 22 -34 -4
-45 -1 -48 12 -3 9 -10 24 -15 33 -5 10 -9 24 -9 32 0 22 -28 39 -67 40 -34 1
-37 4 -53 51 -14 42 -21 50 -42 50 -31 1 -54 19 -74 57 -21 41 -113 111 -138
104 -23 -6 -46 9 -46 30 0 8 9 14 19 14 43 0 51 10 51 66 0 29 7 69 16 88 22
45 13 78 -31 107 -19 13 -36 31 -38 39 -2 8 16 37 40 65 24 27 46 64 49 81 3
18 17 42 30 55 13 12 24 32 24 43 0 36 43 98 90 131 25 17 45 36 45 42 0 6 23
30 50 53 47 39 53 41 98 36 56 -6 148 19 198 55 21 14 44 22 61 20 21 -2 36 6
59 30 28 30 30 37 27 97 -3 72 -9 64 76 103 16 8 40 31 53 51 13 21 30 38 38
38 8 0 36 19 62 43 54 47 91 66 176 93 41 12 68 29 92 56 19 21 35 42 35 47 0
5 17 7 38 4 27 -4 42 -1 51 11 7 9 24 16 36 16 27 0 75 52 75 82 0 11 -17 40
-37 63 -21 23 -46 55 -55 73 -10 18 -39 44 -72 62 -41 24 -58 40 -66 65 -17
52 -66 113 -104 129 -40 16 -66 51 -66 86 0 38 -41 101 -79 124 -27 15 -39 17
-61 9 -22 -8 -32 -7 -50 7 -20 15 -23 25 -21 66 2 27 3 87 3 133 l0 83 -43 44
c-51 52 -98 66 -141 41 -15 -9 -29 -13 -32 -9 -8 13 -10 77 -3 98 4 12 3 33
-3 48 -8 22 -6 30 11 47 30 30 21 51 -29 76 -2 0 6 20 18 43 17 33 20 48 12
64 -14 31 14 62 50 58 20 -2 37 6 63 31 19 19 35 39 35 44 0 6 7 16 15 23 8 7
15 25 15 41 0 18 5 29 13 29 8 0 22 15 32 34 l19 34 -34 69 c-18 37 -36 70
-40 73 -4 3 -21 31 -39 64 -38 70 -35 74 56 117 61 30 113 77 113 105 0 7 13
20 29 29 40 20 74 64 61 80 -7 8 5 23 41 50 27 21 57 52 66 69 9 17 19 33 23
36 18 12 60 113 58 139 -1 17 5 38 14 48 8 10 19 29 23 43 6 23 100 120 116
120 4 0 10 8 13 18 4 11 23 22 49 29 23 5 43 11 45 12 2 0 89 -51 195 -116z
m-669 -452 c3 -4 -3 -16 -14 -26 -12 -10 -20 -13 -20 -7 0 7 5 12 11 12 6 0 9
7 5 15 -6 16 9 21 18 6z m1223 -1399 c0 -8 -6 -10 -16 -6 -9 4 -26 7 -38 7
-13 -1 -21 3 -18 7 8 14 72 6 72 -8z m-90 -39 c-9 -9 -20 -14 -24 -10 -3 4 2
14 13 21 25 19 33 10 11 -11z m623 -363 c0 -5 -4 -10 -10 -10 -5 0 -10 5 -10
10 0 6 5 10 10 10 6 0 10 -4 10 -10z m-85 -330 c-3 -5 -12 -10 -20 -10 -8 0
-17 5 -20 10 -4 6 5 10 20 10 15 0 24 -4 20 -10z m-110 -160 c3 -5 1 -10 -4
-10 -6 0 -11 5 -11 10 0 6 2 10 4 10 3 0 8 -4 11 -10z m-42 -148 c-2 -8 5 -9
21 -2 16 6 29 5 41 -4 15 -11 15 -13 -2 -35 -15 -19 -22 -21 -44 -12 -19 7
-30 6 -39 -2 -10 -10 -11 -7 -6 13 3 14 6 33 6 43 0 11 5 17 13 14 6 -2 11 -9
10 -15z m101 -31 c-2 -27 -7 -58 -12 -68 -5 -10 -13 -36 -17 -58 -4 -22 -11
-45 -17 -52 -5 -7 -7 -17 -3 -23 4 -6 1 -49 -6 -95 -13 -88 -18 -94 -74 -95
-15 0 -16 3 -7 12 7 7 12 22 12 35 0 13 17 42 38 64 l37 42 -53 -5 c-29 -3
-55 -1 -58 3 -3 5 -19 13 -37 18 -31 9 -31 9 -5 10 15 1 30 -4 33 -9 4 -6 22
-9 41 -8 31 2 35 6 45 41 7 26 7 43 1 49 -6 6 -8 17 -5 25 4 11 0 13 -21 7
-16 -4 -26 -2 -26 5 0 6 11 11 24 11 13 0 29 7 36 15 7 8 18 15 25 15 15 0 37
50 35 76 -3 26 -1 34 8 34 4 0 7 -22 6 -49z m-90 -37 c23 -9 20 -23 -4 -17
-11 3 -20 9 -20 14 0 11 3 11 24 3z m-58 -371 c-10 -11 -19 -7 -22 10 -2 15 0
16 12 6 8 -6 12 -14 10 -16z m-46 -333 c0 -5 -2 -10 -4 -10 -3 0 -8 5 -11 10
-3 6 -1 10 4 10 6 0 11 -4 11 -10z m-250 -437 c0 -24 -15 -13 -32 23 l-16 36
24 -23 c13 -12 24 -28 24 -36z m-144 -121 c13 -8 34 -46 34 -61 0 -6 -9 -19
-21 -30 -11 -10 -21 -25 -23 -32 -1 -8 -6 -22 -12 -32 -16 -28 -41 -10 -54 40
-10 42 -12 44 -24 27 -7 -10 -17 -32 -23 -48 -5 -17 -15 -32 -21 -34 -17 -5
-15 23 3 38 8 7 15 19 15 27 0 8 9 26 19 40 l20 24 16 -30 c9 -18 23 -31 34
-31 23 0 32 19 19 43 -5 11 -5 17 2 17 15 0 12 16 -6 34 -11 12 -12 16 -2 16
7 0 18 -4 24 -8z m-43 -37 c-7 -21 -13 -19 -13 6 0 11 4 18 10 14 5 -3 7 -12
3 -20z m147 16 c0 -5 -7 -12 -16 -15 -11 -4 -15 -14 -12 -31 5 -25 -23 -80
-35 -69 -3 4 0 16 8 28 8 11 15 37 15 58 0 31 4 38 20 38 11 0 20 -4 20 -9z
m-80 -135 c0 -7 -12 -21 -26 -31 l-26 -17 23 31 c26 35 29 37 29 17z m-96 -22
c9 -24 7 -28 -9 -14 -17 14 -20 30 -6 30 5 0 12 -7 15 -16z m-26 -54 l23 -29
-40 -21 c-22 -11 -42 -20 -43 -20 -2 0 -3 20 -3 45 0 41 5 50 35 53 3 1 15
-12 28 -28z m-88 -13 c0 -12 -33 -67 -40 -67 -5 0 -21 -27 -36 -60 -21 -47
-30 -58 -40 -49 -9 7 -21 6 -43 -5 -16 -9 -37 -13 -45 -10 -12 5 -16 0 -16
-19 0 -14 -5 -29 -11 -33 -8 -4 -9 3 -4 25 6 29 5 31 -23 31 -20 0 -31 6 -34
18 -5 16 2 18 78 16 90 -3 106 5 102 47 -2 19 1 23 18 21 18 -2 24 5 35 43 11
36 18 45 36 45 13 0 23 -2 23 -3z m10 -77 c0 -5 -9 -14 -20 -20 -22 -12 -27
-1 -8 18 14 14 28 16 28 2z m-159 -138 c-8 -2 -31 -20 -51 -38 -34 -30 -50
-35 -50 -13 0 5 6 6 14 3 8 -3 19 3 25 15 11 20 62 51 71 43 3 -3 -1 -7 -9
-10z m-251 -327 c0 -9 -9 -15 -22 -15 -22 1 -23 1 -4 15 25 19 26 19 26 0z
m-19 -88 c-5 -5 -12 -4 -15 2 -4 6 -12 11 -18 11 -7 0 -7 -5 1 -14 12 -14 5
-46 -10 -46 -4 0 -6 7 -2 16 3 8 0 27 -8 40 -19 36 6 51 33 21 19 -22 19 -22
9 -1 -6 12 -7 24 -3 28 3 4 10 -5 14 -21 4 -15 4 -31 -1 -36z m-72 -25 c-1
-15 2 -35 6 -44 4 -11 3 -18 -3 -18 -6 0 -14 16 -18 35 -3 19 -11 33 -16 32
-6 -1 -12 3 -15 10 -4 11 25 23 40 16 4 -3 7 -16 6 -31z m11 -82 c-20 -29 -39
-37 -53 -24 -13 14 13 42 33 37 16 -4 23 0 27 18 4 13 8 18 11 11 2 -6 -6 -25
-18 -42z m-170 -170 c0 -5 -6 -10 -14 -10 -8 0 -18 5 -21 10 -3 6 3 10 14 10
12 0 21 -4 21 -10z m-40 -15 c7 -8 20 -15 29 -16 10 0 8 -4 -7 -10 -13 -5 -36
-18 -50 -29 -36 -29 -48 -11 -22 34 24 40 32 43 50 21z"/>
<path d="M2784 3594 c4 -11 10 -32 13 -47 4 -18 10 -26 19 -23 9 3 14 -2 14
-14 0 -27 21 -70 31 -64 14 8 11 61 -5 99 -16 37 -86 85 -72 49z"/>
<path d="M2651 2075 c-14 -33 -6 -119 9 -110 15 9 22 69 12 106 l-9 34 -12
-30z"/>
<path d="M2593 1883 c-27 -5 -27 -2 -8 -46 l15 -36 -45 -37 c-49 -42 -58 -59
-84 -165 -11 -41 -19 -63 -20 -50 -1 20 -3 22 -17 10 -18 -15 -76 -103 -88
-134 -5 -11 -9 -33 -11 -50 -1 -16 -5 -40 -9 -52 -16 -49 5 -19 42 60 21 45
52 98 69 117 51 60 191 340 193 388 0 2 -1 2 -37 -5z"/>
</g>
</svg>
