<?xml version="1.0" standalone="no"?>
<!DOCTYPE svg PUBLIC "-//W3C//DTD SVG 20010904//EN"
 "http://www.w3.org/TR/2001/REC-SVG-20010904/DTD/svg10.dtd">
<svg version="1.0" xmlns="http://www.w3.org/2000/svg"
 width="300.000000pt" height="327.000000pt" viewBox="0 0 300.000000 327.000000"
 preserveAspectRatio="xMidYMid meet">
<metadata>
Created by potrace 1.10, written by Peter Selinger 2001-2011
</metadata>
<g transform="translate(0.000000,327.000000) scale(0.100000,-0.100000)"
fill="#000000" stroke="none">
<path d="M2905 3234 c-33 -13 -80 -31 -105 -39 -259 -80 -440 -170 -502 -249
-21 -27 -65 -67 -96 -90 -55 -40 -59 -41 -132 -39 -41 1 -95 3 -121 5 -35 2
-59 -4 -110 -29 -35 -18 -82 -35 -104 -39 -22 -4 -52 -13 -67 -20 -15 -8 -35
-14 -45 -14 -31 0 -103 34 -103 49 0 11 -10 12 -45 8 -25 -4 -47 -2 -50 3 -3
6 5 10 18 10 28 0 52 23 44 44 -3 8 -22 19 -41 26 -20 6 -36 16 -36 21 0 5
-10 9 -22 9 -21 0 -20 2 7 18 17 11 36 26 44 35 12 15 11 17 -3 17 -11 0 -16
9 -16 28 0 18 -10 38 -28 55 l-29 27 0 -62 c0 -82 -10 -159 -21 -170 -14 -14
-66 16 -92 52 -16 23 -29 30 -54 30 -19 0 -39 7 -47 16 -7 8 -29 24 -50 34
-20 11 -39 24 -41 30 -2 8 -11 8 -31 1 -35 -14 -61 5 -45 33 8 14 6 16 -14 12
-13 -3 -66 -10 -118 -15 -85 -9 -146 -13 -390 -26 -36 -1 -152 -3 -257 -4
l-193 -1 0 -1157 c0 -637 4 -1164 9 -1171 6 -10 10 -8 14 10 4 12 7 530 7
1149 l0 1127 248 6 c238 6 478 20 591 32 52 6 53 6 46 -16 -6 -19 -4 -22 11
-16 9 4 21 2 24 -5 5 -7 18 -8 44 -1 29 8 36 8 36 -4 0 -8 10 -14 22 -14 11 0
36 -11 54 -25 18 -14 44 -25 58 -25 17 0 38 -14 62 -40 25 -26 46 -40 63 -40
l26 -1 -25 -14 c-14 -8 -33 -14 -42 -15 -10 0 -18 -6 -18 -14 0 -17 24 -38 33
-29 4 3 7 -4 7 -16 0 -18 4 -22 18 -16 9 4 30 11 45 16 16 4 35 13 42 19 9 8
20 8 31 2 10 -6 29 -6 46 -2 16 5 28 5 28 -1 0 -12 106 -59 132 -59 10 0 38 9
60 20 23 11 57 20 75 20 18 0 50 11 71 24 60 40 113 51 166 36 76 -21 150 -6
227 46 36 25 81 66 101 92 58 77 190 142 508 249 41 14 87 31 102 39 15 8 28
14 30 14 2 0 2 -269 1 -597 -2 -548 -4 -599 -19 -610 -14 -10 -21 -10 -32 -1
-11 10 -18 7 -33 -12 -24 -32 -23 -45 6 -104 24 -50 21 -96 -6 -96 -8 0 -7 -6
3 -17 29 -34 30 -68 3 -93 -14 -13 -25 -33 -25 -45 0 -12 -7 -30 -15 -41 -8
-10 -15 -31 -15 -46 0 -15 -4 -30 -10 -33 -5 -3 -10 -30 -10 -60 0 -30 -4 -56
-10 -60 -5 -3 -7 -12 -3 -21 3 -8 2 -14 -3 -13 -27 5 -36 -2 -30 -25 4 -16 1
-26 -9 -30 -11 -4 -14 -13 -9 -31 5 -19 2 -25 -10 -25 -18 0 -21 -19 -5 -52
16 -36 -13 -94 -55 -112 -22 -9 -50 -37 -81 -80 -26 -36 -53 -66 -60 -66 -8 0
-22 -11 -33 -25 -11 -14 -24 -25 -29 -25 -4 0 -25 -9 -45 -19 l-36 -20 -13 32
c-7 18 -14 34 -15 36 -2 2 -28 -11 -59 -30 -47 -28 -56 -39 -61 -69 -6 -35 -6
-35 -50 -31 -40 3 -44 1 -44 -20 0 -12 -8 -31 -17 -42 -11 -12 -18 -35 -18
-61 0 -37 -2 -41 -22 -38 -28 4 -31 -26 -7 -63 18 -27 11 -65 -12 -65 -8 0
-14 -6 -14 -14 0 -8 -9 -24 -20 -37 -22 -27 -27 -19 -8 11 11 17 10 25 -2 47
-9 15 -25 32 -36 38 -11 6 -19 16 -16 23 3 10 -4 13 -24 10 -20 -2 -33 -12
-42 -30 -7 -16 -19 -28 -27 -28 -15 0 -35 -50 -35 -87 0 -15 -12 -35 -30 -51
-30 -27 -38 -50 -21 -68 5 -5 13 -37 17 -72 l7 -63 -25 6 c-34 9 -55 -15 -63
-68 -4 -24 -10 -48 -13 -54 -4 -5 -40 -16 -80 -25 l-73 -16 -14 34 c-8 19 -19
34 -25 34 -6 0 -15 11 -22 25 -7 16 -27 30 -59 40 -27 9 -52 21 -55 27 -3 5
-11 42 -18 82 l-11 73 -70 -22 c-55 -18 -78 -32 -107 -64 -30 -35 -41 -41 -62
-35 -16 4 -32 1 -41 -6 -13 -11 -20 -9 -38 7 -12 11 -40 26 -62 33 -22 7 -47
19 -56 26 -13 12 -22 12 -54 1 -21 -8 -44 -22 -49 -33 -6 -10 -12 -21 -13 -23
-1 -2 -16 2 -33 9 -21 9 -30 19 -30 36 0 19 -5 24 -25 24 -18 0 -25 5 -25 18
0 23 -64 45 -118 41 -21 -1 -61 3 -89 10 -51 12 -53 14 -53 46 0 33 -53 154
-74 167 -6 4 -21 8 -33 8 -26 0 -44 28 -37 57 5 18 2 20 -23 15 -15 -2 -34 -9
-41 -15 -7 -5 -15 -7 -19 -3 -3 3 -17 -1 -30 -9 -23 -15 -26 -14 -65 20 -23
19 -46 35 -51 35 -11 0 -67 -59 -67 -71 0 -11 30 0 52 19 16 13 21 11 53 -17
35 -31 78 -41 90 -20 4 5 12 8 18 6 7 -2 20 0 29 5 13 6 18 5 18 -5 0 -20 31
-45 60 -49 19 -2 32 -16 52 -58 16 -30 28 -67 28 -83 0 -15 4 -37 10 -47 13
-23 114 -54 153 -46 41 8 104 -12 110 -36 3 -11 15 -22 26 -25 12 -3 21 -12
21 -20 0 -17 85 -57 106 -49 8 3 18 16 23 29 10 24 56 42 67 26 3 -5 24 -14
47 -20 23 -6 57 -24 75 -41 31 -26 36 -28 51 -14 12 11 28 14 52 10 32 -5 37
-3 59 33 23 35 63 62 118 78 19 5 22 3 22 -22 0 -57 20 -103 53 -123 18 -11
38 -20 46 -20 18 0 78 -64 86 -91 10 -30 39 -36 114 -26 100 13 114 22 127 87
9 51 12 55 38 55 43 0 56 27 49 99 -3 34 -10 69 -15 79 -7 14 -4 23 15 37 17
13 27 34 31 64 4 28 17 54 34 73 25 26 29 27 55 15 25 -12 27 -17 21 -48 -12
-65 50 -92 79 -33 8 18 17 27 21 20 4 -6 19 -11 33 -11 23 0 24 3 17 28 -4 15
-7 40 -6 56 1 16 -4 36 -10 43 -8 10 -6 18 8 34 12 13 18 34 17 60 -2 29 3 41
18 49 10 6 19 19 19 28 0 15 7 17 36 14 41 -5 54 7 54 50 0 18 10 33 31 48 16
12 32 21 33 19 2 -2 9 -14 15 -27 13 -25 44 -28 81 -7 14 8 37 14 51 15 20 0
28 6 33 24 3 14 15 28 27 31 11 4 42 37 69 73 34 48 59 71 83 80 27 10 39 21
47 47 6 19 18 35 26 35 17 0 17 3 0 43 -11 28 -11 34 1 46 8 7 12 22 10 32 -3
12 0 19 10 19 11 0 14 7 9 26 -4 16 -3 23 3 20 20 -13 32 29 33 113 0 25 7 51
15 59 8 8 13 24 12 36 -2 11 2 31 9 43 7 12 12 30 12 41 0 10 10 27 21 38 30
26 37 52 28 94 -4 19 -4 53 1 74 7 30 5 42 -7 54 -15 15 -33 55 -33 73 0 5 11
9 24 9 13 0 33 8 45 18 21 17 21 18 24 645 2 552 0 627 -13 627 -8 -1 -42 -12
-75 -26z m-1495 -284 c0 -5 -5 -10 -11 -10 -5 0 -7 5 -4 10 3 6 8 10 11 10 2
0 4 -4 4 -10z m30 -119 c14 -6 18 -10 9 -10 -8 -1 -26 -12 -39 -26 -15 -16
-27 -21 -34 -16 -6 5 -19 10 -29 12 -15 4 -14 7 8 32 14 15 23 27 20 27 -3 0
-3 5 0 11 5 7 13 5 24 -5 9 -8 28 -19 41 -25z m-84 -66 c-11 -8 -29 -15 -40
-15 -27 0 -9 17 24 23 14 2 27 5 30 5 3 1 -4 -5 -14 -13z"/>
<path d="M1445 2910 c-22 -25 -11 -40 30 -43 25 -2 30 2 36 31 6 30 5 32 -21
32 -15 0 -35 -9 -45 -20z"/>
</g>
</svg>
