<?xml version="1.0" standalone="no"?>
<!DOCTYPE svg PUBLIC "-//W3C//DTD SVG 20010904//EN"
 "http://www.w3.org/TR/2001/REC-SVG-20010904/DTD/svg10.dtd">
<svg version="1.0" xmlns="http://www.w3.org/2000/svg"
 width="300.000000pt" height="224.000000pt" viewBox="0 0 300.000000 224.000000"
 preserveAspectRatio="xMidYMid meet">
<metadata>
Created by potrace 1.10, written by Peter Selinger 2001-2011
</metadata>
<g transform="translate(0.000000,224.000000) scale(0.100000,-0.100000)"
fill="#000000" stroke="none">
<path d="M268 2234 c-3 -3 3 -37 14 -75 15 -55 17 -73 8 -84 -8 -9 -13 -68
-15 -159 -2 -80 -8 -154 -14 -165 -7 -12 -7 -21 -1 -23 10 -3 -11 -163 -30
-223 -5 -16 -11 -66 -14 -110 -6 -103 -33 -323 -51 -428 -20 -112 -40 -177
-70 -221 -14 -20 -25 -48 -25 -62 0 -34 -28 -130 -51 -175 -15 -30 -16 -43 -8
-73 5 -20 13 -36 17 -36 4 0 13 -14 19 -31 9 -24 9 -42 1 -75 -9 -34 -9 -61 1
-121 24 -147 29 -150 296 -159 400 -13 1884 -8 2223 9 172 8 316 17 318 20 3
2 0 92 -5 198 -6 107 -13 259 -17 339 -3 80 -9 204 -13 275 -5 72 -4 132 0
135 4 3 9 19 11 35 2 17 7 33 12 36 4 4 3 17 -4 29 -9 16 -9 25 -1 33 6 6 11
19 11 29 0 19 -34 59 -54 62 -6 1 -17 5 -23 9 -7 5 -17 6 -22 2 -13 -8 -26 82
-13 98 5 6 17 37 27 67 10 30 26 61 37 68 27 19 58 86 58 125 0 18 7 42 15 53
8 10 15 26 15 35 0 20 46 161 67 206 14 30 13 36 -6 76 -16 33 -31 48 -63 62
-46 20 -63 36 -79 74 l-10 24 -132 -6 c-73 -4 -240 -10 -372 -13 -203 -5 -245
-9 -270 -24 -29 -17 -119 -33 -177 -32 -14 1 -32 -5 -38 -13 -6 -8 -37 -19
-68 -26 -31 -7 -79 -25 -107 -39 -68 -37 -110 -44 -140 -24 -23 15 -28 14 -79
-10 -30 -14 -70 -26 -88 -26 -19 0 -39 -5 -46 -12 -9 -9 -15 -8 -25 6 -11 15
-77 35 -122 37 -65 2 -128 -10 -149 -30 -12 -12 -46 -30 -74 -40 -45 -17 -55
-17 -89 -5 -21 7 -50 13 -64 14 -38 0 -56 27 -64 97 -4 35 -7 65 -6 68 2 19
-52 93 -87 118 -36 27 -46 29 -62 19 -32 -19 -70 -15 -70 7 0 11 -10 27 -22
35 -21 15 -24 14 -48 -9 -26 -25 -57 -35 -45 -15 4 7 -8 8 -34 4 -37 -6 -41
-4 -41 14 0 11 -7 23 -16 26 -19 7 -19 7 -26 0z m209 -50 c-12 -12 12 -42 39
-48 16 -4 35 -1 49 8 21 14 26 13 63 -15 46 -34 71 -93 76 -182 4 -62 25 -91
72 -100 16 -3 49 -10 73 -17 51 -13 123 6 169 44 53 45 223 41 261 -5 19 -23
20 -23 40 -5 13 12 28 16 44 12 15 -3 43 3 75 19 57 27 77 31 88 14 8 -13 102
-3 121 12 28 24 88 49 132 55 25 3 54 13 63 21 16 15 51 21 144 26 23 2 53 11
68 20 30 20 67 23 401 32 127 3 260 8 298 11 55 5 67 3 67 -9 0 -24 53 -74 93
-88 20 -7 37 -20 37 -28 0 -8 7 -22 16 -32 15 -16 15 -20 0 -41 -9 -12 -16
-28 -16 -36 0 -7 -9 -32 -19 -55 -11 -23 -22 -60 -26 -82 -4 -22 -17 -58 -28
-80 -11 -22 -20 -53 -19 -69 1 -36 -22 -82 -48 -96 -12 -6 -26 -33 -35 -65 -9
-30 -22 -61 -28 -67 -11 -11 -15 -64 -7 -85 4 -12 8 -26 9 -40 0 -7 12 -13 25
-13 14 0 28 -5 31 -10 4 -6 10 -8 14 -5 15 9 45 -33 34 -47 -6 -7 -11 -37 -11
-67 -1 -30 -6 -57 -12 -61 -7 -4 -3 -149 13 -476 13 -258 23 -470 23 -471 -3
-5 -465 -24 -823 -34 -378 -11 -769 -9 -1603 7 -351 7 -335 2 -363 115 -16 65
-17 82 -7 140 12 65 12 67 -17 121 l-30 54 20 40 c22 42 59 175 55 196 -2 9 5
12 22 10 20 -3 22 -2 12 11 -9 11 -9 20 2 43 40 78 91 384 111 659 2 33 13
103 25 155 11 52 21 127 22 166 1 63 3 71 18 67 10 -3 21 0 24 6 4 6 3 11 -2
11 -17 0 -24 32 -29 128 -3 64 -1 98 7 108 12 13 10 42 -6 94 l-7 25 20 -24
c18 -22 51 -23 38 0 -4 5 7 6 24 3 37 -8 84 3 76 16 -3 6 2 10 11 10 10 0 14
-3 11 -6z"/>
</g>
</svg>
