<?xml version="1.0" standalone="no"?>
<!DOCTYPE svg PUBLIC "-//W3C//DTD SVG 20010904//EN"
 "http://www.w3.org/TR/2001/REC-SVG-20010904/DTD/svg10.dtd">
<svg version="1.0" xmlns="http://www.w3.org/2000/svg"
 width="300.000000pt" height="172.000000pt" viewBox="0 0 300.000000 172.000000"
 preserveAspectRatio="xMidYMid meet">
<metadata>
Created by potrace 1.10, written by Peter Selinger 2001-2011
</metadata>
<g transform="translate(0.000000,172.000000) scale(0.100000,-0.100000)"
fill="#000000" stroke="none">
<path d="M378 1710 c-15 -4 -43 -18 -62 -29 -20 -13 -41 -19 -51 -14 -13 4
-25 -2 -40 -20 -11 -15 -56 -43 -99 -61 -43 -19 -82 -38 -86 -43 -8 -8 -26
-579 -37 -1179 l-6 -351 279 -6 c357 -9 1992 -9 2111 -1 84 6 90 8 105 35 22
38 78 53 126 33 32 -13 37 -13 54 3 10 9 30 18 44 19 40 4 89 38 87 60 -2 20
68 79 119 101 15 7 28 16 28 21 0 6 11 13 25 16 36 9 33 46 -7 84 -55 53 -70
71 -82 94 -6 12 -22 25 -36 28 -21 5 -24 11 -22 41 4 40 -26 76 -53 65 -14 -5
-16 0 -14 28 2 19 0 38 -3 41 -10 10 3 38 24 53 10 7 25 26 33 42 13 26 13 31
-9 62 l-23 34 39 34 c21 19 38 40 38 47 0 7 6 16 14 20 16 10 36 46 41 76 3
12 23 38 45 58 38 33 40 37 26 52 -9 8 -16 21 -16 27 0 7 -7 10 -15 7 -8 -4
-17 -2 -20 4 -4 5 -11 7 -16 3 -13 -8 -74 31 -92 60 -9 13 -18 50 -20 82 -3
32 -7 67 -9 76 -6 26 -60 69 -82 66 -13 -2 -22 4 -25 17 -4 11 -15 30 -26 42
l-19 23 -406 -5 c-223 -3 -501 -7 -619 -10 -118 -3 -432 -2 -698 2 l-483 6 0
84 c0 91 -1 92 -62 73z m39 -89 l-7 -89 435 -7 c240 -4 740 -3 1111 3 637 9
677 9 694 -8 9 -9 20 -29 24 -44 5 -20 12 -26 34 -26 32 0 52 -16 52 -42 0
-10 6 -18 13 -18 10 0 14 -14 13 -52 -2 -52 12 -96 42 -130 8 -10 19 -15 23
-12 5 3 12 -2 15 -10 3 -9 17 -16 31 -16 20 0 56 -13 71 -25 1 -1 -16 -20 -38
-42 -23 -24 -40 -50 -40 -63 0 -23 -37 -73 -97 -134 -18 -18 -33 -36 -33 -40
0 -4 10 -21 21 -38 17 -23 19 -32 9 -38 -7 -4 -10 -12 -6 -18 3 -6 -7 -20 -22
-31 -27 -19 -29 -25 -27 -79 2 -68 10 -86 36 -79 24 7 43 -17 35 -46 -7 -29
19 -68 39 -61 9 4 18 -3 24 -18 5 -12 34 -48 65 -79 l57 -57 -30 -10 c-17 -6
-31 -15 -31 -21 0 -5 -10 -13 -22 -17 -41 -13 -128 -87 -128 -110 0 -21 -35
-44 -68 -44 -10 0 -27 -7 -39 -15 -18 -13 -29 -13 -65 -4 -38 10 -49 9 -82 -6
-22 -10 -46 -31 -55 -47 l-16 -27 -230 -3 c-691 -10 -2198 1 -2212 16 -3 2 3
215 11 473 9 257 19 587 22 733 4 146 8 271 9 278 1 7 35 28 76 46 41 17 121
57 179 88 58 31 107 57 109 57 2 1 1 -39 -2 -88z"/>
</g>
</svg>
