<?xml version="1.0" standalone="no"?>
<!DOCTYPE svg PUBLIC "-//W3C//DTD SVG 20010904//EN"
 "http://www.w3.org/TR/2001/REC-SVG-20010904/DTD/svg10.dtd">
<svg version="1.0" xmlns="http://www.w3.org/2000/svg"
 width="300.000000pt" height="455.000000pt" viewBox="0 0 300.000000 455.000000"
 preserveAspectRatio="xMidYMid meet">
<metadata>
Created by potrace 1.10, written by Peter Selinger 2001-2011
</metadata>
<g transform="translate(0.000000,455.000000) scale(0.100000,-0.100000)"
fill="#000000" stroke="none">
<path d="M1080 4539 c-423 -10 -704 -20 -724 -26 -18 -5 -18 -22 -11 -539 4
-294 8 -549 10 -567 2 -17 6 -264 10 -547 7 -464 0 -850 -20 -1140 -2 -36 -5
-113 -6 -172 l-1 -107 -42 5 c-35 4 -47 0 -89 -31 -44 -33 -47 -38 -47 -81 0
-25 7 -59 16 -75 13 -26 14 -39 4 -80 -10 -42 -9 -58 5 -101 l17 -52 -40 -36
c-23 -19 -42 -44 -44 -55 -4 -24 -43 -45 -85 -45 -33 0 -38 -6 -27 -34 5 -14
8 -14 21 -1 22 23 70 19 76 -6 4 -14 2 -17 -6 -11 -21 17 -51 17 -76 0 -35
-25 -18 -41 26 -23 44 19 41 19 45 -5 3 -20 6 -19 53 11 28 18 68 38 90 45 79
25 232 53 338 62 86 7 113 13 137 31 47 34 319 142 380 150 30 4 83 17 117 29
34 12 83 22 109 22 26 0 64 5 85 11 46 14 82 2 129 -42 16 -16 36 -29 44 -29
22 0 39 28 32 55 -7 29 3 50 69 150 46 69 46 71 40 131 l-6 62 40 18 c49 21
78 83 61 128 -13 35 -13 36 4 36 31 0 39 28 29 100 -7 53 -6 78 4 101 17 41
16 104 -2 165 -9 31 -11 52 -5 58 15 15 12 26 -5 26 -8 0 -15 7 -15 15 0 8 -9
23 -20 32 -11 10 -20 23 -20 30 0 7 -9 18 -20 25 -23 14 -27 30 -6 22 19 -7
111 24 141 48 18 14 25 29 25 54 0 30 -3 34 -27 34 l-28 0 22 18 c21 15 22 23
18 82 -3 36 -7 100 -10 143 l-4 78 -47 25 c-38 20 -53 23 -70 15 -20 -9 -22
-7 -26 25 -3 25 -1 33 9 30 7 -3 46 -8 88 -12 68 -6 75 -9 75 -29 0 -27 39
-65 68 -65 25 0 42 27 42 67 0 15 7 37 15 47 9 12 15 42 15 73 0 52 1 54 30
60 37 7 44 17 30 43 -8 14 -21 20 -48 20 -59 0 -66 10 -58 75 5 45 3 60 -8 69
-19 14 -39 140 -30 186 l6 35 14 -39 c8 -22 11 -54 8 -75 -5 -29 -1 -40 15
-55 14 -12 21 -31 21 -53 0 -28 3 -33 18 -29 12 4 23 -5 40 -34 12 -21 22 -45
22 -53 0 -21 23 -37 58 -41 38 -4 62 -22 62 -47 0 -17 25 -49 38 -49 4 0 13 9
19 19 10 16 9 18 -8 14 -13 -4 -19 0 -19 12 0 11 5 15 14 12 18 -7 46 34 46
65 0 13 -7 34 -16 46 -13 19 -13 22 0 22 8 0 19 12 25 28 8 21 9 10 4 -48 -3
-41 -12 -87 -19 -101 -7 -15 -11 -29 -7 -32 3 -3 -2 -13 -11 -23 -11 -10 -16
-30 -14 -55 1 -28 -4 -45 -20 -62 -18 -19 -22 -35 -22 -90 0 -62 2 -68 25 -79
31 -14 47 -2 65 51 l13 40 17 -22 c10 -12 20 -32 24 -44 6 -17 3 -20 -12 -16
-11 2 -26 -3 -36 -12 -42 -43 9 -111 54 -70 11 10 20 24 20 32 0 7 11 13 25
13 20 0 26 7 36 43 8 25 26 53 46 70 39 33 43 66 14 114 l-20 31 24 6 c28 7
40 27 50 76 5 32 -1 45 -64 135 -71 100 -71 100 -193 171 -111 64 -126 77
-155 125 -18 30 -30 59 -28 66 2 7 -1 26 -7 43 -8 25 -7 39 5 68 9 20 16 51
17 67 3 96 2 158 -3 225 -3 41 -6 82 -6 91 -1 15 -7 15 -68 3 -38 -8 -76 -17
-85 -20 -16 -5 -17 15 -11 317 l6 322 -334 -4 c-184 -2 -449 -7 -589 -10z
m874 -345 c-7 -328 -7 -336 12 -331 10 4 42 11 69 17 28 5 59 12 70 15 18 4
20 -2 24 -63 7 -140 1 -236 -18 -286 -7 -16 -9 -42 -6 -57 4 -15 8 -41 10 -57
2 -17 18 -55 35 -86 27 -48 43 -62 115 -104 l83 -48 -23 -20 c-12 -11 -24 -26
-27 -34 -9 -28 -30 2 -25 35 6 38 -15 65 -50 65 -17 0 -22 -8 -27 -45 -8 -52
-2 -66 53 -120 24 -23 41 -48 41 -61 0 -28 -16 -40 -27 -21 -14 25 -61 49 -82
42 -15 -5 -21 0 -26 24 -3 16 -24 53 -46 82 -21 29 -39 58 -39 65 0 6 -7 17
-16 25 -10 8 -13 21 -9 36 8 33 -22 128 -52 164 l-26 30 37 77 c42 90 46 144
15 182 -21 24 -21 24 -35 5 -8 -11 -17 -31 -20 -45 -15 -68 -48 -158 -58 -154
-6 2 -17 0 -25 -5 -21 -14 4 -88 42 -124 24 -22 27 -30 17 -42 -13 -16 -5
-140 12 -185 5 -14 12 -52 14 -85 7 -79 8 -82 46 -105 18 -11 27 -20 21 -20
-9 0 -13 -18 -13 -57 -1 -35 -6 -66 -15 -77 -8 -11 -15 -35 -15 -54 0 -30 -2
-33 -16 -21 -8 7 -13 20 -11 29 6 24 -11 50 -33 50 -15 0 -19 8 -22 38 l-3 37
-23 -37 c-23 -37 -24 -37 -70 -31 -26 3 -63 12 -84 19 l-36 12 9 -31 c5 -18 9
-50 9 -73 0 -52 20 -72 58 -58 20 7 34 6 54 -6 25 -14 28 -20 28 -73 0 -32 5
-67 10 -78 9 -15 5 -24 -22 -48 l-32 -29 32 -7 c38 -8 39 -12 11 -41 -24 -26
-19 -53 11 -61 29 -8 24 -29 -10 -42 -17 -6 -43 -16 -59 -22 -21 -8 -35 -8
-49 0 -18 9 -22 7 -31 -20 -11 -32 -1 -69 19 -69 6 0 10 -7 10 -15 0 -8 9 -23
20 -32 11 -10 20 -29 20 -43 0 -14 4 -30 9 -36 11 -12 31 -96 31 -131 0 -15
-7 -46 -14 -68 -11 -30 -12 -55 -5 -99 8 -50 7 -61 -5 -68 -26 -15 -37 -44
-27 -72 12 -29 -6 -86 -27 -86 -7 0 -27 -14 -44 -30 -28 -29 -30 -33 -23 -88
6 -56 5 -58 -41 -127 -58 -86 -75 -125 -67 -156 l5 -24 -16 23 c-10 12 -31 29
-48 38 l-31 16 38 35 37 34 -6 72 c-8 83 -23 106 -58 90 -18 -8 -28 -27 -42
-87 -11 -42 -23 -79 -28 -82 -4 -3 -8 -18 -8 -33 0 -24 -5 -30 -31 -35 -17 -3
-50 -6 -73 -6 -22 0 -70 -10 -106 -22 -36 -11 -90 -24 -120 -28 -30 -5 -115
-33 -188 -63 -73 -30 -141 -57 -150 -61 -9 -3 -29 -15 -44 -27 -22 -18 -48
-24 -135 -32 -183 -16 -406 -71 -427 -106 -4 -6 -12 -11 -17 -11 -6 0 1 15 15
33 15 19 26 40 26 48 0 8 16 24 35 36 43 28 52 61 31 114 -14 34 -15 49 -5 97
10 49 10 62 -4 89 -10 18 -17 47 -17 65 0 48 52 80 114 72 56 -8 63 3 65 116
1 47 7 175 12 285 15 282 20 1125 10 1475 -5 162 -12 499 -16 748 l-7 452 98
1 c55 0 360 11 679 23 319 13 631 24 693 25 l113 1 -7 -336z m51 -541 c-4 -27
-11 -56 -17 -66 -5 -10 -12 -30 -14 -45 -7 -34 -12 -42 -30 -42 -10 0 -6 15
16 58 16 31 30 73 31 92 3 37 7 50 16 50 3 0 2 -21 -2 -47z m-69 -178 c-3 -9
7 -27 24 -45 32 -33 38 -50 17 -50 -13 0 -39 38 -56 83 -9 22 -8 27 5 27 10 0
14 -6 10 -15z m314 -304 c0 -22 8 -43 22 -58 29 -31 8 -30 -26 2 -20 19 -26
33 -24 58 3 46 28 45 28 -2z m244 -113 c64 -90 71 -112 49 -151 -9 -15 -32 15
-39 49 -3 19 -10 34 -15 34 -13 0 -49 -38 -49 -51 0 -6 18 -44 40 -84 22 -40
40 -79 40 -86 0 -8 -16 -27 -35 -42 -21 -17 -35 -37 -35 -50 0 -12 -5 -29 -10
-37 -7 -11 -10 -8 -10 16 0 38 -59 107 -84 98 -18 -7 -46 -54 -46 -79 0 -8 -4
-15 -9 -15 -17 0 1 95 25 131 19 27 23 43 18 67 -5 24 1 48 19 90 28 62 40
179 23 216 -9 17 -7 17 22 2 18 -9 58 -54 96 -108z m-414 -82 c0 -2 -7 -6 -15
-10 -8 -3 -15 -1 -15 4 0 6 7 10 15 10 8 0 15 -2 15 -4z m434 -88 c6 -4 7 -11
2 -15 -11 -11 -46 35 -46 61 1 18 3 17 17 -9 9 -16 21 -33 27 -37z m-134 -298
c0 -5 -5 -10 -11 -10 -5 0 -7 5 -4 10 3 6 8 10 11 10 2 0 4 -4 4 -10z m-873
-1234 c2 -60 0 -65 -33 -97 -19 -18 -34 -28 -34 -22 0 7 4 14 9 18 11 6 38 86
45 130 8 54 11 48 13 -29z m-50 -142 c-3 -3 -12 -4 -19 -1 -8 3 -5 6 6 6 11 1
17 -2 13 -5z"/>
<path d="M2662 2772 c-27 -103 -33 -140 -33 -209 1 -40 -3 -73 -7 -73 -4 0 -8
37 -7 83 0 76 -1 82 -22 85 -12 2 -27 -5 -35 -16 -7 -10 -29 -27 -48 -37 -19
-9 -59 -41 -87 -71 -44 -45 -53 -61 -53 -90 0 -19 -8 -51 -19 -72 -10 -20 -26
-61 -36 -91 -10 -29 -31 -76 -48 -102 -24 -40 -31 -63 -35 -124 -4 -70 -6 -74
-24 -64 -11 6 -23 8 -26 4 -10 -9 -3 -166 8 -206 7 -22 6 -37 -1 -46 -17 -20
-27 -16 -31 13 -3 25 -5 24 -66 -36 -59 -57 -63 -64 -58 -95 4 -19 15 -44 25
-56 17 -21 19 -21 40 -7 12 9 30 14 40 11 9 -2 28 4 40 15 23 18 25 18 59 1
42 -22 48 -19 56 25 4 19 13 39 21 46 8 7 15 29 15 50 0 48 5 52 41 32 29 -16
31 -16 49 6 16 20 22 21 41 12 16 -9 20 -18 16 -40 -5 -24 -2 -29 20 -35 14
-3 26 -5 28 -3 1 2 9 21 17 43 15 37 15 43 0 67 -14 24 -14 29 11 79 14 30 31
76 37 103 9 41 8 51 -5 66 -13 14 -17 41 -17 122 0 72 -4 110 -15 126 -11 17
-12 39 -7 90 6 64 8 68 40 83 l34 16 0 -36 c0 -20 7 -46 15 -58 14 -20 13 -25
-5 -56 -16 -28 -18 -40 -10 -61 17 -45 13 -76 -10 -76 -19 0 -20 -5 -17 -52 3
-35 11 -57 23 -67 14 -12 19 -31 21 -74 0 -32 7 -65 14 -73 9 -11 9 -18 1 -26
-20 -20 -14 -55 18 -105 34 -53 36 -73 15 -134 -9 -24 -13 -49 -11 -56 6 -15
52 -18 61 -3 3 5 20 13 37 18 19 5 38 19 48 36 8 16 30 37 49 47 49 26 71 49
71 75 0 17 7 24 31 29 l31 7 -7 181 c-9 265 -19 348 -47 396 -23 40 -23 41 -5
90 23 64 32 205 15 219 -7 5 -46 18 -85 28 -40 10 -73 22 -73 26 0 4 -19 12
-42 19 -24 6 -52 19 -63 30 -20 18 -21 18 -33 -29z m94 -47 c18 -14 36 -20
133 -45 l40 -10 -4 -71 c-3 -39 -9 -77 -15 -84 -5 -6 -13 -33 -16 -58 -5 -37
-2 -53 16 -84 19 -32 26 -74 46 -278 13 -132 21 -241 17 -243 -5 -1 -19 -8
-32 -15 -22 -11 -30 -22 -51 -67 -4 -8 -24 -24 -45 -35 -21 -11 -45 -31 -53
-45 -8 -14 -29 -32 -47 -41 l-32 -15 14 35 c20 46 11 103 -21 146 -29 38 -31
47 -14 75 10 15 9 24 -1 44 -8 14 -15 52 -15 86 -1 50 -5 63 -24 76 -25 17
-31 57 -7 48 20 -8 29 34 21 100 -6 41 -3 62 9 85 14 28 14 34 0 61 -26 51
-13 286 19 338 10 16 38 15 62 -3z m-161 -112 c-4 -10 -7 -39 -6 -65 2 -46 1
-47 -37 -59 l-40 -11 -7 -89 c-5 -64 -3 -94 7 -111 7 -14 13 -64 15 -125 1
-59 7 -111 14 -125 18 -31 12 -62 -22 -133 -34 -69 -35 -82 -12 -115 17 -24
16 -24 -16 3 -39 33 -98 36 -93 5 4 -22 -5 -23 -25 -3 -15 16 -45 13 -70 -7
-7 -6 -13 -30 -13 -53 0 -26 -6 -48 -15 -55 -8 -7 -15 -21 -15 -31 0 -18 -1
-19 -25 -3 -23 15 -27 15 -60 -6 -19 -12 -39 -19 -45 -15 -5 3 -18 1 -29 -4
-15 -9 -20 -7 -25 12 -8 31 48 85 69 67 12 -10 23 -7 56 14 l40 27 -7 62 c-4
34 -10 83 -14 109 -7 46 -6 47 17 42 12 -4 23 -5 24 -3 0 2 4 43 8 91 6 72 13
96 38 136 17 27 38 74 48 103 10 30 26 71 36 91 11 21 19 53 19 72 0 27 6 40
25 52 13 9 27 24 30 35 4 11 29 31 56 44 27 14 55 34 61 45 16 25 23 26 13 3z
m-77 -888 c-3 -3 -9 2 -12 12 -6 14 -5 15 5 6 7 -7 10 -15 7 -18z"/>
<path d="M2110 2715 c-7 -9 -10 -29 -7 -48 3 -23 -1 -39 -14 -56 -10 -13 -19
-33 -19 -45 0 -28 40 -66 70 -69 20 -1 21 -5 16 -42 -19 -124 -19 -166 -1
-185 27 -30 54 -24 96 21 41 45 69 112 69 169 0 38 -24 68 -85 106 -40 25 -45
32 -45 79 0 68 -47 109 -80 70z m46 -49 c3 -14 3 -34 -1 -45 -9 -31 11 -58 71
-97 59 -38 64 -53 43 -125 -12 -40 -63 -109 -81 -109 -10 0 -9 28 8 163 7 51
-5 77 -36 77 -9 0 -25 9 -34 19 -17 19 -17 21 3 48 17 23 19 34 12 61 -6 19
-6 32 0 32 5 0 11 -11 15 -24z"/>
<path d="M1981 2224 c-11 -14 -25 -51 -31 -82 -7 -31 -18 -82 -24 -112 -13
-53 -4 -114 21 -153 4 -7 8 -22 8 -34 1 -18 -3 -21 -26 -16 -40 8 -51 -20 -39
-90 7 -37 7 -63 0 -81 -12 -33 -13 -66 -1 -85 16 -25 57 13 88 79 23 51 31 60
54 60 28 0 59 27 59 51 0 8 -7 25 -16 37 -14 21 -14 25 0 47 19 28 21 56 5 72
-7 7 -8 38 -4 89 12 157 11 201 -9 223 -26 28 -60 26 -85 -5z m65 -51 c4 -21
2 -56 -4 -80 -16 -58 -16 -190 0 -195 9 -3 7 -14 -5 -41 -16 -33 -16 -39 -2
-66 21 -42 20 -44 -25 -39 -42 4 -50 -4 -50 -48 0 -36 -25 -29 -27 9 -1 17 -5
41 -7 53 -5 19 -2 20 39 18 33 -2 45 1 45 11 0 8 -5 17 -11 21 -6 3 -8 17 -5
30 4 14 -2 39 -14 63 -12 21 -22 48 -22 58 -1 21 28 164 43 211 14 43 36 41
45 -5z m-113 -533 c-3 -11 -10 -23 -16 -27 -7 -4 -8 0 -3 13 5 10 9 24 9 31 0
7 4 10 8 8 4 -3 5 -14 2 -25z"/>
<path d="M1176 397 c6 -60 4 -75 -10 -86 -15 -13 -14 -17 10 -48 32 -42 24
-56 -10 -17 l-25 29 -41 -42 c-40 -40 -42 -45 -49 -123 -9 -106 -3 -115 70
-106 190 22 221 31 234 65 3 8 -11 46 -31 84 -34 65 -35 71 -25 112 15 58 14
127 -1 147 -19 24 -80 58 -105 58 -22 0 -23 -2 -17 -73z m89 -77 c-11 -99 -7
-128 24 -187 l30 -54 -25 -10 c-14 -5 -41 -9 -60 -9 -18 0 -57 -9 -85 -20 -29
-10 -55 -17 -59 -15 -14 8 7 143 26 168 20 24 20 24 43 6 30 -24 43 -24 67 2
18 20 18 21 -4 59 -15 27 -18 41 -11 46 7 4 10 28 7 64 l-4 58 29 -22 c29 -21
29 -22 22 -86z"/>
</g>
</svg>
