<?xml version="1.0" standalone="no"?>
<!DOCTYPE svg PUBLIC "-//W3C//DTD SVG 20010904//EN"
 "http://www.w3.org/TR/2001/REC-SVG-20010904/DTD/svg10.dtd">
<svg version="1.0" xmlns="http://www.w3.org/2000/svg"
 width="300.000000pt" height="189.000000pt" viewBox="0 0 300.000000 189.000000"
 preserveAspectRatio="xMidYMid meet">
<metadata>
Created by potrace 1.10, written by Peter Selinger 2001-2011
</metadata>
<g transform="translate(0.000000,189.000000) scale(0.100000,-0.100000)"
fill="#000000" stroke="none">
<path d="M75 1880 c-3 -5 -10 -117 -15 -247 -6 -130 -12 -251 -15 -267 -2 -17
-7 -101 -9 -186 -3 -85 -10 -283 -16 -440 -5 -157 -11 -324 -13 -371 l-2 -87
65 -6 c36 -3 196 -8 355 -11 160 -3 307 -8 327 -10 21 -3 346 -5 722 -5 559 0
686 -3 695 -14 6 -7 42 -27 80 -45 38 -17 75 -38 81 -46 18 -21 57 -18 80 5
11 11 20 23 20 28 0 4 52 7 115 8 86 1 115 -2 119 -12 3 -8 26 -19 51 -25 25
-6 45 -17 45 -24 0 -8 9 -10 24 -8 25 5 67 -28 102 -82 14 -21 24 -25 65 -25
44 0 48 2 40 18 -6 9 -12 29 -15 44 -3 14 -18 40 -32 57 -24 29 -25 33 -11 54
12 18 23 61 32 117 0 3 4 10 8 17 21 33 0 112 -30 114 -11 0 -13 3 -5 6 17 7
15 64 -4 88 -14 18 -13 20 8 26 22 5 23 8 23 115 -1 60 -4 190 -8 289 -3 99
-9 266 -13 370 -3 105 -10 203 -16 218 -11 28 -53 57 -83 57 -8 0 -15 4 -15 9
0 4 -11 25 -25 45 l-25 37 44 44 c46 44 60 75 54 116 l-3 24 -320 -5 c-719
-11 -2400 0 -2457 16 -9 3 -19 0 -23 -6z m575 -38 c440 -9 1515 -9 1897 1 272
7 303 6 303 -8 0 -28 -27 -69 -64 -98 -39 -30 -46 -57 -20 -77 8 -8 21 -28 29
-47 10 -25 22 -35 45 -39 63 -13 65 -25 79 -384 6 -179 14 -392 17 -475 4 -82
3 -147 -1 -143 -4 4 -15 3 -25 -2 -22 -12 -33 -50 -15 -50 13 0 25 -21 25 -46
0 -8 -10 -14 -22 -14 -19 0 -20 -2 -6 -17 9 -10 13 -24 10 -32 -3 -10 1 -13
16 -9 22 6 32 -8 32 -47 0 -12 -8 -26 -17 -29 -11 -5 -13 -10 -6 -17 12 -12
-11 -112 -27 -117 -18 -6 -11 -44 15 -78 14 -18 29 -44 34 -57 9 -22 7 -24
-12 -19 -27 7 -53 41 -49 64 2 11 -3 18 -13 18 -9 0 -23 7 -31 15 -9 8 -26 15
-39 15 -13 0 -25 4 -27 9 -1 5 -16 11 -33 14 -42 6 -65 17 -65 33 0 10 -24 12
-122 9 -68 -3 -129 -5 -136 -5 -7 0 -17 -11 -22 -25 -10 -26 -43 -34 -56 -14
-3 6 -39 26 -80 45 -40 19 -75 42 -78 52 -5 16 -30 17 -348 12 -370 -5 -1064
2 -1483 16 -143 5 -275 9 -293 9 l-32 0 5 100 c6 109 21 492 31 755 3 91 10
215 15 275 5 61 9 160 9 221 0 61 3 133 7 159 l6 48 106 -7 c58 -3 257 -10
441 -14z"/>
</g>
</svg>
