<?xml version="1.0" standalone="no"?>
<!DOCTYPE svg PUBLIC "-//W3C//DTD SVG 20010904//EN"
 "http://www.w3.org/TR/2001/REC-SVG-20010904/DTD/svg10.dtd">
<svg version="1.0" xmlns="http://www.w3.org/2000/svg"
 width="300.000000pt" height="268.000000pt" viewBox="0 0 300.000000 268.000000"
 preserveAspectRatio="xMidYMid meet">
<metadata>
Created by potrace 1.10, written by Peter Selinger 2001-2011
</metadata>
<g transform="translate(0.000000,268.000000) scale(0.100000,-0.100000)"
fill="#000000" stroke="none">
<path d="M1215 2660 c-17 -19 -17 -21 4 -66 18 -38 20 -51 11 -79 -8 -24 -8
-39 1 -58 10 -22 9 -31 -5 -53 -27 -39 -66 -155 -66 -191 0 -34 -18 -83 -30
-83 -7 0 -19 -44 -21 -80 -1 -8 -9 -23 -17 -33 -14 -15 -14 -21 -3 -39 9 -15
10 -23 2 -31 -6 -6 -11 -19 -11 -29 0 -10 -6 -18 -14 -18 -19 0 -108 -81 -125
-114 -8 -14 -20 -26 -28 -26 -7 0 -18 -9 -25 -20 -7 -11 -20 -20 -29 -20 -9 0
-28 -9 -43 -21 l-26 -20 -9 24 c-15 39 -38 40 -82 5 -26 -21 -39 -39 -39 -55
0 -17 -5 -24 -17 -22 -38 3 -54 -2 -60 -18 -3 -10 -13 -26 -22 -37 -9 -10 -16
-35 -16 -55 0 -30 -4 -37 -23 -39 -18 -3 -22 -8 -16 -25 3 -12 10 -27 15 -32
15 -19 6 -55 -13 -55 -10 0 -18 -6 -18 -14 0 -7 -6 -18 -13 -24 -10 -9 -12 -4
-9 22 3 29 -1 37 -30 60 -19 14 -40 26 -47 26 -24 0 -91 -99 -91 -135 0 -9
-12 -26 -26 -39 -22 -18 -25 -26 -17 -42 6 -10 13 -43 16 -72 6 -50 5 -53 -14
-47 -26 9 -59 -20 -59 -51 0 -38 -19 -77 -34 -71 -8 3 -35 -1 -61 -9 -35 -10
-52 -11 -68 -3 -20 11 -20 10 -14 -60 3 -39 2 -73 -3 -76 -4 -3 -11 -27 -15
-54 -6 -43 -3 -55 19 -88 14 -21 26 -43 26 -50 0 -7 8 -16 17 -22 16 -9 16
-13 4 -32 -11 -19 -11 -23 0 -30 39 -22 52 -38 53 -67 1 -20 5 -30 13 -28 15
6 27 -10 44 -57 8 -22 23 -44 34 -49 11 -6 24 -17 28 -24 4 -8 14 -14 20 -14
7 0 17 -13 23 -28 12 -30 53 -47 104 -44 22 2 23 1 8 -8 -24 -14 -23 -47 1
-60 12 -6 17 -17 15 -27 -7 -24 55 -103 79 -103 11 0 30 -11 43 -25 19 -21 32
-25 79 -25 61 0 147 36 159 66 6 15 12 12 45 -20 l39 -38 57 21 c31 12 77 23
102 26 61 5 96 37 88 80 l-6 30 24 -26 24 -27 41 18 c23 10 58 30 79 44 37 25
38 25 45 6 10 -28 30 -25 93 16 57 36 79 64 56 72 -8 3 0 15 21 33 l33 29 -27
20 c-25 19 -26 22 -11 50 8 16 18 32 24 35 5 4 9 14 9 24 0 10 29 49 65 87 71
75 105 129 110 178 3 21 18 43 45 68 32 28 40 42 35 57 -4 14 0 24 15 33 27
16 46 60 55 126 4 29 12 52 19 52 21 0 53 -28 65 -58 9 -21 25 -33 64 -47 29
-10 60 -18 70 -18 25 2 52 38 83 113 15 36 34 70 42 77 8 7 16 26 18 43 2 17
12 46 21 63 10 18 19 34 20 36 1 2 19 -11 40 -28 21 -17 40 -31 44 -31 3 0 18
27 33 60 15 33 32 57 37 54 5 -3 22 8 38 23 16 16 33 27 38 26 11 -4 44 41 47
63 1 8 20 32 42 55 33 33 39 47 40 84 1 25 10 58 23 78 16 26 19 43 14 67 -8
41 -15 46 159 -92 75 -59 142 -108 150 -108 34 0 73 226 42 248 -13 10 -11 36
4 45 22 14 13 24 -18 19 -25 -3 -30 -1 -29 14 5 47 -2 62 -30 72 -16 6 -32 8
-35 5 -3 -3 -13 0 -23 8 -15 12 -16 12 -10 -3 4 -12 2 -18 -7 -18 -8 0 -16 7
-20 15 -7 20 -66 55 -92 55 -20 0 -59 -29 -65 -49 -3 -8 -15 -8 -36 -2 -21 6
-35 6 -39 0 -3 -6 -12 -8 -19 -5 -9 3 -15 -7 -20 -30 -3 -20 -10 -32 -17 -28
-7 4 -7 0 1 -14 11 -21 9 -21 -106 4 -15 3 -26 16 -34 43 -9 31 -15 38 -31 33
-11 -2 -22 -12 -26 -21 -10 -26 -58 -95 -81 -115 -15 -13 -24 -16 -33 -9 -17
13 -78 4 -78 -11 0 -14 -64 -76 -79 -76 -6 0 -11 -6 -11 -14 0 -7 -12 -22 -27
-31 -15 -10 -38 -31 -52 -46 l-26 -28 0 200 0 200 -312 -1 -313 -1 0 351 0
350 -43 0 c-31 0 -49 -6 -62 -20z m75 -358 l0 -355 315 5 315 5 0 -204 c0
-132 4 -203 10 -203 6 0 30 18 54 40 24 22 51 40 60 40 9 0 16 4 16 9 0 15 62
70 74 65 7 -3 18 11 26 31 16 40 30 43 71 14 27 -19 29 -19 29 -2 0 25 62 93
85 93 15 0 16 3 7 12 -28 28 -9 27 31 -1 32 -23 57 -32 110 -37 54 -5 67 -4
67 7 0 8 9 20 20 27 12 7 17 18 13 29 -4 11 -3 14 5 9 7 -4 12 -2 12 5 0 7 11
9 33 5 29 -5 34 -3 44 24 16 42 52 40 101 -5 22 -19 42 -32 46 -28 3 3 6 1 6
-5 0 -7 7 -12 15 -12 8 0 15 4 15 9 0 12 39 21 46 10 5 -8 -9 -13 -28 -10 -10
1 -10 0 3 -37 5 -16 19 -32 30 -35 22 -6 26 -27 4 -27 -8 0 -15 -4 -15 -10 0
-5 11 -10 24 -10 29 0 39 -13 41 -54 1 -24 -28 -132 -41 -154 -1 -2 -46 32
-101 75 -172 138 -217 172 -221 169 -8 -9 -18 -106 -10 -108 4 -2 -3 -20 -17
-41 -14 -20 -21 -37 -14 -37 8 0 8 -4 -1 -15 -7 -8 -9 -22 -6 -31 4 -10 -11
-35 -44 -72 -31 -35 -46 -58 -39 -63 8 -5 8 -8 0 -13 -6 -4 -15 -5 -21 -1 -5
3 -17 -9 -26 -26 -10 -21 -19 -28 -23 -20 -9 13 -81 -60 -81 -82 0 -6 -4 -18
-9 -26 -7 -11 -17 -8 -50 18 l-40 32 -12 -23 c-7 -13 -18 -26 -25 -31 -7 -4
-11 -14 -8 -21 3 -8 1 -17 -5 -21 -6 -3 -11 -19 -11 -36 0 -16 -5 -29 -10 -29
-10 0 -60 -102 -60 -124 0 -6 -11 -23 -25 -38 l-24 -28 -49 16 c-37 12 -53 24
-67 51 -19 35 -87 79 -105 68 -6 -3 -10 -19 -10 -35 0 -16 -5 -32 -10 -35 -6
-3 -10 -19 -10 -34 0 -31 -23 -83 -45 -101 -8 -7 -15 -22 -15 -34 0 -13 -13
-32 -30 -44 -28 -21 -66 -89 -56 -100 11 -11 -40 -92 -94 -147 -59 -60 -100
-123 -100 -151 0 -8 -7 -17 -15 -20 -21 -8 -19 -21 9 -49 l24 -24 -28 -13
c-28 -12 -47 -54 -28 -60 10 -4 -68 -58 -83 -58 -5 0 -9 7 -9 15 0 26 -38 17
-107 -25 l-67 -40 -21 20 c-12 11 -28 20 -37 20 -19 0 -31 -39 -17 -56 11 -14
-33 -47 -53 -39 -7 3 -47 -6 -88 -19 l-75 -25 -41 40 -40 39 -31 -35 c-17 -19
-38 -35 -47 -35 -9 0 -25 -9 -36 -20 -32 -32 -84 -27 -112 10 -12 16 -31 30
-42 30 -27 0 -76 61 -76 94 0 15 -8 30 -21 37 l-21 11 21 14 c17 13 19 18 9
39 -8 18 -17 24 -30 19 -41 -13 -73 5 -106 61 -34 57 -48 70 -37 35 5 -15 3
-18 -9 -14 -20 8 -50 68 -36 72 14 5 13 22 -2 22 -19 0 -68 52 -68 73 0 10 -8
21 -19 24 -22 6 -18 40 7 61 14 10 12 12 -11 12 -20 0 -31 7 -39 27 -7 16 -25
44 -40 64 -24 32 -26 38 -12 43 10 4 14 14 11 26 -3 11 0 23 5 26 7 4 8 29 5
65 -6 50 -4 58 11 57 9 0 46 7 82 14 60 14 66 17 77 49 7 19 12 44 12 57 1 17
7 22 29 22 15 0 33 5 39 11 13 13 7 102 -9 132 -7 14 -3 23 16 38 14 11 26 31
26 43 0 12 14 44 32 70 25 39 33 45 40 32 5 -9 16 -16 23 -16 16 0 18 -6 19
-55 1 -41 40 -48 58 -11 10 24 13 25 33 12 22 -15 23 -14 22 37 0 31 -6 59
-15 70 -14 15 -13 17 1 17 22 0 36 29 30 62 -4 20 0 29 16 38 12 6 20 19 19
28 -2 14 4 17 35 15 33 -2 37 0 37 20 0 24 11 41 47 71 22 18 23 18 32 -8 12
-29 37 -34 67 -11 10 8 28 15 39 15 12 0 54 37 103 90 46 49 93 90 105 92 14
2 25 14 32 33 5 17 14 33 20 37 7 5 5 15 -3 29 -11 17 -11 27 -3 45 6 13 16
35 22 48 6 13 8 30 4 38 -6 10 -5 11 6 1 20 -20 25 -16 26 20 0 84 18 159 58
239 20 39 26 64 23 93 -3 22 -1 53 3 68 6 21 3 41 -12 73 -23 49 -20 62 16 62
l25 0 0 -356z m1645 -442 c-3 -5 -12 -10 -18 -10 -7 0 -6 4 3 10 19 12 23 12
15 0z"/>
</g>
</svg>
