<?xml version="1.0" standalone="no"?>
<!DOCTYPE svg PUBLIC "-//W3C//DTD SVG 20010904//EN"
 "http://www.w3.org/TR/2001/REC-SVG-20010904/DTD/svg10.dtd">
<svg version="1.0" xmlns="http://www.w3.org/2000/svg"
 width="300.000000pt" height="325.000000pt" viewBox="0 0 300.000000 325.000000"
 preserveAspectRatio="xMidYMid meet">
<metadata>
Created by potrace 1.10, written by Peter Selinger 2001-2011
</metadata>
<g transform="translate(0.000000,325.000000) scale(0.100000,-0.100000)"
fill="#000000" stroke="none">
<path d="M1246 3241 c-4 -6 -17 -11 -29 -11 -14 0 -18 -3 -11 -10 6 -6 9 -24
6 -40 -3 -23 -10 -30 -26 -30 -12 0 -32 -8 -46 -17 -13 -9 -25 -13 -27 -7 -2
5 -8 16 -13 24 -9 13 -11 13 -20 0 -18 -28 -5 -47 38 -60 20 -5 30 -5 27 1 -4
5 1 9 11 9 9 0 34 16 55 35 22 19 44 35 49 35 12 0 13 50 1 69 -6 9 -11 10
-15 2z"/>
<path d="M985 3128 c-22 -11 -43 -25 -46 -30 -3 -5 -14 -5 -24 -2 -14 6 -17 4
-12 -9 5 -12 1 -17 -12 -17 -11 0 -22 6 -24 13 -4 8 -11 6 -24 -8 -29 -32 -79
-52 -220 -88 l-132 -34 -22 23 c-30 32 -53 30 -79 -6 -17 -25 -26 -28 -50 -23
-22 4 -30 2 -30 -8 -1 -73 -21 -371 -26 -396 -4 -22 -11 -30 -20 -26 -8 3 -23
-2 -33 -12 -11 -9 -26 -18 -35 -19 -34 -5 -118 -80 -138 -123 -11 -23 -26 -43
-34 -43 -11 0 -14 -16 -14 -64 0 -61 1 -64 28 -74 39 -13 80 -91 57 -108 -8
-6 -15 -18 -15 -26 0 -8 -10 -23 -21 -34 -19 -17 -21 -26 -16 -80 4 -39 2 -65
-5 -72 -9 -9 -9 -24 -1 -59 11 -48 4 -126 -15 -160 -12 -21 -3 -53 14 -53 7 0
34 -22 60 -50 43 -46 67 -59 136 -74 16 -4 28 -12 28 -19 0 -26 56 -68 148
-112 18 -9 35 -23 38 -33 24 -76 65 -142 89 -142 7 0 29 -16 48 -35 19 -19 43
-35 52 -35 10 0 37 -18 61 -40 24 -22 48 -40 53 -40 9 0 24 -85 26 -155 1 -22
5 -75 10 -118 6 -68 12 -83 41 -118 38 -46 40 -52 20 -68 -37 -30 -46 -75 -35
-162 5 -46 14 -88 20 -93 5 -6 9 -21 9 -34 0 -58 47 -108 116 -122 66 -14 101
-41 110 -84 l6 -34 221 -7 c265 -9 1218 -2 1235 9 7 4 12 1 12 -8 0 -9 4 -16
8 -16 5 0 12 52 16 116 5 94 3 119 -9 137 -8 12 -15 37 -15 57 0 20 -7 46 -16
58 -9 13 -13 30 -10 38 3 9 1 46 -5 84 -9 57 -8 77 6 116 9 27 20 53 24 59 5
5 11 31 14 57 4 25 16 65 28 87 18 36 20 51 15 114 -10 99 13 189 60 237 34
36 42 71 25 114 -9 23 32 194 60 245 10 19 22 50 25 68 3 18 10 33 15 33 5 0
9 5 9 11 0 7 12 22 26 35 14 13 23 28 19 33 -3 5 -1 12 5 16 5 3 10 18 10 33
0 28 39 82 59 82 7 0 9 5 5 12 -4 6 -7 26 -6 44 1 25 -2 32 -13 28 -8 -3 -17
-16 -21 -27 -3 -12 -19 -42 -34 -67 -15 -25 -31 -62 -34 -82 -8 -43 -46 -75
-46 -39 0 11 16 53 35 93 19 40 35 69 35 64 0 -23 29 20 40 59 9 34 18 45 32
45 14 0 18 -5 14 -17 -3 -10 4 -29 15 -43 l21 -25 -6 34 c-3 18 -6 44 -6 56 0
17 -7 24 -26 28 -30 5 -64 -22 -64 -51 0 -23 -19 -42 -35 -35 -8 2 -16 -6 -20
-19 -4 -13 -22 -54 -40 -93 -23 -48 -32 -79 -28 -97 3 -15 9 -26 13 -23 14 8
34 -25 23 -36 -11 -11 -43 24 -43 47 0 13 -47 7 -56 -7 -3 -5 -13 -9 -23 -9
-23 0 -67 -57 -85 -107 -8 -23 -20 -37 -32 -39 -10 -2 -33 -19 -50 -40 -21
-24 -36 -34 -44 -29 -10 6 -10 10 2 19 8 6 15 28 15 48 1 24 14 58 37 96 20
33 36 69 36 80 0 18 13 27 73 46 9 3 22 18 28 33 6 15 17 41 25 57 14 28 14
28 -11 24 -19 -4 -31 1 -45 20 -21 26 -19 60 6 97 8 11 14 30 14 42 0 19 -5
23 -30 23 -16 0 -30 -4 -30 -9 0 -4 -11 -6 -25 -3 -29 5 -30 10 -9 40 9 14 14
36 12 53 -3 19 0 29 8 29 13 0 8 36 -7 56 -5 5 -6 19 -3 30 3 12 -1 26 -10 33
-9 8 -16 20 -16 27 0 9 -11 14 -30 14 -24 0 -30 4 -30 20 0 18 -3 19 -21 10
-28 -16 -56 -5 -39 15 20 24 3 74 -28 81 -15 3 -61 14 -102 25 -41 11 -102 22
-135 24 -64 3 -123 21 -189 58 -23 12 -155 54 -293 92 -164 45 -253 75 -253
83 0 47 -75 132 -117 132 -10 0 -27 7 -37 15 -11 8 -30 15 -42 15 -12 0 -33 9
-47 20 -32 25 -63 25 -105 0 -44 -27 -47 -25 -21 12 13 17 22 42 21 54 -3 34
16 39 44 13 24 -22 24 -22 24 -2 0 16 9 22 38 28 l37 7 -39 20 c-27 14 -41 17
-49 9 -6 -6 -16 -11 -21 -11 -6 0 -5 5 2 12 19 19 14 55 -12 82 -28 31 -21 30
-71 4z m58 -34 c7 -7 -17 -55 -41 -86 -8 -9 -13 -25 -11 -35 1 -10 -8 -38 -19
-63 -12 -25 -22 -51 -22 -57 0 -20 35 -15 91 12 51 24 52 24 76 5 14 -11 40
-22 59 -26 18 -3 38 -12 45 -20 6 -8 19 -14 29 -14 9 0 20 -3 24 -7 4 -5 13
-8 18 -8 15 0 57 -74 58 -101 0 -18 27 -27 248 -88 142 -38 277 -81 317 -101
87 -42 179 -69 210 -61 13 3 41 0 62 -8 21 -8 66 -20 101 -27 66 -14 69 -17
50 -50 -11 -18 -9 -23 16 -45 16 -14 34 -23 42 -20 7 3 18 -2 24 -10 7 -8 20
-14 30 -14 21 0 44 -25 35 -39 -3 -6 -1 -19 4 -29 7 -13 7 -22 -1 -30 -9 -9
-8 -18 1 -38 8 -19 9 -29 1 -34 -6 -3 -15 -22 -20 -40 -8 -27 -6 -37 7 -52 17
-19 83 -26 83 -8 0 6 5 10 12 10 6 0 4 -8 -6 -19 -9 -10 -22 -35 -27 -56 -11
-38 -3 -60 36 -99 24 -24 16 -60 -15 -64 -37 -4 -71 -34 -74 -66 -2 -16 -8
-31 -14 -35 -16 -10 -62 -113 -62 -139 0 -12 -5 -30 -11 -41 -7 -11 -9 -32 -5
-55 6 -32 9 -35 26 -26 10 5 28 10 38 10 12 0 28 14 40 34 12 20 30 36 43 38
17 2 32 19 54 62 39 75 83 105 120 80 22 -15 23 -17 10 -54 -7 -21 -20 -51
-28 -66 -29 -57 -59 -206 -52 -258 6 -45 4 -51 -25 -81 -45 -46 -73 -157 -64
-252 5 -62 3 -77 -13 -106 -11 -18 -23 -53 -27 -77 -3 -25 -13 -58 -20 -75
-32 -71 -37 -101 -25 -174 6 -40 8 -78 6 -85 -3 -8 1 -26 9 -41 8 -15 14 -44
14 -64 0 -20 7 -46 15 -58 12 -17 14 -40 8 -114 l-6 -92 -671 7 c-369 4 -688
10 -708 13 -31 5 -39 11 -48 39 -13 38 -59 67 -125 80 -46 8 -85 44 -85 77 0
14 -6 40 -14 58 -8 19 -17 63 -20 98 -6 58 -4 68 19 102 34 52 33 93 -3 127
-26 24 -30 38 -40 122 -5 52 -10 104 -10 115 0 11 -3 48 -7 82 -7 60 -9 62
-69 113 -33 28 -74 54 -89 57 -15 3 -40 21 -54 39 -14 19 -34 34 -44 34 -19 0
-59 64 -59 94 0 22 -50 76 -70 76 -10 0 -22 5 -25 10 -4 6 -22 17 -41 25 -19
8 -43 29 -54 48 -22 37 -56 57 -97 57 -19 0 -42 16 -80 55 -29 30 -58 55 -64
55 -11 0 8 41 24 52 7 4 7 11 -1 21 -10 11 -10 21 -2 39 9 18 8 34 -3 65 -11
32 -11 44 -1 57 8 11 10 37 7 75 -5 55 -4 60 20 76 14 9 24 22 21 29 -3 7 2
19 11 26 19 16 19 44 0 60 -8 7 -15 20 -15 30 0 21 -47 70 -67 70 -20 0 -13
61 9 80 10 8 26 32 36 52 18 39 78 91 93 82 5 -3 9 0 9 5 0 6 6 11 14 11 7 0
19 7 27 16 8 10 24 14 46 12 29 -4 34 -1 31 16 -1 12 0 26 4 31 3 6 10 95 14
198 7 180 8 187 27 187 12 0 33 11 47 25 l27 25 18 -20 c22 -25 50 -25 140 1
39 11 89 24 112 29 24 5 64 19 90 31 27 12 72 24 101 27 35 3 52 9 52 18 0 8
15 23 33 34 33 21 49 24 60 14z"/>
<path d="M2962 2069 c-31 -12 -39 -37 -16 -54 26 -20 37 -14 45 23 8 37 3 43
-29 31z"/>
</g>
</svg>
