<?xml version="1.0" standalone="no"?>
<!DOCTYPE svg PUBLIC "-//W3C//DTD SVG 20010904//EN"
 "http://www.w3.org/TR/2001/REC-SVG-20010904/DTD/svg10.dtd">
<svg version="1.0" xmlns="http://www.w3.org/2000/svg"
 width="300.000000pt" height="250.000000pt" viewBox="0 0 300.000000 250.000000"
 preserveAspectRatio="xMidYMid meet">
<metadata>
Created by potrace 1.10, written by Peter Selinger 2001-2011
</metadata>
<g transform="translate(0.000000,250.000000) scale(0.100000,-0.100000)"
fill="#000000" stroke="none">
<path d="M341 2478 c-4 -13 -32 -171 -60 -353 -29 -181 -95 -595 -147 -920
-126 -783 -135 -848 -125 -858 28 -28 1578 -232 2291 -302 180 -18 514 -44
517 -41 2 2 82 935 118 1366 3 36 14 166 24 290 11 124 23 272 26 330 3 58 8
123 11 146 l4 40 -232 23 c-128 12 -327 31 -443 42 -207 19 -881 101 -1145
139 -315 46 -479 68 -535 75 -33 3 -111 15 -174 26 -62 10 -115 19 -118 19 -2
0 -7 -10 -12 -22z m119 -19 c19 -4 94 -15 165 -24 72 -9 207 -27 300 -41 94
-13 215 -31 270 -39 152 -22 886 -113 1005 -125 58 -5 202 -19 320 -30 118
-11 231 -22 250 -24 19 -3 74 -8 123 -12 l87 -7 -5 -46 c-3 -25 -35 -395 -70
-821 -74 -891 -106 -1264 -108 -1266 -3 -3 -611 55 -762 71 -731 82 -1995 250
-2010 267 -2 2 33 224 76 493 43 270 101 634 129 810 92 580 120 760 126 787
6 29 13 30 104 7z"/>
</g>
</svg>
